<svg width="102" height="106" viewBox="0 0 102 106" fill="none" xmlns="http://www.w3.org/2000/svg">
<path d="M0 22C0 9.84974 9.84974 0 22 0H80C92.1503 0 102 9.84974 102 22V84C102 96.1503 92.1503 106 80 106H22C9.84973 106 0 96.1503 0 84V22Z" fill="#D1222A"/>
<path d="M37.2842 73H65.2842" stroke="white" stroke-width="3" stroke-linecap="round"/>
<path d="M68.7695 41.4853L61.6984 34.4142C60.9173 33.6332 59.651 33.6332 58.87 34.4142L40.8387 52.4454L36.9497 66.234L50.7382 62.3449L68.7695 44.3137C69.5505 43.5327 69.5505 42.2663 68.7695 41.4853Z" fill="white"/>
<path d="M36.9508 66.2339L40.8398 52.4453L50.7393 62.3448L36.9508 66.2339Z" fill="#FFE0E0"/>
</svg>
