<svg width="138" height="46" viewBox="0 0 138 46" fill="none" xmlns="http://www.w3.org/2000/svg">
<path d="M0 0.330566H29.8477V15.2525H14.9239L0 0.330566ZM0 15.2525H14.9239L29.8477 30.1745H0V15.2525ZM0 30.1745H14.9239V45.0964L0 30.1745Z" fill="#030303"/>
<path d="M46.6888 12.1025H58.7538V15.9359H51.2553V21.2631H58.7538V25.0119H51.2553V31.8328H46.6888V12.1025ZM61.2344 18.2469H65.5476V21.0938C65.7729 20.1155 66.2338 19.3645 66.9289 18.8388C67.6417 18.2933 68.4331 18.0216 69.2968 18.0216C69.7482 18.0216 70.1244 18.0598 70.4241 18.1343V22.137C69.994 22.0851 69.5611 22.0571 69.1275 22.0523C67.9435 22.0523 67.0518 22.4367 66.4496 23.2075C65.8494 23.9591 65.5476 25.0863 65.5476 26.5903V31.8328H61.2364V18.2469H61.2344ZM77.233 32.1994C75.9179 32.1994 74.7708 31.8888 73.7937 31.2689C72.8351 30.649 72.0731 29.769 71.5951 28.7319C71.0878 27.643 70.8324 26.4107 70.8324 25.0399C70.8324 23.6867 71.0974 22.4647 71.6231 21.3758C72.1161 20.3237 72.8986 19.4341 73.8784 18.8108C74.8732 18.1909 76.0108 17.8803 77.2896 17.8803C78.2476 17.8803 79.1038 18.0878 79.8549 18.5009C80.606 18.9153 81.17 19.4792 81.5462 20.1919V18.2469H85.8307V31.8328H81.5462V29.9158C81.17 30.5923 80.5875 31.146 79.7982 31.5788C79.0089 31.9973 78.1267 32.2103 77.233 32.1994ZM78.4736 28.6193C79.5067 28.6193 80.3055 28.2814 80.8695 27.6048C81.4335 26.9282 81.7155 26.0728 81.7155 25.0399C81.7155 24.0254 81.4335 23.1795 80.8695 22.5029C80.3055 21.8263 79.5067 21.4884 78.4736 21.4884C77.4952 21.4884 76.7072 21.8168 76.1057 22.4749C75.5232 23.1331 75.2317 23.9871 75.2317 25.0399C75.2317 26.0926 75.5232 26.9562 76.1057 27.6328C76.7072 28.2909 77.4965 28.6193 78.4736 28.6193ZM88.8473 18.2469H93.1605V20.2199C93.4623 19.5236 93.9498 18.9597 94.6258 18.5289C95.3223 18.0981 96.13 17.8803 97.0504 17.8803C99.193 17.8803 100.613 18.7159 101.307 20.3892C101.689 19.6308 102.287 19.0034 103.027 18.5855C103.818 18.1097 104.726 17.866 105.648 17.8803C108.862 17.8803 110.469 19.7209 110.469 23.4048V31.8328H106.127V24.194C106.127 23.2744 105.958 22.5978 105.62 22.165C105.282 21.7335 104.774 21.5164 104.098 21.5164C103.365 21.5164 102.801 21.7704 102.406 22.2776C102.012 22.7664 101.814 23.6205 101.814 24.8426V31.8328H97.4731V24.166C97.4731 23.2457 97.3044 22.578 96.9657 22.165C96.6476 21.7335 96.1484 21.5164 95.4732 21.5164C94.7207 21.5164 94.1472 21.7704 93.7525 22.2776C93.3579 22.7664 93.1605 23.6205 93.1605 24.8426V31.8328H88.8487V18.2469H88.8473ZM126.671 24.3353C126.671 24.917 126.633 25.5471 126.557 26.2237H116.523C116.561 27.1071 116.861 27.7823 117.425 28.2534C117.989 28.7224 118.752 28.9579 119.708 28.9579C121.043 28.9579 121.889 28.5531 122.246 27.7454H126.474C126.267 29.0801 125.534 30.1595 124.275 30.9869C123.035 31.7946 121.512 32.1994 119.708 32.1994C117.379 32.1994 115.546 31.5693 114.211 30.3104C112.896 29.0508 112.238 27.2948 112.238 25.0399C112.238 23.5741 112.538 22.3056 113.14 21.2344C113.721 20.1646 114.617 19.299 115.705 18.7542C116.815 18.1725 118.102 17.8803 119.569 17.8803C120.958 17.8803 122.189 18.1527 123.26 18.6982C124.35 19.2437 125.187 20.0042 125.769 20.9812C126.371 21.9595 126.671 23.0771 126.671 24.3353ZM122.413 23.5461C122.394 22.6442 122.141 21.9574 121.652 21.4884C121.164 21.0194 120.458 20.7839 119.538 20.7839C118.617 20.7839 117.885 21.0371 117.339 21.5451C116.813 22.0339 116.541 22.7002 116.521 23.5461H122.413ZM128.573 18.2469H132.886V21.0938C133.112 20.1155 133.572 19.3645 134.268 18.8388C134.942 18.3077 135.777 18.0196 136.635 18.0216C137.086 18.0216 137.463 18.0598 137.763 18.1343V22.137C137.333 22.0851 136.9 22.0571 136.466 22.0523C135.282 22.0523 134.39 22.4367 133.788 23.2075C133.186 23.9591 132.886 25.0863 132.886 26.5903V31.8328H128.573V18.2469Z" fill="#030303"/>
</svg>
