<svg width="168" height="50" viewBox="0 0 168 50" fill="none" xmlns="http://www.w3.org/2000/svg">
<g clip-path="url(#clip0_2322_108)">
<path d="M40.584 33.3555L41.623 33.1417C42.5399 32.8972 42.7843 32.775 42.7843 30.9416V16.5494C42.7843 14.716 42.5093 14.5632 41.623 14.3493L40.584 14.1354V13.2798H57.1478L57.4534 19.3606H56.506C55.742 17.68 55.2531 16.7938 54.7946 16.1216C53.8167 14.716 53.1749 14.5937 51.0663 14.5937C49.5077 14.5937 48.7437 14.7771 48.2852 14.8993V22.6913H49.1104C51.2496 22.6913 51.7386 22.4468 52.1053 21.7746C52.5332 21.0106 52.7776 20.4301 53.0527 19.4522H53.9695V27.3359H53.0527C52.7776 26.3886 52.5332 25.7775 52.1053 24.8913C51.7386 24.1274 51.3413 23.9746 49.1104 23.9746H48.2852V29.8415C48.2852 32.5611 48.3769 32.8666 51.3413 32.8666C53.7861 32.8666 54.2751 32.5611 55.2836 31.0638C55.8337 30.2388 56.4144 28.9554 57.2089 27.0303H58.1869L57.759 34.2111H40.6145L40.584 33.3555ZM60.754 21.8968C60.0511 20.1856 59.7149 19.7578 58.9509 19.5134L58.3702 19.33V18.5355H67.4467V19.33L66.6216 19.5439C65.9798 19.7273 65.6742 20.0328 65.6742 20.7662C65.6742 21.194 65.827 21.7134 66.0715 22.3857L68.608 29.3526H68.7608L71.2057 22.3857C71.4807 21.6523 71.603 21.1329 71.603 20.7051C71.603 20.0328 71.2973 19.6967 70.6556 19.5439L69.8304 19.33V18.5355H75.423V19.33L74.8424 19.5134C74.0478 19.7884 73.7116 20.2467 72.9782 22.2329L68.3024 34.2111H65.7353L60.754 21.8968ZM74.7201 26.2969C74.7201 21.0412 78.6013 18.1383 82.6048 18.1383C86.761 18.1383 89.3586 20.2162 89.4503 25.6858H79.457C79.5487 30.636 81.4129 31.9805 84.5301 31.9805C86.3943 31.9805 87.8306 31.4305 88.9614 30.8499V31.8583C87.8917 33.0194 85.5997 34.6084 82.5742 34.6084C77.3178 34.5473 74.7201 31.4305 74.7201 26.2969ZM79.457 24.5247L84.6218 24.2496C84.6218 20.6134 84.1328 19.2689 82.3297 19.2689C80.8017 19.2689 79.5793 20.7356 79.457 24.5247ZM97.3961 20.4606C98.2518 19.5439 99.9937 18.0466 102.011 18.0466C103.294 18.0466 104.364 19.0856 104.364 20.3995C104.364 21.7134 103.325 22.7524 102.011 22.7524C101.063 22.7524 100.208 22.1718 99.8715 21.3468C99.6881 21.0106 99.2908 20.919 99.0158 20.919C98.4657 20.919 97.8239 21.3162 97.4266 21.6829V31.461C97.4266 32.8666 97.5489 33.0194 98.4657 33.1722L99.4742 33.3861V34.2111H90.7644V33.3861L91.559 33.1722C92.5675 32.8972 92.6897 32.7444 92.6897 31.461V22.0801C92.6897 20.7967 92.5369 20.7051 91.6812 20.1245L90.6727 19.4522V18.8411L97.0293 18.1077L97.3655 18.3522L97.3044 20.4301L97.3961 20.4606ZM105.281 33.3861L106.075 33.1722C107.084 32.8972 107.206 32.7444 107.206 31.461V22.0801C107.206 20.7967 107.053 20.7051 106.198 20.1245L105.189 19.4522V18.8411L111.546 18.1077L111.882 18.3216L111.821 20.2467H111.943C113.532 19.1161 115.518 18.1077 117.719 18.1077C120.286 18.1077 121.661 19.4217 121.661 22.1412V31.4305C121.661 32.7444 121.783 32.8972 122.761 33.1417L123.556 33.3555V34.1806H115.152V33.3555L115.885 33.1722C116.802 32.9278 116.894 32.8361 116.894 31.4305V23.3329C116.894 21.4995 116.221 20.919 114.816 20.919C113.746 20.919 112.676 21.1634 112.004 21.3162V31.461C112.004 32.8972 112.096 32.9583 113.013 33.2028L113.746 33.3861V34.2111H105.342V33.3861H105.281ZM124.137 26.3886C124.137 20.6134 128.232 18.1383 132.296 18.1383C136.666 18.1383 140.486 20.7662 140.486 26.2358C140.486 32.0111 136.452 34.5473 132.296 34.5473C127.926 34.5473 124.137 31.9194 124.137 26.3886ZM135.413 26.5414C135.413 20.4606 134.252 19.2995 132.174 19.2995C130.279 19.2995 129.148 20.6745 129.148 25.8692C129.148 32.0416 130.157 33.3861 132.357 33.3861C134.16 33.3861 135.413 32.3166 135.413 26.5414ZM143.084 30.3915V20.3078H141.189V19.5745C143.543 18.6578 145.346 16.916 146.201 14.5021H147.913V18.5355H151.916L151.519 20.3078H147.913V30.086C147.913 31.5833 148.371 32.1944 149.869 32.1944C150.602 32.1944 151.488 32.0416 152.038 31.9194V32.775C151.305 33.4472 149.807 34.5473 147.271 34.5473C144.551 34.5473 143.084 33.3555 143.084 30.3915ZM152.65 26.2969C152.65 21.0412 156.531 18.1383 160.534 18.1383C164.69 18.1383 167.288 20.2162 167.38 25.6858H157.417C157.509 30.636 159.373 31.9805 162.49 31.9805C164.354 31.9805 165.791 31.4305 166.921 30.8499V31.8583C165.852 33.0194 163.56 34.6084 160.534 34.6084C155.247 34.5473 152.65 31.4305 152.65 26.2969ZM157.386 24.5247L162.551 24.2496C162.551 20.6134 162.062 19.2689 160.259 19.2689C158.731 19.2689 157.509 20.7356 157.386 24.5247Z" fill="#030303"/>
<path d="M9.96335 15.6324C9.96335 15.9991 9.93279 16.6102 9.56606 17.0075C9.16877 17.3742 8.55756 17.4047 8.19083 17.4047H4.27908C3.14834 17.4047 2.47601 17.4047 2.0176 17.4658C1.77312 17.4964 1.46751 17.6186 1.31471 17.6797C1.25359 17.7103 1.25359 17.6797 1.28415 17.6492L10.2078 8.57383C10.2384 8.54327 10.269 8.54327 10.2384 8.60439C10.1773 8.75717 10.055 9.06274 10.0245 9.30719C9.96335 9.76554 9.96335 10.4378 9.96335 11.5684V15.6324ZM18.2758 43.0724C17.2368 42.4001 16.6867 41.514 16.4727 40.964C16.2588 40.4445 16.1366 39.8639 16.1366 39.2833C16.1366 36.7471 18.2147 34.6693 20.7818 34.6693C21.5458 34.6693 22.157 35.2804 22.157 36.0443C22.157 36.5638 21.882 36.9916 21.4541 37.236C21.3013 37.3277 21.0874 37.3888 20.9346 37.4194C20.7818 37.4499 20.2011 37.511 19.9261 37.7555C19.6205 38 19.376 38.3972 19.376 38.825C19.376 39.2833 19.5594 39.7111 19.865 40.0167C20.4151 40.5667 21.1485 40.8723 21.9431 40.8723C24.0212 40.8723 25.702 39.1917 25.702 37.1138C25.702 35.2499 24.4491 33.5998 22.7988 32.8664C22.5543 32.7442 22.157 32.6525 21.7903 32.5609C21.3319 32.4692 20.904 32.4081 20.8735 32.4081C19.5899 32.2553 16.3811 31.2469 16.1671 28.4051C16.1671 28.4051 15.2198 32.6831 13.325 33.8442C13.1416 33.9359 12.8972 34.0276 12.6221 34.0887C12.3471 34.1498 12.0415 34.1804 11.9498 34.1804C8.86317 34.3637 5.59319 33.3859 3.3317 31.0636C3.3317 31.0636 1.80368 29.8108 1.0091 26.2967C0.825739 25.4411 0.459012 23.9133 0.245088 22.4771C0.153406 21.9577 0.122846 21.5604 0.0922852 21.1938C0.0922852 19.6965 1.0091 18.6881 2.1704 18.5353C2.20096 18.5353 2.29265 18.5353 2.35377 18.5353C3.05666 18.5353 8.40476 18.5353 8.40476 18.5353C9.47438 18.5353 10.0856 18.2603 10.4829 17.8936C11.0024 17.4047 11.1246 16.7019 11.1246 15.8769C11.1246 15.8769 11.1246 10.3156 11.1246 9.61276C11.1246 9.5822 11.1246 9.45998 11.1246 9.42942C11.2775 8.29882 12.2859 7.35156 13.7834 7.35156C13.7834 7.35156 14.2418 7.35156 14.5169 7.35156C14.8225 7.35156 15.1892 7.38212 15.5254 7.41268C15.7699 7.44323 15.9838 7.50435 16.3505 7.59602C18.2147 8.05437 18.612 9.94888 18.612 9.94888C18.612 9.94888 22.1265 10.56 23.899 10.8656C25.5798 11.1712 29.736 11.4462 30.5306 15.6324C32.3948 25.5939 31.2641 35.2499 31.1724 35.2499C29.8583 44.6613 22.0348 44.203 22.0348 44.203C20.3539 44.203 19.101 43.653 18.2758 43.0724ZM25.3047 23.0577C24.2962 22.966 23.4406 23.3633 23.1349 24.1272C23.0738 24.28 23.0127 24.4633 23.0433 24.555C23.0738 24.6467 23.1349 24.6772 23.1961 24.7078C23.5628 24.8911 24.174 24.9828 25.0603 25.0745C25.9465 25.1661 26.5577 25.2272 26.955 25.1661C27.0161 25.1661 27.0773 25.1356 27.1384 25.0439C27.1995 24.9522 27.1689 24.7689 27.1689 24.6161C27.0467 23.7605 26.3132 23.1799 25.3047 23.0577Z" fill="#030303"/>
</g>
<defs>
<clipPath id="clip0_2322_108">
<rect width="167.967" height="49.155" fill="white"/>
</clipPath>
</defs>
</svg>
