<svg width="175" height="50" viewBox="0 0 175 50" fill="none" xmlns="http://www.w3.org/2000/svg">
<path d="M3.93017 20.1267C3.93017 17.4229 2.56048 15.1888 0 13.3125H5.95124C7.00033 14.1115 7.85034 15.1424 8.43478 16.3245C9.01922 17.5067 9.32225 18.808 9.32015 20.1267C9.32225 21.4454 9.01922 22.7467 8.43478 23.9288C7.85034 25.111 7.00033 26.1419 5.95124 26.9409C7.88355 27.7466 8.98285 29.713 8.98285 32.5274V37.89H3.59423V32.5274C3.59423 29.8468 2.31467 27.9705 0.00136559 26.9422C2.56185 25.0646 3.93153 22.8319 3.93153 20.1281L3.93017 20.1267ZM15.6087 20.1267C15.6087 17.4229 14.239 15.1888 11.6785 13.3125H17.6311C18.68 14.1117 19.5297 15.1426 20.1139 16.3247C20.6981 17.5069 21.0009 18.8081 20.9987 20.1267C21.0009 21.4453 20.6981 22.7465 20.1139 23.9286C19.5297 25.1108 18.68 26.1417 17.6311 26.9409C19.5621 27.7466 20.6627 29.713 20.6627 32.5274V37.89H15.2728V32.5274C15.2728 29.8468 13.9918 27.9705 11.6785 26.9422C14.239 25.0646 15.6087 22.8319 15.6087 20.1281V20.1267ZM27.2899 20.1267C27.2899 17.4229 25.9203 15.1888 23.3598 13.3125H29.311C30.3601 14.1115 31.2101 15.1424 31.7946 16.3245C32.379 17.5067 32.682 18.808 32.6799 20.1267C32.682 21.4454 32.379 22.7467 31.7946 23.9288C31.2101 25.111 30.3601 26.1419 29.311 26.9409C31.2433 27.7466 32.3426 29.713 32.3426 32.5274V37.89H26.9526V32.5274C26.9526 29.8468 25.6731 27.9705 23.3598 26.9422C25.9203 25.0646 27.2899 22.8319 27.2899 20.1281V20.1267ZM49.0957 33.4246H45.0098V17.7806H55.0496C59.8784 17.7806 62.2586 19.5695 62.2586 22.496C62.2586 24.4842 61.091 25.9809 58.9129 26.7415C61.1579 27.0761 62.1685 28.26 62.1685 30.3835V33.4219H58.0362V30.5624C58.0362 28.7735 57.1376 28.0593 54.7793 28.0593H49.0984V33.4246H49.0957ZM54.823 20.0598H49.0957V25.7815H54.7779C56.844 25.7815 58.1236 24.6413 58.1236 22.8537C58.1236 21.0881 56.9355 20.0598 54.823 20.0598ZM69.3542 17.7806H65.267V33.4246H69.3542V17.7806ZM81.8862 28.3269H76.9004V33.4219H72.8119V17.7806H81.975C86.8037 17.7806 89.3423 19.7921 89.3423 23.0108C89.3423 26.3387 86.76 28.3269 81.8862 28.3269ZM81.7961 20.0598H76.9004V26.0478H81.751C83.8622 26.0478 85.165 24.9758 85.165 23.0326C85.165 21.1331 83.8622 20.0598 81.7961 20.0598ZM100.842 28.3269H95.8562V33.4219H91.7676V17.7806H100.931C105.759 17.7806 108.298 19.7921 108.298 23.0108C108.298 26.3387 105.714 28.3269 100.842 28.3269ZM100.752 20.0598H95.8562V26.0478H100.707C102.818 26.0478 104.121 24.9758 104.121 23.0326C104.121 21.1331 102.818 20.0598 100.752 20.0598ZM114.811 17.7806V31.0977H125.007V33.4246H110.723V17.7806H114.811ZM131.652 17.7806H127.565V33.4246H131.652V17.7806ZM137.807 23.0094V33.4246H135.111V17.7806H138.169L149.308 28.1931V17.7806H152.004V33.4246H148.949L137.807 23.008V23.0094ZM165.346 19.6132C161.459 19.6132 158.922 22.0713 158.922 25.7351C158.922 29.3538 161.347 31.5893 165.12 31.5893H165.389C166.67 31.5893 168.107 31.3203 169.433 30.8969V26.6732H162.83V24.4392H173.43V31.79C171.23 32.9303 167.905 33.8247 165.21 33.8247H164.851C158.651 33.8247 154.654 30.561 154.654 25.8238C154.654 21.1317 158.765 17.3792 165.075 17.3792H165.434C168.063 17.3792 171.072 18.2053 173.296 19.5013L172.127 21.3994C170.129 20.3056 167.748 19.6132 165.615 19.6132H165.346Z" fill="#030303"/>
</svg>
