<svg width="118" height="50" viewBox="0 0 118 50" fill="none" xmlns="http://www.w3.org/2000/svg">
<g clip-path="url(#clip0_2322_111)">
<path d="M53.3673 22.3346V35.9392H50.2247V14.6521L64.2878 28.8592V15.1817H67.4321V36.5465L53.3673 22.3346ZM85.9441 14.3467C79.7917 14.3467 74.7882 19.3921 74.7882 25.5985C74.7882 31.8019 79.7917 36.847 85.9441 36.847C92.0946 36.847 97.1004 31.8019 97.1004 25.5985C97.1004 19.3921 92.0946 14.3467 85.9441 14.3467ZM85.9441 33.6518C81.5834 33.6518 78.0328 30.0383 78.0328 25.5985C78.0328 21.1581 81.5834 17.5451 85.9441 17.5451C90.3066 17.5451 93.8533 21.1581 93.8533 25.5985C93.8533 30.0384 90.3066 33.6518 85.9441 33.6518ZM31.7023 14.3467C25.55 14.3467 20.5463 19.3921 20.5463 25.5985C20.5463 31.8019 25.55 36.847 31.7023 36.847C37.8557 36.847 42.8581 31.8019 42.8581 25.5985C42.8581 19.3921 37.8559 14.3467 31.7023 14.3467ZM31.7023 33.6518C27.3397 33.6518 23.7935 30.0383 23.7935 25.5985C23.7935 21.1581 27.3397 17.5451 31.7023 17.5451C36.0633 17.5451 39.6132 21.1581 39.6132 25.5985C39.6133 30.0384 36.0633 33.6518 31.7023 33.6518ZM6.86204 27.179L6.84932 27.1736C4.74887 26.5009 3.34291 25.8379 2.28364 25.0213C0.769447 23.8581 0 22.3737 0 20.6103C0 18.9589 0.761498 17.3495 2.08846 16.1859C3.44417 14.999 5.31226 14.3467 7.34692 14.3467C11.6059 14.3467 14.0397 17.2085 14.1418 17.3313L11.5576 19.092C10.9591 18.6411 9.38659 17.6288 7.3468 17.6288C4.78495 17.6288 3.25364 19.1445 3.25364 20.6103C3.25364 21.6329 3.80969 22.7573 7.83314 24.0486L7.84867 24.0512C9.94362 24.722 11.3547 25.3869 12.4128 26.2012C13.9284 27.3669 14.6968 28.8513 14.6968 30.615C14.6968 32.2663 13.935 33.8783 12.6053 35.0394C11.2525 36.224 9.385 36.8761 7.34814 36.8761C3.0905 36.8761 0.656451 34.0169 0.554584 33.8936L3.14089 32.1329C3.73852 32.5847 5.31104 33.5967 7.34802 33.5967C9.91097 33.5967 11.4435 32.084 11.4435 30.615C11.4439 29.5924 10.8893 28.4678 6.86204 27.179ZM109.814 27.179L109.8 27.1736C107.701 26.5009 106.293 25.8379 105.236 25.0212C103.723 23.8578 102.95 22.3734 102.95 20.6099C102.95 18.9585 103.714 17.3492 105.042 16.1857C106.393 14.999 108.259 14.3467 110.299 14.3467C114.558 14.3467 116.993 17.2085 117.097 17.3313L114.509 19.092C113.912 18.6411 112.339 17.6288 110.299 17.6288C107.735 17.6288 106.204 19.1445 106.204 20.6103C106.204 21.6329 106.76 22.7573 110.787 24.0486L110.803 24.0512C112.9 24.722 114.306 25.3869 115.366 26.2012C116.877 27.3669 117.648 28.8513 117.648 30.615C117.648 32.2663 116.887 33.8783 115.561 35.0394C114.206 36.224 112.338 36.8761 110.3 36.8761C106.042 36.8761 103.61 34.0169 103.507 33.8936L106.092 32.1329C106.691 32.5847 108.26 33.5967 110.3 33.5967C112.865 33.5967 114.394 32.084 114.394 30.615C114.393 29.5924 113.839 28.4678 109.814 27.179Z" fill="#030303"/>
</g>
<defs>
<clipPath id="clip0_2322_111">
<rect width="117.782" height="49.155" fill="white"/>
</clipPath>
</defs>
</svg>
