<svg width="145" height="50" viewBox="0 0 145 50" fill="none" xmlns="http://www.w3.org/2000/svg">
<g clip-path="url(#clip0_2322_113)">
<path d="M142.924 18.6225C142.924 18.0689 142.536 17.6999 141.895 17.6999L140.638 17.723L140.66 20.5369H141.346V19.5682H141.758L142.353 20.5369H143.153L142.444 19.4529C142.591 19.3708 142.713 19.2503 142.797 19.1042C142.882 18.9581 142.926 18.7917 142.924 18.6225ZM141.758 18.9916H141.324V18.2765H141.827C141.917 18.2665 142.008 18.2921 142.081 18.3479C142.153 18.4038 142.201 18.4856 142.215 18.5764V18.5995C142.214 18.6565 142.2 18.7125 142.176 18.7639C142.151 18.8153 142.116 18.8609 142.073 18.8979C142.03 18.9348 141.98 18.9622 141.925 18.9784C141.871 18.9945 141.814 18.999 141.758 18.9916ZM40.3161 31.6314C39.1498 31.6314 38.3495 30.7088 38.3495 29.3479V23.1433H43.1517V18.7609H38.3609L38.3152 13.7327H33.0098L33.0555 30.4781C33.0555 33.8688 35.2966 36.1753 38.5896 36.1753C40.3275 36.1753 41.974 35.9216 43.2775 35.3219V31.0548C42.3519 31.488 41.3351 31.686 40.3161 31.6314ZM52.9849 18.4841C48.0454 18.4841 44.2494 22.3591 44.2494 27.5027C44.2494 32.6002 48.0454 36.1522 53.2822 36.1522C56.2322 36.1522 58.9992 35.0912 60.6914 32.9L56.6209 31.0317C55.7977 31.7929 54.5399 32.0927 53.4194 32.0927C51.59 32.0927 49.7605 31.147 49.509 29.2095H61.6518C61.8343 28.5172 61.9266 27.8039 61.9263 27.0875C61.9263 21.8055 58.1073 18.4841 52.9963 18.4841H52.9849ZM49.509 25.8189C49.6691 23.5124 51.3156 22.4514 53.1221 22.4514C55.1574 22.4514 56.6895 23.6046 56.6895 25.5883V25.8189H49.509ZM27.9674 31.6314C26.8012 31.6314 26.0008 30.7088 26.0008 29.3479V23.1433H30.8031V18.7609H26.0122L25.9665 13.7327H20.6611L20.7069 30.4781C20.7069 33.8688 22.9479 36.1753 26.2409 36.1753C27.9789 36.1753 29.6254 35.9216 30.9288 35.3219V31.0548C30.0039 31.4901 28.9866 31.6882 27.9674 31.6314ZM9.3301 18.4841C4.77939 18.4841 0 21.5057 0 27.595C0 32.6694 3.38445 36.2214 7.66074 36.2214C10.1076 36.2214 11.9599 35.2296 13.1719 33.4766L13.332 35.9216H18.4658V27.8026C18.4658 21.621 13.9494 18.4841 9.3301 18.4841ZM9.3301 31.5391C7.02044 31.5391 5.35109 29.8092 5.35109 27.3643C5.35109 24.9194 6.99758 23.1895 9.3301 23.1895C11.4797 23.1895 13.2634 25.0808 13.2634 27.3643C13.2634 29.6478 11.4797 31.5391 9.3301 31.5391ZM141.644 16.4313C139.974 16.4544 138.9 17.5384 138.922 19.153C138.945 20.7676 140.043 21.8286 141.712 21.8055C143.336 21.7825 144.434 20.6984 144.411 19.0608C144.388 17.4231 143.29 16.4082 141.644 16.4313ZM141.712 21.3442C140.409 21.3673 139.517 20.4908 139.517 19.153C139.517 17.8152 140.363 16.9157 141.667 16.8926C142.97 16.8695 143.839 17.746 143.862 19.1069C143.862 20.4216 142.993 21.3212 141.724 21.3442H141.712ZM115.712 18.784L112.007 29.6247L108.257 18.784H102.494L109.4 35.8985H114.568L121.474 18.784H115.712ZM129.455 18.4841C124.516 18.4841 120.72 22.3591 120.72 27.5027C120.72 32.6002 124.516 36.1522 129.752 36.1522C132.702 36.1522 135.469 35.0912 137.162 32.9L133.091 31.0317C132.268 31.7929 131.01 32.0927 129.89 32.0927C128.06 32.0927 126.231 31.147 125.979 29.2095H138.122C138.305 28.5172 138.397 27.8039 138.396 27.0875C138.396 21.8055 134.578 18.4841 129.455 18.4841ZM133.16 25.8189H125.979C126.139 23.5124 127.786 22.4514 129.592 22.4514C131.628 22.4514 133.16 23.6046 133.16 25.5883V25.8189ZM98.4005 11.2646C96.5254 11.2646 95.1076 12.5332 95.1076 14.3093C95.1076 16.0853 96.5254 17.4001 98.4005 17.4001C100.276 17.4001 101.694 16.1084 101.694 14.3093C101.694 12.5102 100.299 11.2646 98.4005 11.2646ZM74.3207 18.4611C73.2485 18.4436 72.19 18.7063 71.2483 19.2237C70.3066 19.741 69.5137 20.4954 68.9467 21.4134L68.7638 18.784H63.6413V35.8985H68.9467V26.9261C69.061 24.781 70.7761 23.1433 72.6513 23.1433C74.7551 23.1433 75.7156 24.7349 75.7156 26.7415V35.8755H80.9981V25.9112C80.9981 21.5749 78.3797 18.4611 74.3207 18.4611ZM90.5111 31.6314C89.3449 31.6314 88.5445 30.7088 88.5445 29.3479V23.1433H93.3467V18.7609H88.5445L88.4987 13.7327H83.1934L83.2391 30.4781C83.2391 33.8688 85.4802 36.1753 88.7732 36.1753C90.5111 36.1753 92.1576 35.9216 93.4611 35.3219V31.0548C92.5396 31.4883 91.5265 31.6863 90.5111 31.6314ZM95.725 18.784V35.8985H101.076V18.784C100.283 19.3142 99.3522 19.597 98.4005 19.597C97.4489 19.597 96.5183 19.3142 95.725 18.784Z" fill="#030303"/>
</g>
<defs>
<clipPath id="clip0_2322_113">
<rect width="144.411" height="49.155" fill="white"/>
</clipPath>
</defs>
</svg>
