<svg width="174" height="50" viewBox="0 0 174 50" fill="none" xmlns="http://www.w3.org/2000/svg">
<path d="M170.836 20.8259C171.848 21.8991 172.357 23.3543 172.357 25.1979V34.8965H168.604V26.2974C168.604 25.211 168.297 24.3551 167.683 23.7296C167.07 23.1041 166.241 22.788 165.19 22.788C163.949 22.8078 162.964 23.2357 162.239 24.0654C161.514 24.895 161.149 25.9616 161.149 27.2587V34.8965H157.421V13.3461H161.149V22.3205C162.2 20.286 164.047 19.2522 166.685 19.2127C168.434 19.2127 169.824 19.7461 170.836 20.8259ZM149.131 22.551C147.891 22.551 146.879 22.979 146.108 23.8283C145.338 24.6843 144.946 25.7839 144.946 27.1402C144.946 28.5361 145.338 29.6554 146.108 30.5114C146.885 31.3608 147.891 31.7887 149.137 31.7887C150.972 31.7887 152.349 31.1764 153.27 29.9583L155.594 31.9073C154.908 32.9146 153.968 33.7179 152.871 34.2315C151.742 34.7714 150.437 35.0414 148.942 35.0414C147.434 35.0414 146.089 34.7122 144.914 34.0537C143.758 33.4151 142.805 32.4472 142.179 31.2817C141.526 30.09 141.199 28.7205 141.199 27.1731C141.199 25.6061 141.532 24.2168 142.192 23.0185C142.825 21.8399 143.785 20.8786 144.946 20.2333C146.122 19.5749 147.473 19.2457 149.007 19.2457C150.404 19.2457 151.651 19.4893 152.747 19.9831C153.844 20.4769 154.738 21.1814 155.43 22.0901L153.165 24.2695C152.114 23.1238 150.776 22.551 149.131 22.551ZM138.817 19.3576V34.8965H135.089V32.4274C134.561 33.257 133.823 33.9352 132.955 34.3895C132.086 34.8438 131.088 35.0743 129.958 35.0743C128.503 35.0743 127.23 34.7385 126.126 34.0735C125.03 33.4085 124.168 32.4669 123.561 31.2554C122.954 30.0439 122.647 28.6546 122.647 27.0876C122.647 25.5402 122.954 24.1707 123.567 22.979C124.175 21.7872 125.036 20.8654 126.133 20.207C127.23 19.5485 128.496 19.2193 129.932 19.2193C131.062 19.2193 132.067 19.4498 132.942 19.9041C133.816 20.3584 134.561 21.03 135.089 21.8662V19.3708L138.817 19.3576ZM133.738 30.755C134.521 29.9912 134.972 28.9772 135.089 27.7196V26.6201C134.972 25.3559 134.528 24.3485 133.745 23.5847C132.961 22.8209 131.969 22.439 130.761 22.439C129.482 22.439 128.437 22.8802 127.634 23.7625C126.831 24.6448 126.42 25.7839 126.401 27.1731C126.42 28.569 126.831 29.7015 127.634 30.5838C128.437 31.4661 129.482 31.9073 130.761 31.9073C131.962 31.9073 132.955 31.5254 133.738 30.755ZM118.893 21.3592C120.127 22.7748 120.741 24.7567 120.741 27.3114C120.741 27.8118 120.728 28.1937 120.715 28.4439H109.389C109.637 29.5501 110.146 30.4126 110.923 31.0447C111.693 31.6768 112.646 31.9863 113.776 31.9863C114.546 31.9863 115.316 31.8348 116.028 31.5319C116.739 31.2422 117.379 30.8011 117.908 30.2414L119.912 32.3616C119.135 33.2241 118.182 33.8957 117.111 34.3369C116.015 34.8043 114.794 35.0348 113.456 35.0348C111.889 35.0348 110.505 34.7056 109.31 34.0471C108.142 33.4151 107.176 32.4472 106.543 31.2752C105.89 30.0834 105.57 28.7139 105.57 27.1666C105.57 25.6193 105.896 24.2431 106.562 23.0448C107.202 21.8662 108.162 20.8917 109.33 20.2399C110.518 19.5683 111.863 19.2391 113.371 19.2391C115.819 19.2391 117.66 19.9502 118.893 21.3592ZM117.333 25.9221C117.294 24.7765 116.922 23.8678 116.217 23.1897C115.512 22.5115 114.572 22.1691 113.403 22.1691C112.313 22.1691 111.399 22.5049 110.662 23.1699C109.924 23.8349 109.474 24.7501 109.297 25.9155H117.333V25.9221ZM101.516 20.0424C102.404 19.509 103.442 19.2325 104.63 19.2127V22.8736C103.044 22.7748 101.777 23.1501 100.831 23.9929C99.8841 24.8357 99.4076 25.9748 99.4076 27.4036V34.8965H95.6801V19.3576H99.4076V22.3469C99.9298 21.3395 100.628 20.5691 101.516 20.0424ZM92.8861 33.9352C91.6654 34.6924 90.3794 35.0677 89.0412 35.0677C87.7225 35.0677 86.6389 34.6727 85.8033 33.8891C84.9612 33.1056 84.5434 31.9468 84.5434 30.4192V15.7231L88.2448 15.2753V19.9897H92.6315V22.7485H88.2448V29.7542C88.2448 30.4719 88.3753 30.9789 88.643 31.2752C88.9106 31.578 89.3088 31.7229 89.8441 31.7229C90.4186 31.7229 91.1432 31.5122 92.0244 31.0842L92.8861 33.9352ZM77.6369 19.3576H81.3382V28.0686C81.3382 33.1517 77.8327 35.0414 74.275 35.0414C70.7172 35.0414 67.2183 33.1517 67.2183 28.0686V19.3576H70.9196V28.2003C70.9196 30.1492 72.3558 31.7295 74.2815 31.7295C76.2072 31.7295 77.6434 30.1492 77.6434 28.2003L77.6369 19.3576ZM59.5479 15.6704C61.1473 16.5461 62.479 17.8432 63.4059 19.4169C64.346 21.0037 64.8094 22.7683 64.8094 24.704C64.8094 26.6398 64.3394 28.4044 63.4059 30.0044C62.479 31.5912 61.1473 32.9015 59.5479 33.7969C57.9094 34.7253 56.1012 35.1928 54.1101 35.1928C52.1191 35.1928 50.3109 34.7253 48.6789 33.7969C47.0795 32.9015 45.7478 31.5912 44.8209 30.0044C43.8874 28.4044 43.4174 26.6398 43.4174 24.704C43.4174 22.7683 43.8874 21.0037 44.8209 19.4169C45.7478 17.8366 47.0795 16.5461 48.6789 15.6704C50.3109 14.7618 52.1256 14.3074 54.1101 14.3074C56.1012 14.3009 57.9159 14.7552 59.5479 15.6704ZM50.7613 18.7058C49.7234 19.2983 48.8617 20.1609 48.2676 21.2012C47.654 22.2613 47.3472 23.4267 47.3472 24.704C47.3472 25.9814 47.6605 27.1534 48.2807 28.2201C48.8813 29.267 49.7429 30.1361 50.7744 30.7484C51.8188 31.3673 52.9482 31.6768 54.1754 31.6768C55.357 31.6834 56.519 31.3608 57.5308 30.7484C58.5557 30.1361 59.3978 29.267 59.9853 28.2201C60.5924 27.1468 60.8992 25.9353 60.8861 24.704C60.8861 23.4267 60.5859 22.2613 59.9853 21.2012C59.4043 20.1675 58.5557 19.3049 57.5308 18.7058C56.5124 18.1 55.357 17.7839 54.1754 17.7905C52.9743 17.7839 51.7992 18.1 50.7613 18.7058ZM15.3276 5.58984C20.6087 5.58984 28.5859 7.22933 32.2937 10.989C33.2338 11.9437 34.4676 13.807 34.4676 16.5461C34.4676 21.4053 30.5965 28.8653 26.3272 33.1978C24.1208 35.4364 20.6087 38.3599 15.8825 38.3599C11.2607 38.3599 7.73562 35.1862 6.71726 34.1459C2.80049 30.1822 0 24.1641 0 18.5609C0 15.0185 0.998776 11.9239 3.53815 9.34947C5.88821 6.97254 9.94206 5.58984 15.3276 5.58984ZM21.8621 24.9806C23.6442 23.1765 24.1273 20.951 24.1273 19.7263C24.1273 18.8374 23.8988 17.5403 22.8021 16.4276C21.1244 14.7223 19.2574 14.2416 17.2338 14.2416C14.6683 14.2416 12.9449 15.0646 11.796 16.2235C10.8951 17.1453 10.1183 18.5411 10.1183 20.5362C10.1183 22.5246 11.1693 24.4473 12.3052 25.6061C13.3627 26.6727 15.0208 27.4629 16.6854 27.4629C18.3566 27.4629 20.08 26.7847 21.8621 24.9806Z" fill="#030303"/>
</svg>
