<svg width="41" height="40" viewBox="0 0 41 40" fill="none" xmlns="http://www.w3.org/2000/svg">
<path d="M18.9 39.95C16.2667 39.8167 13.8 39.2 11.5 38.1C9.2 37 7.2 35.5583 5.5 33.775C3.8 31.9917 2.45833 29.9167 1.475 27.55C0.491667 25.1833 0 22.6667 0 20C0 17.2333 0.525 14.6333 1.575 12.2C2.625 9.76667 4.05 7.65 5.85 5.85C7.65 4.05 9.76667 2.625 12.2 1.575C14.6333 0.525 17.2333 0 20 0C24.9667 0 29.2833 1.56667 32.95 4.7C36.6167 7.83333 38.8667 11.7667 39.7 16.5H36.65C36.0833 13.7 34.9 11.2 33.1 9C31.3 6.8 29.05 5.15 26.35 4.05V4.95C26.35 6.11667 25.95 7.13333 25.15 8C24.35 8.86667 23.3667 9.3 22.2 9.3H17.85V13.65C17.85 14.2167 17.625 14.6833 17.175 15.05C16.725 15.4167 16.2167 15.6 15.65 15.6H11.5V20H17V26.25H13.65L3.45 16.05C3.28333 16.7167 3.16667 17.375 3.1 18.025C3.03333 18.675 3 19.3333 3 20C3 24.5 4.51667 28.3833 7.55 31.65C10.5833 34.9167 14.3667 36.6833 18.9 36.95V39.95ZM38.5 38.65L31.8 31.95C31.1 32.45 30.3417 32.8333 29.525 33.1C28.7083 33.3667 27.8667 33.5 27 33.5C24.6333 33.5 22.625 32.675 20.975 31.025C19.325 29.375 18.5 27.3667 18.5 25C18.5 22.6333 19.325 20.625 20.975 18.975C22.625 17.325 24.6333 16.5 27 16.5C29.3667 16.5 31.375 17.325 33.025 18.975C34.675 20.625 35.5 22.6333 35.5 25C35.5 25.8667 35.3583 26.7083 35.075 27.525C34.7917 28.3417 34.4167 29.1167 33.95 29.85L40.65 36.5L38.5 38.65ZM27 30.5C28.5333 30.5 29.8333 29.9667 30.9 28.9C31.9667 27.8333 32.5 26.5333 32.5 25C32.5 23.4667 31.9667 22.1667 30.9 21.1C29.8333 20.0333 28.5333 19.5 27 19.5C25.4667 19.5 24.1667 20.0333 23.1 21.1C22.0333 22.1667 21.5 23.4667 21.5 25C21.5 26.5333 22.0333 27.8333 23.1 28.9C24.1667 29.9667 25.4667 30.5 27 30.5Z" fill="#D1222A"/>
</svg>
