<svg width="36" height="43" viewBox="0 0 36 43" fill="none" xmlns="http://www.w3.org/2000/svg">
<path d="M18 43C15.4 40.7 12.5583 38.9333 9.475 37.7C6.39167 36.4667 3.23333 35.85 0 35.85V14.4C3.13333 14.4 6.24167 15.1167 9.325 16.55C12.4083 17.9833 15.3 19.9833 18 22.55C20.7 19.9833 23.5917 17.9833 26.675 16.55C29.7583 15.1167 32.8667 14.4 36 14.4V35.85C32.7667 35.85 29.6083 36.4667 26.525 37.7C23.4417 38.9333 20.6 40.7 18 43ZM18 39.15C20.3667 37.45 22.8083 36.0917 25.325 35.075C27.8417 34.0583 30.4 33.4167 33 33.15V17.65C30.7333 18.0167 28.3417 18.925 25.825 20.375C23.3083 21.825 20.7 23.8333 18 26.4C15.0667 23.7 12.4 21.65 10 20.25C7.6 18.85 5.26667 17.9833 3 17.65V33.15C5.6 33.4167 8.15833 34.0583 10.675 35.075C13.1917 36.0917 15.6333 37.45 18 39.15ZM18.15 15.4C15.9833 15.4 14.1583 14.6583 12.675 13.175C11.1917 11.6917 10.45 9.86667 10.45 7.7C10.45 5.53333 11.1917 3.70833 12.675 2.225C14.1583 0.741667 15.9833 0 18.15 0C20.3167 0 22.1417 0.741667 23.625 2.225C25.1083 3.70833 25.85 5.53333 25.85 7.7C25.85 9.86667 25.1083 11.6917 23.625 13.175C22.1417 14.6583 20.3167 15.4 18.15 15.4ZM18.15 12.4C19.45 12.4 20.5583 11.9417 21.475 11.025C22.3917 10.1083 22.85 9 22.85 7.7C22.85 6.4 22.3917 5.29167 21.475 4.375C20.5583 3.45833 19.45 3 18.15 3C16.85 3 15.7417 3.45833 14.825 4.375C13.9083 5.29167 13.45 6.4 13.45 7.7C13.45 9 13.9083 10.1083 14.825 11.025C15.7417 11.9417 16.85 12.4 18.15 12.4Z" fill="#2E6D48"/>
</svg>
