<svg width="46" height="32" viewBox="0 0 46 32" fill="none" xmlns="http://www.w3.org/2000/svg">
<path d="M0.899902 32.0002V27.3002C0.899902 26.1335 1.1999 25.0752 1.7999 24.1252C2.3999 23.1752 3.23324 22.4669 4.2999 22.0002C6.73324 20.9335 8.9249 20.1669 10.8749 19.7002C12.8249 19.2335 14.8332 19.0002 16.8999 19.0002C18.9666 19.0002 20.9666 19.2335 22.8999 19.7002C24.8332 20.1669 27.0166 20.9335 29.4499 22.0002C30.5166 22.4669 31.3582 23.1752 31.9749 24.1252C32.5916 25.0752 32.8999 26.1335 32.8999 27.3002V32.0002H0.899902ZM35.8999 32.0002V27.3002C35.8999 25.2002 35.3666 23.4752 34.2999 22.1252C33.2332 20.7752 31.8332 19.6835 30.0999 18.8502C32.3999 19.1169 34.5666 19.5085 36.5999 20.0252C38.6332 20.5419 40.2832 21.1335 41.5499 21.8002C42.6499 22.4335 43.5166 23.2169 44.1499 24.1502C44.7832 25.0835 45.0999 26.1335 45.0999 27.3002V32.0002H35.8999ZM16.8999 15.9502C14.6999 15.9502 12.8999 15.2502 11.4999 13.8502C10.0999 12.4502 9.3999 10.6502 9.3999 8.4502C9.3999 6.2502 10.0999 4.4502 11.4999 3.0502C12.8999 1.6502 14.6999 0.950195 16.8999 0.950195C19.0999 0.950195 20.8999 1.6502 22.2999 3.0502C23.6999 4.4502 24.3999 6.2502 24.3999 8.4502C24.3999 10.6502 23.6999 12.4502 22.2999 13.8502C20.8999 15.2502 19.0999 15.9502 16.8999 15.9502ZM27.3999 15.9502C27.0332 15.9502 26.6249 15.9252 26.1749 15.8752C25.7249 15.8252 25.3166 15.7335 24.9499 15.6002C25.7499 14.7669 26.3582 13.7419 26.7749 12.5252C27.1916 11.3085 27.3999 9.9502 27.3999 8.4502C27.3999 6.9502 27.1916 5.6252 26.7749 4.4752C26.3582 3.3252 25.7499 2.26686 24.9499 1.3002C25.3166 1.2002 25.7249 1.11686 26.1749 1.0502C26.6249 0.983529 27.0332 0.950195 27.3999 0.950195C29.5999 0.950195 31.3999 1.6502 32.7999 3.0502C34.1999 4.4502 34.8999 6.2502 34.8999 8.4502C34.8999 10.6502 34.1999 12.4502 32.7999 13.8502C31.3999 15.2502 29.5999 15.9502 27.3999 15.9502ZM3.8999 29.0002H29.8999V27.3002C29.8999 26.7669 29.7416 26.2502 29.4249 25.7502C29.1082 25.2502 28.7166 24.9002 28.2499 24.7002C25.8499 23.6335 23.8332 22.9169 22.1999 22.5502C20.5666 22.1835 18.7999 22.0002 16.8999 22.0002C14.9999 22.0002 13.2249 22.1835 11.5749 22.5502C9.9249 22.9169 7.8999 23.6335 5.4999 24.7002C5.03324 24.9002 4.6499 25.2502 4.3499 25.7502C4.0499 26.2502 3.8999 26.7669 3.8999 27.3002V29.0002ZM16.8999 12.9502C18.1999 12.9502 19.2749 12.5252 20.1249 11.6752C20.9749 10.8252 21.3999 9.7502 21.3999 8.4502C21.3999 7.1502 20.9749 6.0752 20.1249 5.2252C19.2749 4.3752 18.1999 3.9502 16.8999 3.9502C15.5999 3.9502 14.5249 4.3752 13.6749 5.2252C12.8249 6.0752 12.3999 7.1502 12.3999 8.4502C12.3999 9.7502 12.8249 10.8252 13.6749 11.6752C14.5249 12.5252 15.5999 12.9502 16.8999 12.9502Z" fill="#F9AA1B"/>
</svg>
