<svg width="180" height="45" viewBox="0 0 180 45" fill="none" xmlns="http://www.w3.org/2000/svg">
<rect width="180" height="45" rx="3" fill="#2E6D48"/>
<path d="M36.9535 22.6899C36.9535 20.8052 37.4589 19.3525 38.4696 18.332C39.3485 17.4434 40.4667 16.999 41.8241 16.999C43.6405 16.999 44.9687 17.5947 45.8085 18.7861C46.2724 19.4551 46.5214 20.1265 46.5556 20.8003H44.2997C44.1532 20.2827 43.9652 19.8921 43.7357 19.6284C43.3256 19.1597 42.7177 18.9253 41.912 18.9253C41.0917 18.9253 40.4447 19.2573 39.9711 19.9214C39.4975 20.5806 39.2606 21.5156 39.2606 22.7266C39.2606 23.9375 39.5097 24.8457 40.0077 25.4512C40.5106 26.0518 41.1479 26.3521 41.9193 26.3521C42.7104 26.3521 43.3134 26.0933 43.7284 25.5757C43.9579 25.2974 44.1483 24.8799 44.2997 24.3232H46.5336C46.3383 25.5 45.8378 26.457 45.0321 27.1943C44.2313 27.9316 43.2035 28.3003 41.9486 28.3003C40.3959 28.3003 39.1752 27.8022 38.2865 26.8062C37.3979 25.8052 36.9535 24.4331 36.9535 22.6899ZM52.2796 19.8262C52.3187 19.8262 52.3504 19.8286 52.3748 19.8335C52.4041 19.8335 52.4651 19.8359 52.5579 19.8408V21.9795C52.4261 21.9648 52.3089 21.9551 52.2063 21.9502C52.1038 21.9453 52.0208 21.9429 51.9573 21.9429C51.1175 21.9429 50.5535 22.2163 50.2654 22.7632C50.1043 23.0708 50.0237 23.5444 50.0237 24.1841V28H47.9217V20.0166H49.9139V21.4082C50.2361 20.876 50.5169 20.5122 50.7562 20.3169C51.1468 19.9897 51.6546 19.8262 52.2796 19.8262ZM56.7878 21.5254C56.3044 21.5254 55.9284 21.6768 55.6599 21.9795C55.3962 22.2822 55.2302 22.6924 55.1618 23.21H58.4064C58.3723 22.6582 58.2038 22.2407 57.9011 21.9575C57.6032 21.6694 57.2321 21.5254 56.7878 21.5254ZM56.7878 19.8042C57.4519 19.8042 58.05 19.9287 58.5822 20.1777C59.1145 20.4268 59.5539 20.8198 59.9006 21.3569C60.2131 21.8306 60.4157 22.3799 60.5085 23.0049C60.5622 23.3711 60.5842 23.8984 60.5744 24.5869H55.1105C55.1398 25.3877 55.3913 25.9492 55.8649 26.2715C56.153 26.4717 56.4997 26.5718 56.905 26.5718C57.3347 26.5718 57.6838 26.4497 57.9523 26.2056C58.0988 26.0737 58.2282 25.8906 58.3405 25.6562H60.4719C60.4182 26.1299 60.1716 26.6108 59.7321 27.0991C59.0485 27.8755 58.0915 28.2637 56.861 28.2637C55.8454 28.2637 54.9494 27.9365 54.173 27.2822C53.3967 26.6279 53.0085 25.5635 53.0085 24.0889C53.0085 22.707 53.3576 21.6475 54.0559 20.9102C54.759 20.1729 55.6696 19.8042 56.7878 19.8042ZM66.2398 24.1182C66.108 24.2012 65.9737 24.2695 65.837 24.3232C65.7052 24.3721 65.5221 24.4185 65.2877 24.4624L64.8189 24.5503C64.3795 24.6284 64.0645 24.7236 63.8741 24.8359C63.5519 25.0264 63.3907 25.3218 63.3907 25.7222C63.3907 26.0786 63.4884 26.3374 63.6837 26.4985C63.8839 26.6548 64.1256 26.7329 64.4088 26.7329C64.858 26.7329 65.2706 26.6011 65.6466 26.3374C66.0274 26.0737 66.2252 25.5928 66.2398 24.8945V24.1182ZM64.9728 23.144C65.3585 23.0952 65.6344 23.0342 65.8004 22.9609C66.0982 22.834 66.2472 22.6362 66.2472 22.3677C66.2472 22.0405 66.1324 21.8159 65.9029 21.6938C65.6783 21.5669 65.3463 21.5034 64.9068 21.5034C64.4137 21.5034 64.0645 21.6255 63.8595 21.8696C63.713 22.0503 63.6153 22.2944 63.5665 22.6021H61.5523C61.5963 21.9038 61.7916 21.3301 62.1383 20.8809C62.69 20.1777 63.6373 19.8262 64.9801 19.8262C65.8541 19.8262 66.6305 19.9995 67.3092 20.3462C67.9879 20.6929 68.3272 21.3472 68.3272 22.3091V25.9712C68.3272 26.2251 68.3321 26.5327 68.3419 26.894C68.3565 27.1675 68.398 27.353 68.4664 27.4507C68.5348 27.5483 68.6373 27.6289 68.774 27.6924V28H66.5035C66.44 27.8389 66.3961 27.6875 66.3717 27.5459C66.3473 27.4043 66.3277 27.2432 66.3131 27.0625C66.025 27.375 65.693 27.6411 65.317 27.8608C64.8678 28.1196 64.36 28.249 63.7936 28.249C63.0709 28.249 62.4728 28.0439 61.9991 27.6338C61.5304 27.2188 61.296 26.6328 61.296 25.876C61.296 24.8945 61.6744 24.1841 62.4312 23.7446C62.8463 23.5054 63.4566 23.3345 64.2623 23.2319L64.9728 23.144ZM69.2173 21.5767V20.0898H70.3306V17.8633H72.396V20.0898H73.6924V21.5767H72.396V25.7954C72.396 26.1226 72.4375 26.3276 72.5205 26.4106C72.6035 26.4888 72.8574 26.5278 73.2822 26.5278C73.3457 26.5278 73.4116 26.5278 73.48 26.5278C73.5532 26.5229 73.624 26.5181 73.6924 26.5132V28.0732L72.7036 28.1099C71.7173 28.144 71.0435 27.9731 70.6821 27.5972C70.4478 27.3579 70.3306 26.9893 70.3306 26.4912V21.5767H69.2173ZM78.0321 21.5254C77.5487 21.5254 77.1728 21.6768 76.9042 21.9795C76.6405 22.2822 76.4745 22.6924 76.4062 23.21H79.6508C79.6166 22.6582 79.4481 22.2407 79.1454 21.9575C78.8476 21.6694 78.4765 21.5254 78.0321 21.5254ZM78.0321 19.8042C78.6962 19.8042 79.2943 19.9287 79.8266 20.1777C80.3588 20.4268 80.7982 20.8198 81.1449 21.3569C81.4574 21.8306 81.6601 22.3799 81.7528 23.0049C81.8065 23.3711 81.8285 23.8984 81.8187 24.5869H76.3549C76.3842 25.3877 76.6356 25.9492 77.1093 26.2715C77.3974 26.4717 77.744 26.5718 78.1493 26.5718C78.579 26.5718 78.9281 26.4497 79.1967 26.2056C79.3432 26.0737 79.4726 25.8906 79.5849 25.6562H81.7162C81.6625 26.1299 81.4159 26.6108 80.9765 27.0991C80.2929 27.8755 79.3358 28.2637 78.1054 28.2637C77.0897 28.2637 76.1937 27.9365 75.4174 27.2822C74.641 26.6279 74.2528 25.5635 74.2528 24.0889C74.2528 22.707 74.602 21.6475 75.3002 20.9102C76.0033 20.1729 76.914 19.8042 78.0321 19.8042ZM89.6706 23.9204H92.4099L91.0622 19.6724L89.6706 23.9204ZM89.8098 17.2041H92.3586L96.1818 28H93.7355L93.0397 25.7808H89.0627L88.3156 28H85.9572L89.8098 17.2041ZM102.008 22.8804C101.969 22.5825 101.869 22.314 101.708 22.0747C101.474 21.7524 101.11 21.5913 100.617 21.5913C99.9137 21.5913 99.4327 21.9404 99.1739 22.6387C99.0372 23.0098 98.9688 23.5029 98.9688 24.1182C98.9688 24.7041 99.0372 25.1753 99.1739 25.5317C99.4229 26.1958 99.8917 26.5278 100.58 26.5278C101.068 26.5278 101.415 26.396 101.62 26.1323C101.825 25.8687 101.95 25.5269 101.994 25.1069H104.125C104.076 25.7417 103.847 26.3423 103.437 26.9087C102.782 27.8218 101.813 28.2783 100.529 28.2783C99.2447 28.2783 98.2999 27.8975 97.6944 27.1357C97.089 26.374 96.7862 25.3853 96.7862 24.1694C96.7862 22.7974 97.1207 21.7305 97.7896 20.9688C98.4586 20.207 99.3814 19.8262 100.558 19.8262C101.559 19.8262 102.377 20.0508 103.012 20.5C103.651 20.9492 104.03 21.7427 104.147 22.8804H102.008ZM110.208 22.8804C110.169 22.5825 110.069 22.314 109.908 22.0747C109.673 21.7524 109.31 21.5913 108.816 21.5913C108.113 21.5913 107.632 21.9404 107.374 22.6387C107.237 23.0098 107.168 23.5029 107.168 24.1182C107.168 24.7041 107.237 25.1753 107.374 25.5317C107.623 26.1958 108.091 26.5278 108.78 26.5278C109.268 26.5278 109.615 26.396 109.82 26.1323C110.025 25.8687 110.149 25.5269 110.193 25.1069H112.325C112.276 25.7417 112.046 26.3423 111.636 26.9087C110.982 27.8218 110.013 28.2783 108.729 28.2783C107.444 28.2783 106.5 27.8975 105.894 27.1357C105.289 26.374 104.986 25.3853 104.986 24.1694C104.986 22.7974 105.32 21.7305 105.989 20.9688C106.658 20.207 107.581 19.8262 108.758 19.8262C109.759 19.8262 110.577 20.0508 111.211 20.5C111.851 20.9492 112.229 21.7427 112.347 22.8804H110.208ZM117.221 26.5278C117.831 26.5278 118.3 26.3105 118.627 25.876C118.954 25.4414 119.118 24.8237 119.118 24.0229C119.118 23.2222 118.954 22.6069 118.627 22.1772C118.3 21.7427 117.831 21.5254 117.221 21.5254C116.611 21.5254 116.14 21.7427 115.808 22.1772C115.48 22.6069 115.317 23.2222 115.317 24.0229C115.317 24.8237 115.48 25.4414 115.808 25.876C116.14 26.3105 116.611 26.5278 117.221 26.5278ZM121.308 24.0229C121.308 25.1948 120.971 26.1982 120.297 27.0332C119.623 27.8633 118.6 28.2783 117.228 28.2783C115.856 28.2783 114.833 27.8633 114.16 27.0332C113.486 26.1982 113.149 25.1948 113.149 24.0229C113.149 22.8706 113.486 21.8721 114.16 21.0273C114.833 20.1826 115.856 19.7603 117.228 19.7603C118.6 19.7603 119.623 20.1826 120.297 21.0273C120.971 21.8721 121.308 22.8706 121.308 24.0229ZM124.74 20.0166V24.8286C124.74 25.2827 124.793 25.6245 124.901 25.854C125.091 26.2593 125.465 26.4619 126.021 26.4619C126.734 26.4619 127.222 26.1738 127.486 25.5977C127.623 25.2852 127.691 24.8726 127.691 24.3599V20.0166H129.808V28H127.779V26.8721C127.76 26.8965 127.711 26.9697 127.633 27.0918C127.554 27.2139 127.462 27.3213 127.354 27.4141C127.027 27.707 126.71 27.9072 126.402 28.0146C126.099 28.1221 125.743 28.1758 125.333 28.1758C124.151 28.1758 123.355 27.751 122.945 26.9014C122.716 26.4326 122.601 25.7417 122.601 24.8286V20.0166H124.74ZM136.103 19.8262C136.928 19.8262 137.602 20.0435 138.125 20.478C138.652 20.9077 138.916 21.623 138.916 22.624V28H136.777V23.144C136.777 22.7241 136.721 22.4019 136.609 22.1772C136.404 21.7671 136.013 21.562 135.437 21.562C134.729 21.562 134.243 21.8623 133.979 22.4629C133.842 22.7803 133.774 23.1855 133.774 23.6787V28H131.694V20.0312H133.708V21.1958C133.977 20.7856 134.231 20.4902 134.47 20.3096C134.9 19.9873 135.444 19.8262 136.103 19.8262ZM139.879 21.5767V20.0898H140.992V17.8633H143.058V20.0898H144.354V21.5767H143.058V25.7954C143.058 26.1226 143.099 26.3276 143.182 26.4106C143.265 26.4888 143.519 26.5278 143.944 26.5278C144.007 26.5278 144.073 26.5278 144.142 26.5278C144.215 26.5229 144.286 26.5181 144.354 26.5132V28.0732L143.365 28.1099C142.379 28.144 141.705 27.9731 141.344 27.5972C141.109 27.3579 140.992 26.9893 140.992 26.4912V21.5767H139.879Z" fill="white"/>
</svg>
