<svg width="83" height="35" viewBox="0 0 83 35" fill="none" xmlns="http://www.w3.org/2000/svg">
<rect opacity="0.1" y="0.0913086" width="83" height="34" rx="17" fill="#F9AA1B"/>
<path d="M19.5129 20.6618C20.0791 20.6618 20.5444 20.603 20.9088 20.4852C21.559 20.2666 22.0916 19.8462 22.5064 19.2239C22.8372 18.725 23.0754 18.086 23.2212 17.3067C23.3053 16.8415 23.3473 16.4098 23.3473 16.0118C23.3473 14.4814 23.0418 13.293 22.4307 12.4465C21.8253 11.6 20.8471 11.1768 19.4961 11.1768H16.5278V20.6618H19.5129ZM14.8461 9.7389H19.8493C21.5478 9.7389 22.8652 10.3415 23.8014 11.5468C24.6366 12.6343 25.0543 14.0273 25.0543 15.7259C25.0543 17.0377 24.8076 18.2233 24.3143 19.2828C23.4454 21.1551 21.9515 22.0913 19.8325 22.0913H14.8461V9.7389ZM31.0508 12.8838C31.6899 12.8838 32.3093 13.0351 32.9091 13.3378C33.509 13.6349 33.9658 14.0217 34.2798 14.4982C34.5825 14.9523 34.7843 15.4821 34.8852 16.0875C34.9749 16.5023 35.0197 17.1638 35.0197 18.0719H28.4189C28.4469 18.9857 28.6627 19.7201 29.0663 20.275C29.47 20.8244 30.095 21.0991 30.9415 21.0991C31.7319 21.0991 32.3626 20.8384 32.8335 20.3171C33.1025 20.0144 33.2931 19.664 33.4052 19.266H34.8936C34.8543 19.5967 34.7226 19.9667 34.4984 20.3759C34.2798 20.7795 34.0331 21.1103 33.7584 21.3682C33.2987 21.8166 32.7297 22.1193 32.0514 22.2763C31.6871 22.366 31.275 22.4108 30.8154 22.4108C29.6942 22.4108 28.744 22.0044 27.9648 21.1916C27.1856 20.3731 26.796 19.2295 26.796 17.7608C26.796 16.3145 27.1884 15.1401 27.9732 14.2376C28.758 13.335 29.7839 12.8838 31.0508 12.8838ZM33.4641 16.8695C33.4024 16.2136 33.2595 15.6895 33.0353 15.2971C32.6204 14.5683 31.9281 14.2039 30.9583 14.2039C30.2632 14.2039 29.6802 14.4562 29.2093 14.9607C28.7384 15.4596 28.4889 16.0959 28.4609 16.8695H33.4641ZM38.0732 19.266C38.1181 19.7705 38.2442 20.1573 38.4516 20.4264C38.8328 20.9141 39.4943 21.1579 40.4361 21.1579C40.9966 21.1579 41.4899 21.0374 41.916 20.7964C42.342 20.5497 42.5551 20.1713 42.5551 19.6612C42.5551 19.2744 42.3841 18.9801 42.0421 18.7783C41.8235 18.6549 41.3918 18.512 40.7472 18.3494L39.5447 18.0467C38.7767 17.8561 38.2105 17.6431 37.8462 17.4077C37.1959 16.9984 36.8708 16.4322 36.8708 15.7091C36.8708 14.857 37.1763 14.1675 37.7873 13.6405C38.4039 13.1136 39.2308 12.8501 40.2679 12.8501C41.6245 12.8501 42.6027 13.2481 43.2025 14.0442C43.5781 14.5487 43.7603 15.0925 43.7491 15.6755H42.3196C42.2916 15.3335 42.1711 15.0224 41.958 14.7421C41.6105 14.3441 41.0078 14.1451 40.1502 14.1451C39.5784 14.1451 39.1439 14.2544 38.8468 14.473C38.5553 14.6916 38.4096 14.9803 38.4096 15.3391C38.4096 15.7315 38.603 16.0454 38.9898 16.2809C39.214 16.421 39.5447 16.5444 39.982 16.6509L40.9826 16.8947C42.0701 17.1582 42.7989 17.4133 43.1689 17.6599C43.7575 18.0467 44.0518 18.6549 44.0518 19.4846C44.0518 20.2862 43.7463 20.9786 43.1353 21.5616C42.5298 22.1446 41.6049 22.4361 40.3604 22.4361C39.0206 22.4361 38.0704 22.1334 37.5098 21.5279C36.9548 20.9169 36.6577 20.1629 36.6185 19.266H38.0732ZM46.071 13.1276H47.6098V22.0913H46.071V13.1276ZM46.071 9.7389H47.6098V11.4543H46.071V9.7389ZM53.3709 12.9258C54.0772 12.9258 54.6939 13.0996 55.2208 13.4471C55.5067 13.6434 55.7982 13.9292 56.0953 14.3048V13.1697H57.4912V21.3598C57.4912 22.5033 57.323 23.4059 56.9867 24.0674C56.3588 25.2894 55.1732 25.9005 53.4298 25.9005C52.46 25.9005 51.6443 25.6818 50.9828 25.2446C50.3213 24.8129 49.9514 24.1346 49.8729 23.2097H51.4117C51.4845 23.6133 51.6303 23.9244 51.8489 24.143C52.1909 24.4794 52.729 24.6476 53.4634 24.6476C54.6238 24.6476 55.3834 24.2383 55.7422 23.4199C55.9552 22.9378 56.0533 22.0773 56.0365 20.8384C55.7338 21.2981 55.3694 21.64 54.9433 21.8643C54.5173 22.0885 53.9539 22.2006 53.2532 22.2006C52.2778 22.2006 51.4229 21.8559 50.6885 21.1663C49.9598 20.4712 49.5954 19.3248 49.5954 17.7272C49.5954 16.2192 49.9626 15.042 50.6969 14.1955C51.4369 13.349 52.3282 12.9258 53.3709 12.9258ZM56.0953 17.5506C56.0953 16.435 55.8655 15.6082 55.4058 15.07C54.9461 14.5319 54.3603 14.2628 53.6484 14.2628C52.5833 14.2628 51.8545 14.7617 51.4621 15.7595C51.2547 16.2921 51.151 16.99 51.151 17.8533C51.151 18.868 51.3556 19.6416 51.7648 20.1741C52.1797 20.7011 52.7346 20.9645 53.4298 20.9645C54.5173 20.9645 55.2825 20.474 55.7253 19.493C55.972 18.938 56.0953 18.2906 56.0953 17.5506ZM60.0654 13.0856H61.5033V14.3637C61.9293 13.8368 62.3806 13.4584 62.8571 13.2285C63.3336 12.9987 63.8633 12.8838 64.4463 12.8838C65.7244 12.8838 66.5877 13.3294 67.0362 14.2207C67.2828 14.7085 67.4062 15.4064 67.4062 16.3145V22.0913H65.8674V16.4154C65.8674 15.8661 65.7861 15.4232 65.6235 15.0868C65.3544 14.5263 64.8667 14.246 64.1604 14.246C63.8016 14.246 63.5073 14.2824 63.2775 14.3553C62.8627 14.4786 62.4983 14.7253 62.1844 15.0953C61.9321 15.3924 61.7667 15.7007 61.6882 16.0202C61.6154 16.3341 61.5789 16.7854 61.5789 17.374V22.0913H60.0654V13.0856Z" fill="#F9AA1B"/>
</svg>
