<svg width="72" height="72" viewBox="0 0 72 72" fill="none" xmlns="http://www.w3.org/2000/svg">
<rect width="72" height="72" rx="11.547" fill="#D1222A"/>
<path d="M29.7208 34.625H47.825V31.875H29.7208V34.625ZM29.7208 38.75H40.0333V36H29.7208V38.75ZM29.7208 30.5H47.825V27.75H29.7208V30.5ZM25.9167 48.8333C25.1833 48.8333 24.5417 48.5583 23.9917 48.0083C23.4417 47.4583 23.1667 46.8167 23.1667 46.0833V20.4167C23.1667 19.6833 23.4417 19.0417 23.9917 18.4917C24.5417 17.9417 25.1833 17.6667 25.9167 17.6667H51.5833C52.3167 17.6667 52.9583 17.9417 53.5083 18.4917C54.0583 19.0417 54.3333 19.6833 54.3333 20.4167V46.0833C54.3333 46.8167 54.0583 47.4583 53.5083 48.0083C52.9583 48.5583 52.3167 48.8333 51.5833 48.8333H25.9167ZM25.9167 46.0833H51.5833V20.4167H25.9167V46.0833ZM25.9167 20.4167V46.0833V20.4167ZM20.4167 54.3333C19.6833 54.3333 19.0417 54.0583 18.4917 53.5083C17.9417 52.9583 17.6667 52.3167 17.6667 51.5833V23.1667H20.4167V51.5833H48.8333V54.3333H20.4167Z" fill="white"/>
</svg>
