<svg width="72" height="72" viewBox="0 0 72 72" fill="none" xmlns="http://www.w3.org/2000/svg">
<rect width="72" height="72" rx="11.547" fill="#FF9E00"/>
<path d="M34 53V50H51V34.8C51 32.8667 50.5833 31.0083 49.75 29.225C48.9167 27.4417 47.8 25.8667 46.4 24.5C45 23.1333 43.4 22.0417 41.6 21.225C39.8 20.4083 37.9333 20 36 20C34.0667 20 32.2 20.4083 30.4 21.225C28.6 22.0417 27 23.1333 25.6 24.5C24.2 25.8667 23.0833 27.4417 22.25 29.225C21.4167 31.0083 21 32.8667 21 34.8V47H20C18.9 47 17.9583 46.6083 17.175 45.825C16.3917 45.0417 16 44.1 16 43V39C16 38.2333 16.1833 37.5583 16.55 36.975C16.9167 36.3917 17.4 35.9167 18 35.55L18.15 32.9C18.45 30.4667 19.1417 28.2667 20.225 26.3C21.3083 24.3333 22.6583 22.6667 24.275 21.3C25.8917 19.9333 27.7083 18.875 29.725 18.125C31.7417 17.375 33.8333 17 36 17C38.2 17 40.3083 17.375 42.325 18.125C44.3417 18.875 46.15 19.9417 47.75 21.325C49.35 22.7083 50.6917 24.375 51.775 26.325C52.8583 28.275 53.55 30.45 53.85 32.85L54 35.45C54.6 35.75 55.0833 36.1917 55.45 36.775C55.8167 37.3583 56 38 56 38.7V43.3C56 44.0333 55.8167 44.6833 55.45 45.25C55.0833 45.8167 54.6 46.25 54 46.55V50C54 50.8333 53.7083 51.5417 53.125 52.125C52.5417 52.7083 51.8333 53 51 53H34ZM30 38.5C29.6 38.5 29.25 38.35 28.95 38.05C28.65 37.75 28.5 37.3833 28.5 36.95C28.5 36.55 28.65 36.2083 28.95 35.925C29.25 35.6417 29.6167 35.5 30.05 35.5C30.45 35.5 30.7917 35.6417 31.075 35.925C31.3583 36.2083 31.5 36.5667 31.5 37C31.5 37.4 31.3583 37.75 31.075 38.05C30.7917 38.35 30.4333 38.5 30 38.5ZM42 38.5C41.6 38.5 41.25 38.35 40.95 38.05C40.65 37.75 40.5 37.3833 40.5 36.95C40.5 36.55 40.65 36.2083 40.95 35.925C41.25 35.6417 41.6167 35.5 42.05 35.5C42.45 35.5 42.7917 35.6417 43.075 35.925C43.3583 36.2083 43.5 36.5667 43.5 37C43.5 37.4 43.3583 37.75 43.075 38.05C42.7917 38.35 42.4333 38.5 42 38.5ZM24.05 35.9C23.9167 33.9333 24.1917 32.15 24.875 30.55C25.5583 28.95 26.475 27.5917 27.625 26.475C28.775 25.3583 30.1 24.5 31.6 23.9C33.1 23.3 34.6 23 36.1 23C39.1333 23 41.6833 23.9583 43.75 25.875C45.8167 27.7917 47.0833 30.1833 47.55 33.05C44.4167 33.0167 41.6583 32.175 39.275 30.525C36.8917 28.875 35.05 26.7333 33.75 24.1C33.2167 26.8 32.0917 29.1917 30.375 31.275C28.6583 33.3583 26.55 34.9 24.05 35.9Z" fill="white"/>
</svg>
