<svg width="72" height="72" viewBox="0 0 72 72" fill="none" xmlns="http://www.w3.org/2000/svg">
<rect width="72" height="72" rx="11.547" fill="#2E6D48"/>
<path d="M36 57C33.4 54.7 30.5583 52.9333 27.475 51.7C24.3917 50.4667 21.2333 49.85 18 49.85V28.4C21.1333 28.4 24.2417 29.1167 27.325 30.55C30.4083 31.9833 33.3 33.9833 36 36.55C38.7 33.9833 41.5917 31.9833 44.675 30.55C47.7583 29.1167 50.8667 28.4 54 28.4V49.85C50.7667 49.85 47.6083 50.4667 44.525 51.7C41.4417 52.9333 38.6 54.7 36 57ZM36 53.15C38.3667 51.45 40.8083 50.0917 43.325 49.075C45.8417 48.0583 48.4 47.4167 51 47.15V31.65C48.7333 32.0167 46.3417 32.925 43.825 34.375C41.3083 35.825 38.7 37.8333 36 40.4C33.0667 37.7 30.4 35.65 28 34.25C25.6 32.85 23.2667 31.9833 21 31.65V47.15C23.6 47.4167 26.1583 48.0583 28.675 49.075C31.1917 50.0917 33.6333 51.45 36 53.15ZM36.15 29.4C33.9833 29.4 32.1583 28.6583 30.675 27.175C29.1917 25.6917 28.45 23.8667 28.45 21.7C28.45 19.5333 29.1917 17.7083 30.675 16.225C32.1583 14.7417 33.9833 14 36.15 14C38.3167 14 40.1417 14.7417 41.625 16.225C43.1083 17.7083 43.85 19.5333 43.85 21.7C43.85 23.8667 43.1083 25.6917 41.625 27.175C40.1417 28.6583 38.3167 29.4 36.15 29.4ZM36.15 26.4C37.45 26.4 38.5583 25.9417 39.475 25.025C40.3917 24.1083 40.85 23 40.85 21.7C40.85 20.4 40.3917 19.2917 39.475 18.375C38.5583 17.4583 37.45 17 36.15 17C34.85 17 33.7417 17.4583 32.825 18.375C31.9083 19.2917 31.45 20.4 31.45 21.7C31.45 23 31.9083 24.1083 32.825 25.025C33.7417 25.9417 34.85 26.4 36.15 26.4Z" fill="white"/>
</svg>
