<svg width="678" height="250" viewBox="0 0 678 250" fill="none" xmlns="http://www.w3.org/2000/svg">
<path opacity="0.5" d="M-0.000136071 13.984L4.97636 23.6214C113.242 0.705885 307.573 6.88067 327.479 45.4305C341.698 72.9662 259.093 96.4383 278.999 134.988C293.131 159.081 408.91 163.819 417.441 180.341C422.418 189.978 404.432 201.009 412.253 216.154C437.846 265.718 688.785 250.614 676.699 227.209C667.599 209.586 466.169 235.398 446.974 198.225C438.443 181.703 448.186 180.916 443.612 172.059C433.659 152.784 319.926 148.732 305.707 121.197C292.911 96.4145 363.238 68.8191 348.308 39.9064C330.535 5.48701 130.489 -15.0308 -0.000136071 13.984Z" fill="#F9AA1B"/>
</svg>
