<svg width="448" height="21" viewBox="0 0 448 21" fill="none" xmlns="http://www.w3.org/2000/svg">
<path d="M223.335 11.608C223.846 11.062 224.102 10.3383 224.102 9.437C224.102 8.53567 223.846 7.81633 223.335 7.279C222.823 6.74167 222.156 6.473 221.333 6.473C220.509 6.473 219.838 6.746 219.318 7.292C218.806 7.82933 218.551 8.54867 218.551 9.45C218.551 10.3427 218.806 11.062 219.318 11.608C219.838 12.1453 220.509 12.414 221.333 12.414C222.156 12.414 222.823 12.1453 223.335 11.608ZM221.333 14.091C220.024 14.091 218.923 13.6533 218.031 12.778C217.138 11.9027 216.692 10.7933 216.692 9.45C216.692 8.098 217.138 6.98433 218.031 6.109C218.932 5.23367 220.033 4.796 221.333 4.796C222.641 4.796 223.742 5.23367 224.635 6.109C225.527 6.98433 225.974 8.098 225.974 9.45C225.974 10.7933 225.527 11.9027 224.635 12.778C223.742 13.6533 222.641 14.091 221.333 14.091ZM228.341 6.798V8.072C228.827 7.15333 229.529 6.694 230.447 6.694V8.566H229.992C229.446 8.566 229.035 8.70467 228.757 8.982C228.48 9.25067 228.341 9.71867 228.341 10.386V14H226.508V6.798H228.341Z" fill="#C0C4CA"/>
<path opacity="0.5" d="M0 11L212 11" stroke="#C0C4CA"/>
<path opacity="0.5" d="M235 11H448" stroke="#C0C4CA"/>
</svg>
