<svg width="448" height="45" viewBox="0 0 448 45" fill="none" xmlns="http://www.w3.org/2000/svg">
<rect width="448" height="45" rx="3" fill="#2E6D48"/>
<path d="M201.603 17.4844H204.009V26.9297H209.712V29H201.603V17.4844ZM214.865 27.4297C215.516 27.4297 216.016 27.1979 216.365 26.7344C216.714 26.2708 216.888 25.612 216.888 24.7578C216.888 23.9036 216.714 23.2474 216.365 22.7891C216.016 22.3255 215.516 22.0938 214.865 22.0938C214.214 22.0938 213.711 22.3255 213.357 22.7891C213.008 23.2474 212.834 23.9036 212.834 24.7578C212.834 25.612 213.008 26.2708 213.357 26.7344C213.711 27.1979 214.214 27.4297 214.865 27.4297ZM219.224 24.7578C219.224 26.0078 218.865 27.0781 218.146 27.9688C217.427 28.8542 216.336 29.2969 214.873 29.2969C213.409 29.2969 212.318 28.8542 211.599 27.9688C210.881 27.0781 210.521 26.0078 210.521 24.7578C210.521 23.5286 210.881 22.4635 211.599 21.5625C212.318 20.6615 213.409 20.2109 214.873 20.2109C216.336 20.2109 217.427 20.6615 218.146 21.5625C218.865 22.4635 219.224 23.5286 219.224 24.7578ZM224.322 27.1719C224.843 27.1719 225.283 26.9766 225.642 26.5859C226.002 26.1901 226.182 25.5625 226.182 24.7031C226.182 23.8958 226.01 23.2812 225.666 22.8594C225.327 22.4375 224.872 22.2266 224.299 22.2266C223.517 22.2266 222.978 22.5938 222.682 23.3281C222.525 23.7188 222.447 24.2005 222.447 24.7734C222.447 25.2682 222.531 25.7083 222.697 26.0938C222.999 26.8125 223.541 27.1719 224.322 27.1719ZM223.767 20.2812C224.195 20.2812 224.567 20.3464 224.885 20.4766C225.426 20.7005 225.864 21.112 226.197 21.7109V20.4844H228.361V28.5625C228.361 29.6615 228.176 30.4896 227.807 31.0469C227.171 32.0052 225.952 32.4844 224.15 32.4844C223.062 32.4844 222.174 32.2708 221.486 31.8438C220.799 31.4167 220.419 30.7786 220.346 29.9297H222.767C222.83 30.1901 222.932 30.3776 223.072 30.4922C223.312 30.6953 223.715 30.7969 224.283 30.7969C225.085 30.7969 225.622 30.5286 225.892 29.9922C226.07 29.6484 226.158 29.0703 226.158 28.2578V27.7109C225.945 28.0755 225.715 28.349 225.471 28.5312C225.028 28.8698 224.452 29.0391 223.744 29.0391C222.65 29.0391 221.775 28.6562 221.119 27.8906C220.468 27.1198 220.142 26.0781 220.142 24.7656C220.142 23.5 220.458 22.4375 221.088 21.5781C221.718 20.7135 222.611 20.2812 223.767 20.2812ZM236.963 29H234.573V17.4844H236.963V29ZM243.592 20.2812C244.472 20.2812 245.191 20.513 245.748 20.9766C246.311 21.4349 246.592 22.1979 246.592 23.2656V29H244.311V23.8203C244.311 23.3724 244.251 23.0286 244.131 22.7891C243.912 22.3516 243.496 22.1328 242.881 22.1328C242.126 22.1328 241.608 22.4531 241.327 23.0938C241.181 23.4323 241.108 23.8646 241.108 24.3906V29H238.889V20.5H241.037V21.7422C241.324 21.3047 241.595 20.9896 241.85 20.7969C242.308 20.4531 242.889 20.2812 243.592 20.2812Z" fill="white"/>
</svg>
