<svg width="44" height="44" viewBox="0 0 44 44" fill="none" xmlns="http://www.w3.org/2000/svg">
<rect width="44" height="44" rx="3" fill="#F5F6F7"/>
<g clip-path="url(#clip0_2322_7234)">
<path d="M31 16.4189C30.3306 16.7125 29.6174 16.9071 28.8737 17.0016C29.6388 16.5449 30.2226 15.8271 30.4971 14.962C29.7839 15.3872 28.9964 15.6876 28.1571 15.8553C27.4799 15.1341 26.5146 14.6875 25.4616 14.6875C23.4186 14.6875 21.7739 16.3458 21.7739 18.3786C21.7739 18.6711 21.7986 18.9524 21.8594 19.2201C18.7915 19.0705 16.0769 17.6001 14.2533 15.3603C13.9349 15.9126 13.7481 16.5449 13.7481 17.2255C13.7481 18.5035 14.4062 19.6364 15.3872 20.2922C14.7944 20.281 14.2127 20.1089 13.72 19.8377C13.72 19.849 13.72 19.8636 13.72 19.8782C13.72 21.6715 14.9991 23.161 16.6765 23.5041C16.3761 23.5863 16.0487 23.6256 15.709 23.6256C15.4727 23.6256 15.2342 23.6121 15.0104 23.5626C15.4885 25.024 16.8453 26.0984 18.4585 26.1332C17.203 27.1154 15.6089 27.7071 13.8831 27.7071C13.5805 27.7071 13.2902 27.6936 13 27.6565C14.6346 28.7106 16.5719 29.3125 18.661 29.3125C25.4515 29.3125 29.164 23.6875 29.164 18.8117C29.164 18.6486 29.1584 18.4911 29.1505 18.3348C29.8829 17.815 30.4982 17.1659 31 16.4189Z" fill="#03A9F4"/>
</g>
<defs>
<clipPath id="clip0_2322_7234">
<rect width="18" height="18" fill="white" transform="translate(13 13)"/>
</clipPath>
</defs>
</svg>
