<svg width="44" height="44" viewBox="0 0 44 44" fill="none" xmlns="http://www.w3.org/2000/svg">
<rect width="44" height="44" rx="3" fill="#F5F6F7"/>
<path d="M30.3201 20.4349L22.9781 20.4346C22.6539 20.4346 22.3911 20.6973 22.3911 21.0215V23.367C22.3911 23.6911 22.6539 23.954 22.9781 23.954H27.1127C26.6599 25.1289 25.8149 26.1129 24.7368 26.7381L26.4998 29.79C29.3278 28.1544 30.9998 25.2847 30.9998 22.0721C30.9998 21.6147 30.9661 21.2877 30.8986 20.9196C30.8474 20.6398 30.6045 20.4349 30.3201 20.4349Z" fill="#167EE6"/>
<path d="M22.0002 27.4778C19.9768 27.4778 18.2104 26.3723 17.2617 24.7363L14.21 26.4953C15.763 29.187 18.6723 30.9995 22.0002 30.9995C23.6328 30.9995 25.1732 30.56 26.5002 29.7939V29.7898L24.7372 26.7378C23.9308 27.2056 22.9976 27.4778 22.0002 27.4778Z" fill="#12B347"/>
<path d="M26.5 29.7944V29.7902L24.737 26.7383C23.9306 27.206 22.9975 27.4782 22 27.4782V31C23.6326 31 25.1731 30.5604 26.5 29.7944Z" fill="#0F993E"/>
<path d="M16.5217 21.9997C16.5217 21.0024 16.7939 20.0693 17.2615 19.2629L14.2098 17.5039C13.4395 18.8267 13 20.363 13 21.9997C13 23.6365 13.4395 25.1727 14.2098 26.4955L17.2615 24.7365C16.7939 23.9302 16.5217 22.9971 16.5217 21.9997Z" fill="#FFD500"/>
<path d="M22.0002 16.5217C23.3196 16.5217 24.5316 16.9906 25.4783 17.7705C25.7118 17.9628 26.0513 17.9489 26.2652 17.735L27.927 16.0732C28.1697 15.8305 28.1524 15.4332 27.8932 15.2082C26.3071 13.8323 24.2434 13 22.0002 13C18.6723 13 15.763 14.8126 14.21 17.5042L17.2617 19.2632C18.2104 17.6273 19.9768 16.5217 22.0002 16.5217Z" fill="#FF4B26"/>
<path d="M25.4781 17.7705C25.7116 17.9628 26.0511 17.9489 26.265 17.735L27.9268 16.0732C28.1695 15.8305 28.1522 15.4332 27.893 15.2082C26.3069 13.8322 24.2432 13 22 13V16.5217C23.3194 16.5217 24.5314 16.9906 25.4781 17.7705Z" fill="#D93F21"/>
</svg>
