<svg width="330" height="44" viewBox="0 0 330 44" fill="none" xmlns="http://www.w3.org/2000/svg">
<rect width="330" height="44" rx="3" fill="#4065B4"/>
<path d="M117.914 17.3633H119.719V24.4473H123.996V26H117.914V17.3633ZM127.86 24.8223C128.349 24.8223 128.724 24.6484 128.985 24.3008C129.247 23.9531 129.378 23.459 129.378 22.8184C129.378 22.1777 129.247 21.6855 128.985 21.3418C128.724 20.9941 128.349 20.8203 127.86 20.8203C127.372 20.8203 126.995 20.9941 126.73 21.3418C126.468 21.6855 126.337 22.1777 126.337 22.8184C126.337 23.459 126.468 23.9531 126.73 24.3008C126.995 24.6484 127.372 24.8223 127.86 24.8223ZM131.13 22.8184C131.13 23.7559 130.86 24.5586 130.321 25.2266C129.782 25.8906 128.964 26.2227 127.866 26.2227C126.769 26.2227 125.95 25.8906 125.411 25.2266C124.872 24.5586 124.603 23.7559 124.603 22.8184C124.603 21.8965 124.872 21.0977 125.411 20.4219C125.95 19.7461 126.769 19.4082 127.866 19.4082C128.964 19.4082 129.782 19.7461 130.321 20.4219C130.86 21.0977 131.13 21.8965 131.13 22.8184ZM134.953 24.6289C135.344 24.6289 135.674 24.4824 135.944 24.1895C136.213 23.8926 136.348 23.4219 136.348 22.7773C136.348 22.1719 136.219 21.7109 135.961 21.3945C135.707 21.0781 135.365 20.9199 134.936 20.9199C134.35 20.9199 133.946 21.1953 133.723 21.7461C133.606 22.0391 133.547 22.4004 133.547 22.8301C133.547 23.2012 133.61 23.5312 133.735 23.8203C133.961 24.3594 134.367 24.6289 134.953 24.6289ZM134.537 19.4609C134.858 19.4609 135.137 19.5098 135.375 19.6074C135.781 19.7754 136.11 20.084 136.36 20.5332V19.6133H137.983V25.6719C137.983 26.4961 137.844 27.1172 137.567 27.5352C137.09 28.2539 136.176 28.6133 134.824 28.6133C134.008 28.6133 133.342 28.4531 132.826 28.1328C132.311 27.8125 132.026 27.334 131.971 26.6973H133.787C133.834 26.8926 133.91 27.0332 134.016 27.1191C134.196 27.2715 134.498 27.3477 134.924 27.3477C135.526 27.3477 135.928 27.1465 136.131 26.7441C136.264 26.4863 136.33 26.0527 136.33 25.4434V25.0332C136.17 25.3066 135.998 25.5117 135.815 25.6484C135.483 25.9023 135.051 26.0293 134.52 26.0293C133.699 26.0293 133.043 25.7422 132.551 25.168C132.063 24.5898 131.819 23.8086 131.819 22.8242C131.819 21.875 132.055 21.0781 132.528 20.4336C133 19.7852 133.67 19.4609 134.537 19.4609ZM141.144 18.8516H139.451V17.3105H141.144V18.8516ZM139.451 19.6133H141.144V26H139.451V19.6133ZM146.186 19.4609C146.846 19.4609 147.385 19.6348 147.803 19.9824C148.225 20.3262 148.436 20.8984 148.436 21.6992V26H146.725V22.1152C146.725 21.7793 146.68 21.5215 146.59 21.3418C146.426 21.0137 146.114 20.8496 145.653 20.8496C145.086 20.8496 144.698 21.0898 144.487 21.5703C144.377 21.8242 144.323 22.1484 144.323 22.543V26H142.659V19.625H144.27V20.5566C144.485 20.2285 144.688 19.9922 144.879 19.8477C145.223 19.5898 145.659 19.4609 146.186 19.4609ZM156.094 19.6133H157.788L158.76 24.2129L159.757 19.6133H161.497L159.645 26H157.928L156.926 21.3477L155.913 26H154.178L152.385 19.6133H154.178L155.175 24.1953L156.094 19.6133ZM164.019 18.8516H162.326V17.3105H164.019V18.8516ZM162.326 19.6133H164.019V26H162.326V19.6133ZM164.866 20.8613V19.6719H165.757V17.8906H167.409V19.6719H168.446V20.8613H167.409V24.2363C167.409 24.498 167.442 24.6621 167.509 24.7285C167.575 24.791 167.778 24.8223 168.118 24.8223C168.169 24.8223 168.222 24.8223 168.276 24.8223C168.335 24.8184 168.392 24.8145 168.446 24.8105V26.0586L167.655 26.0879C166.866 26.1152 166.327 25.9785 166.038 25.6777C165.851 25.4863 165.757 25.1914 165.757 24.793V20.8613H164.866ZM172.92 19.4492C173.315 19.4492 173.672 19.5176 173.992 19.6543C174.316 19.791 174.582 20 174.789 20.2812C174.965 20.5195 175.072 20.7656 175.111 21.0195C175.15 21.2695 175.17 21.6797 175.17 22.25V26H173.465V22.1152C173.465 21.7715 173.406 21.4941 173.289 21.2832C173.137 20.9863 172.848 20.8379 172.422 20.8379C171.981 20.8379 171.645 20.9863 171.414 21.2832C171.188 21.5762 171.074 21.9961 171.074 22.543V26H169.41V17.3926H171.074V20.4453C171.316 20.0742 171.596 19.8164 171.912 19.6719C172.232 19.5234 172.568 19.4492 172.92 19.4492ZM179.969 17.375H186.092V18.8926H181.762V20.8789H185.553V22.3789H181.762V26H179.969V17.375ZM190.572 22.8945C190.466 22.9609 190.359 23.0156 190.249 23.0586C190.144 23.0977 189.997 23.1348 189.81 23.1699L189.435 23.2402C189.083 23.3027 188.831 23.3789 188.679 23.4688C188.421 23.6211 188.292 23.8574 188.292 24.1777C188.292 24.4629 188.371 24.6699 188.527 24.7988C188.687 24.9238 188.88 24.9863 189.107 24.9863C189.466 24.9863 189.796 24.8809 190.097 24.6699C190.402 24.459 190.56 24.0742 190.572 23.5156V22.8945ZM189.558 22.1152C189.867 22.0762 190.087 22.0273 190.22 21.9688C190.458 21.8672 190.578 21.709 190.578 21.4941C190.578 21.2324 190.486 21.0527 190.302 20.9551C190.122 20.8535 189.857 20.8027 189.505 20.8027C189.111 20.8027 188.831 20.9004 188.667 21.0957C188.55 21.2402 188.472 21.4355 188.433 21.6816H186.822C186.857 21.123 187.013 20.6641 187.29 20.3047C187.732 19.7422 188.49 19.4609 189.564 19.4609C190.263 19.4609 190.884 19.5996 191.427 19.877C191.97 20.1543 192.242 20.6777 192.242 21.4473V24.377C192.242 24.5801 192.246 24.8262 192.253 25.1152C192.265 25.334 192.298 25.4824 192.353 25.5605C192.408 25.6387 192.49 25.7031 192.599 25.7539V26H190.783C190.732 25.8711 190.697 25.75 190.677 25.6367C190.658 25.5234 190.642 25.3945 190.63 25.25C190.4 25.5 190.134 25.7129 189.833 25.8887C189.474 26.0957 189.068 26.1992 188.615 26.1992C188.037 26.1992 187.558 26.0352 187.179 25.707C186.804 25.375 186.617 24.9062 186.617 24.3008C186.617 23.5156 186.919 22.9473 187.525 22.5957C187.857 22.4043 188.345 22.2676 188.99 22.1855L189.558 22.1152ZM197.424 21.9043C197.393 21.666 197.313 21.4512 197.184 21.2598C196.997 21.002 196.706 20.873 196.311 20.873C195.749 20.873 195.364 21.1523 195.157 21.7109C195.047 22.0078 194.993 22.4023 194.993 22.8945C194.993 23.3633 195.047 23.7402 195.157 24.0254C195.356 24.5566 195.731 24.8223 196.282 24.8223C196.672 24.8223 196.95 24.7168 197.114 24.5059C197.278 24.2949 197.378 24.0215 197.413 23.6855H199.118C199.079 24.1934 198.895 24.6738 198.567 25.127C198.044 25.8574 197.268 26.2227 196.241 26.2227C195.213 26.2227 194.458 25.918 193.973 25.3086C193.489 24.6992 193.247 23.9082 193.247 22.9355C193.247 21.8379 193.514 20.9844 194.049 20.375C194.585 19.7656 195.323 19.4609 196.264 19.4609C197.065 19.4609 197.719 19.6406 198.227 20C198.739 20.3594 199.042 20.9941 199.135 21.9043H197.424ZM202.689 20.8203C202.302 20.8203 202.002 20.9414 201.787 21.1836C201.576 21.4258 201.443 21.7539 201.388 22.168H203.984C203.957 21.7266 203.822 21.3926 203.58 21.166C203.341 20.9355 203.045 20.8203 202.689 20.8203ZM202.689 19.4434C203.22 19.4434 203.699 19.543 204.125 19.7422C204.55 19.9414 204.902 20.2559 205.179 20.6855C205.429 21.0645 205.591 21.5039 205.666 22.0039C205.709 22.2969 205.726 22.7188 205.718 23.2695H201.347C201.371 23.9102 201.572 24.3594 201.951 24.6172C202.181 24.7773 202.459 24.8574 202.783 24.8574C203.127 24.8574 203.406 24.7598 203.621 24.5645C203.738 24.459 203.841 24.3125 203.931 24.125H205.636C205.593 24.5039 205.396 24.8887 205.045 25.2793C204.498 25.9004 203.732 26.2109 202.748 26.2109C201.935 26.2109 201.218 25.9492 200.597 25.4258C199.976 24.9023 199.666 24.0508 199.666 22.8711C199.666 21.7656 199.945 20.918 200.504 20.3281C201.066 19.7383 201.795 19.4434 202.689 19.4434ZM210.18 19.4727C211.02 19.4727 211.677 19.7754 212.149 20.3809C212.626 20.9863 212.864 21.7676 212.864 22.7246C212.864 23.7168 212.63 24.5391 212.161 25.1914C211.692 25.8438 211.038 26.1699 210.198 26.1699C209.671 26.1699 209.247 26.0645 208.927 25.8535C208.735 25.7285 208.528 25.5098 208.305 25.1973V26H206.671V17.375H208.335V20.4453C208.546 20.1484 208.778 19.9219 209.032 19.7656C209.333 19.5703 209.716 19.4727 210.18 19.4727ZM209.753 24.793C210.182 24.793 210.516 24.6191 210.755 24.2715C210.993 23.9238 211.112 23.4668 211.112 22.9004C211.112 22.4473 211.054 22.0723 210.936 21.7754C210.714 21.2129 210.304 20.9316 209.706 20.9316C209.1 20.9316 208.684 21.207 208.458 21.7578C208.341 22.0508 208.282 22.4297 208.282 22.8945C208.282 23.4414 208.403 23.8945 208.645 24.2539C208.887 24.6133 209.257 24.793 209.753 24.793ZM216.81 24.8223C217.299 24.8223 217.674 24.6484 217.935 24.3008C218.197 23.9531 218.328 23.459 218.328 22.8184C218.328 22.1777 218.197 21.6855 217.935 21.3418C217.674 20.9941 217.299 20.8203 216.81 20.8203C216.322 20.8203 215.945 20.9941 215.68 21.3418C215.418 21.6855 215.287 22.1777 215.287 22.8184C215.287 23.459 215.418 23.9531 215.68 24.3008C215.945 24.6484 216.322 24.8223 216.81 24.8223ZM220.08 22.8184C220.08 23.7559 219.81 24.5586 219.271 25.2266C218.732 25.8906 217.914 26.2227 216.816 26.2227C215.719 26.2227 214.9 25.8906 214.361 25.2266C213.822 24.5586 213.553 23.7559 213.553 22.8184C213.553 21.8965 213.822 21.0977 214.361 20.4219C214.9 19.7461 215.719 19.4082 216.816 19.4082C217.914 19.4082 218.732 19.7461 219.271 20.4219C219.81 21.0977 220.08 21.8965 220.08 22.8184ZM224.026 24.8223C224.515 24.8223 224.89 24.6484 225.151 24.3008C225.413 23.9531 225.544 23.459 225.544 22.8184C225.544 22.1777 225.413 21.6855 225.151 21.3418C224.89 20.9941 224.515 20.8203 224.026 20.8203C223.538 20.8203 223.161 20.9941 222.896 21.3418C222.634 21.6855 222.503 22.1777 222.503 22.8184C222.503 23.459 222.634 23.9531 222.896 24.3008C223.161 24.6484 223.538 24.8223 224.026 24.8223ZM227.296 22.8184C227.296 23.7559 227.026 24.5586 226.487 25.2266C225.948 25.8906 225.13 26.2227 224.032 26.2227C222.935 26.2227 222.116 25.8906 221.577 25.2266C221.038 24.5586 220.769 23.7559 220.769 22.8184C220.769 21.8965 221.038 21.0977 221.577 20.4219C222.116 19.7461 222.935 19.4082 224.032 19.4082C225.13 19.4082 225.948 19.7461 226.487 20.4219C227.026 21.0977 227.296 21.8965 227.296 22.8184ZM228.36 17.3926H230V22.0449L232.08 19.6426H234.149L231.916 22.0859L234.236 26H232.221L230.692 23.2695L230 23.9902V26H228.36V17.3926Z" fill="white"/>
<rect x="96" y="15" width="13" height="13" rx="2" fill="white"/>
<path d="M105 20.4615H103.333V19.0769C103.333 18.6948 103.632 18.7308 104 18.7308H104.667V17H103.333C102.229 17 101.333 17.9298 101.333 19.0769V20.4615H100V22.1923H101.333V26H103.333V22.1923H104.333L105 20.4615Z" fill="#4065B4"/>
</svg>
