<svg width="500" height="373" viewBox="0 0 500 373" fill="none" xmlns="http://www.w3.org/2000/svg">
<path d="M500 327.45H0V327.7H500V327.45Z" fill="#EBEBEB"/>
<path d="M449.9 343.54H416.78V343.79H449.9V343.54Z" fill="#EBEBEB"/>
<path d="M331.22 346.26H322.53V346.51H331.22V346.26Z" fill="#EBEBEB"/>
<path d="M415.78 334.26H396.59V334.51H415.78V334.26Z" fill="#EBEBEB"/>
<path d="M95.65 335.94H52.46V336.19H95.65V335.94Z" fill="#EBEBEB"/>
<path d="M110.89 335.94H104.56V336.19H110.89V335.94Z" fill="#EBEBEB"/>
<path d="M225.15 340.16H131.47V340.41H225.15V340.16Z" fill="#EBEBEB"/>
<path d="M237.01 282.85H43.92C40.77 282.85 38.21 280.29 38.21 277.14V5.71C38.21 2.56 40.77 0 43.92 0H237.02C240.17 0 242.73 2.56 242.73 5.71V277.14C242.72 280.29 240.16 282.85 237.01 282.85ZM43.92 0.25C40.91 0.25 38.46 2.7 38.46 5.71V277.14C38.46 280.15 40.91 282.6 43.92 282.6H237.02C240.03 282.6 242.48 280.15 242.48 277.14V5.71C242.48 2.7 240.03 0.25 237.02 0.25H43.92Z" fill="#EBEBEB"/>
<path d="M453.31 282.85H260.21C257.06 282.85 254.5 280.29 254.5 277.14V5.71C254.5 2.56 257.06 0 260.21 0H453.31C456.46 0 459.02 2.56 459.02 5.71V277.14C459.02 280.29 456.46 282.85 453.31 282.85ZM260.21 0.25C257.2 0.25 254.75 2.7 254.75 5.71V277.14C254.75 280.15 257.2 282.6 260.21 282.6H453.31C456.32 282.6 458.77 280.15 458.77 277.14V5.71C458.77 2.7 456.32 0.25 453.31 0.25H260.21Z" fill="#EBEBEB"/>
<path d="M60.8553 141.934H134.175L134.175 20.7036L60.8553 20.7036L60.8553 141.934Z" fill="#F5F5F5"/>
<path d="M60.8499 20.7002H59.3999V141.93H60.8499V20.7002Z" fill="#E0E0E0"/>
<path d="M68.2956 136.594H126.746L126.746 26.0337L68.2956 26.0337L68.2956 136.594Z" fill="#FAFAFA"/>
<path d="M151.479 184.495H224.799L224.799 63.2651L151.479 63.2651V184.495Z" fill="#F5F5F5"/>
<path d="M151.48 63.2598H150.03V184.49H151.48V63.2598Z" fill="#E0E0E0"/>
<path d="M158.919 179.155H217.369V68.5953L158.919 68.5953V179.155Z" fill="#FAFAFA"/>
<path d="M104.2 296.11C106.02 263.14 101.21 210.08 95.9996 191.73C95.3096 189.3 94.5196 186.47 93.3396 186.1C89.9296 185.02 88.3996 190.36 88.8296 192.19C90.8696 201.06 92.6996 223.04 94.5296 261.29C95.4396 280.33 94.5096 293.37 96.9696 296.12L104.2 296.11Z" fill="#E6E6E6"/>
<path d="M98.7796 222.569C103.56 207.119 164.75 191.249 147.13 207.869C142.74 212.009 122.3 222.919 113.91 234.389C107.39 243.299 100.8 258.279 99.0596 266.599C98.2996 249.109 95.5996 232.869 98.7796 222.569Z" fill="#E6E6E6"/>
<path d="M105.75 242.16C116.41 218.65 150.51 214.43 141.34 226.84C137.74 231.71 124.54 237.26 116.14 248.74C109.62 257.65 103.03 272.63 101.29 280.95C100.53 263.46 101.3 251.98 105.75 242.16Z" fill="#E6E6E6"/>
<path d="M92.3496 240.16C79.7296 209.91 34.1396 207.51 46.2696 221.56C50.8796 226.9 66.9896 236.7 79.1596 249.32C88.6196 259.12 99.2796 275.36 102.91 284.27C100.56 265.77 97.4396 252.36 92.3496 240.16Z" fill="#E6E6E6"/>
<path d="M97.6499 206.32C108.95 185.6 143.15 183.39 133.39 194.72C129.56 199.17 117.09 204.83 108.95 215.96C102.62 224.6 95.0199 235.88 93.3299 243.94C92.5899 226.98 92.6399 215.5 97.6499 206.32Z" fill="#E6E6E6"/>
<path d="M87.8097 206.73C78.8897 193.86 38.9397 179.69 49.3497 191.36C60.2597 203.59 68.0097 201.48 78.3197 212.17C86.3297 220.47 95.3597 234.22 98.4297 241.77C96.4497 226.09 94.1897 215.93 87.8097 206.73Z" fill="#E6E6E6"/>
<path d="M98.3996 191.9C104.05 181.72 127.43 174.23 121.3 182.04C117.05 187.46 111.95 191.18 106.55 198.56C102.35 204.29 96.6495 211.51 95.5295 216.85C95.0495 205.6 95.0296 197.96 98.3996 191.9Z" fill="#E6E6E6"/>
<path d="M89.1896 194.98C83.4896 188.67 53.0096 173.66 59.9696 183.3C62.6996 187.08 74.3296 196.31 82.1696 204.43C88.2596 210.74 94.9396 215.87 97.2696 221.6C95.7496 209.69 94.8996 201.29 89.1896 194.98Z" fill="#E6E6E6"/>
<path d="M96.9998 217.16C88.6698 207.94 27.9398 196.06 43.5498 206.23C48.8998 209.71 72.3698 215.7 83.8198 227.56C92.7098 236.78 95.9098 252.05 99.3198 260.43C108.3 245.72 105.34 226.39 96.9998 217.16Z" fill="#E6E6E6"/>
<path d="M86.5997 294.779L87.3797 322.369C87.4697 327.599 88.6797 327.449 90.1597 327.449H109.79C111.27 327.449 112.49 327.609 112.57 322.369L113.35 294.779C113.44 289.099 112.17 284.319 110.57 284.319H89.3797C87.7797 284.309 86.5097 289.099 86.5997 294.779Z" fill="#F5F5F5"/>
<path d="M85.4297 289.33H114.52C114.95 289.33 115.31 289.06 115.35 288.7L116.04 283.42C116.09 283 115.71 282.64 115.21 282.64H84.7297C84.2297 282.64 83.8397 283.01 83.8997 283.42L84.5897 288.7C84.6397 289.06 84.9997 289.33 85.4297 289.33Z" fill="#F5F5F5"/>
<path d="M290.87 172.601H268.85V320.761H290.87V172.601Z" fill="#F0F0F0"/>
<path d="M440 320.771H273.08V327.451H440V320.771Z" fill="#F0F0F0"/>
<path d="M290.869 320.771H444.229V172.611L290.869 172.611V320.771Z" fill="#F5F5F5"/>
<path d="M288.59 166.78H266.08V172.61H288.59V166.78Z" fill="#F0F0F0"/>
<path d="M288.585 172.601L446.995 172.601V166.771L288.585 166.771V172.601Z" fill="#FAFAFA"/>
<path d="M436.199 242.56H298.899V184.95H436.199V242.56ZM300.159 241.3H434.949V186.21H300.159V241.3Z" fill="#E0E0E0"/>
<path d="M436.199 308.42H298.899V251.62H436.199V308.42ZM300.159 307.16H434.949V252.87H300.159V307.16Z" fill="#E0E0E0"/>
<path d="M394.279 196.28H340.809C339.509 196.28 338.439 195.21 338.439 193.91C338.439 192.61 339.509 191.54 340.809 191.54H394.279C395.579 191.54 396.649 192.61 396.649 193.91C396.649 195.21 395.589 196.28 394.279 196.28Z" fill="#E0E0E0"/>
<path d="M394.279 262.95H340.809C339.509 262.95 338.439 261.88 338.439 260.58C338.439 259.28 339.509 258.21 340.809 258.21H394.279C395.579 258.21 396.649 259.28 396.649 260.58C396.649 261.88 395.589 262.95 394.279 262.95Z" fill="#E0E0E0"/>
<path d="M360.41 166.72H424.01L429.17 110.01H365.57L360.41 166.72Z" fill="#E6E6E6"/>
<path d="M358.25 166.72H421.85L427.01 110.01H363.41L358.25 166.72Z" fill="#F0F0F0"/>
<path d="M416.14 160.44L420.16 116.29H369.12L365.1 160.44H416.14Z" fill="white"/>
<path d="M345.68 125.31L341.91 166.72H372.39L376.16 125.31H345.68Z" fill="#E6E6E6"/>
<path d="M344.1 125.31L340.33 166.72H370.82L374.58 125.31H344.1Z" fill="#F0F0F0"/>
<path d="M348.27 129.89L345.33 162.13H366.65L369.58 129.89H348.27Z" fill="white"/>
<path d="M250 372.61C357.082 372.61 443.89 367.542 443.89 361.29C443.89 355.038 357.082 349.97 250 349.97C142.917 349.97 56.1099 355.038 56.1099 361.29C56.1099 367.542 142.917 372.61 250 372.61Z" fill="#F5F5F5"/>
<path d="M296.32 58.7703C292.45 48.9803 281.21 44.3003 271.48 48.5903C262.97 52.3503 258.34 63.2803 261.55 72.0103C263.24 76.6103 266.55 80.1303 270.58 82.1803C272.3 83.0503 273.81 84.2903 274.84 85.9303L277.48 90.1503C279.26 93.0103 282.83 94.1803 285.96 92.9503L292.62 90.3203C295.75 89.0803 297.55 85.7903 296.91 82.4803L295.91 77.4103C295.56 75.6203 295.8 73.7903 296.44 72.0803C298 67.9303 298.08 63.2103 296.32 58.7703Z" fill="#2E6D48"/>
<path d="M286.82 101.371C286.4 101.371 285.98 101.281 285.58 101.111C284.82 100.781 284.23 100.171 283.92 99.4007C283.29 97.8107 284.08 96.0007 285.67 95.3707L294.5 91.8807C295.27 91.5807 296.12 91.5907 296.88 91.9207C297.64 92.2507 298.23 92.8607 298.54 93.6307C298.84 94.4007 298.83 95.2407 298.5 96.0107C298.17 96.7707 297.56 97.3607 296.79 97.6707L287.96 101.161C287.59 101.291 287.2 101.371 286.82 101.371ZM295.64 92.6607C295.38 92.6607 295.12 92.7107 294.87 92.8107L286.04 96.3007C284.96 96.7307 284.42 97.9607 284.85 99.0407C285.06 99.5607 285.46 99.9707 285.97 100.201C286.49 100.431 287.06 100.441 287.58 100.231L296.41 96.7407C296.93 96.5307 297.34 96.1307 297.57 95.6207C297.8 95.1007 297.81 94.5307 297.6 94.0107C297.39 93.4907 296.99 93.0807 296.48 92.8507C296.21 92.7207 295.92 92.6607 295.64 92.6607Z" fill="#263238"/>
<path d="M291.32 106.741C291.06 106.741 290.8 106.691 290.55 106.581C290.07 106.371 289.71 105.991 289.52 105.521L289.37 105.131C288.98 104.141 289.47 103.011 290.46 102.621L295.98 100.441C296.97 100.051 298.1 100.541 298.49 101.531L298.64 101.921C298.83 102.401 298.82 102.921 298.61 103.401C298.4 103.881 298.03 104.241 297.55 104.431L292.03 106.611C291.79 106.701 291.56 106.741 291.32 106.741ZM296.67 101.301C296.56 101.301 296.44 101.321 296.33 101.371L290.81 103.551C290.33 103.741 290.09 104.291 290.28 104.771L290.43 105.161C290.52 105.391 290.7 105.581 290.93 105.671C291.16 105.771 291.42 105.771 291.65 105.681L297.17 103.501C297.4 103.411 297.58 103.231 297.68 103.001C297.78 102.771 297.78 102.521 297.69 102.281L297.54 101.891C297.4 101.531 297.05 101.301 296.67 101.301Z" fill="#263238"/>
<path d="M274.91 76.5001C273.41 76.5001 272 75.6001 271.42 74.1301C270.66 72.2101 271.61 70.0202 273.53 69.2602C275.46 68.5002 277.64 69.4502 278.4 71.3702L279.78 74.8601L276.29 76.2401C275.83 76.4201 275.37 76.5001 274.91 76.5001ZM274.9 70.0001C274.56 70.0001 274.22 70.0602 273.89 70.1902C272.48 70.7502 271.78 72.3502 272.34 73.7601C272.9 75.1701 274.5 75.8701 275.91 75.3101L278.47 74.3002L277.46 71.7401C277.04 70.6601 276 70.0001 274.9 70.0001Z" fill="white"/>
<path d="M285.97 93.2901L278.48 74.3001L285.37 71.5801L292.86 90.5701L291.93 90.9301L284.8 72.8801L279.77 74.8601L286.9 92.9201L285.97 93.2901Z" fill="white"/>
<path d="M284.8 72.8799L283.42 69.3899C282.66 67.4699 283.61 65.2799 285.53 64.5199C287.45 63.7599 289.64 64.7099 290.4 66.6299C291.16 68.5499 290.21 70.7399 288.29 71.4999L284.8 72.8799ZM286.91 65.2599C286.57 65.2599 286.23 65.3199 285.9 65.4499C284.49 66.0099 283.79 67.6099 284.35 69.0199L285.36 71.5799L287.92 70.5699C289.33 70.0099 290.03 68.4099 289.47 66.9999C289.05 65.9199 288.01 65.2599 286.91 65.2599Z" fill="white"/>
<path d="M300.33 120.541C296.55 120.541 292.78 120.231 289.12 119.631L289.28 118.641C292.88 119.241 296.6 119.541 300.33 119.541V120.541Z" fill="#2E6D48"/>
<path d="M321.02 130.891L321.55 129.811C323.74 125.351 323.51 120.111 322.6 116.751C318.81 118.121 314.78 119.141 310.62 119.771L310.47 118.781C314.75 118.131 318.88 117.071 322.75 115.631L323.25 115.451L323.41 115.961C324.41 119.211 324.82 124.471 322.94 129.171C335.23 124.281 348.06 106.921 348.06 86.2407C348.06 67.8707 326.65 52.9307 300.34 52.9307C274.03 52.9307 252.62 67.8707 252.62 86.2407C252.62 99.5907 263.99 111.611 281.58 116.871L281.29 117.831C263.26 112.441 251.61 100.041 251.61 86.2407C251.61 67.3207 273.47 51.9307 300.33 51.9307C327.2 51.9307 349.05 67.3207 349.05 86.2407C349.05 107.981 335.09 126.151 322.15 130.521L321.02 130.891Z" fill="#2E6D48"/>
<path d="M353.85 88.9L320.53 94.8499C318.15 95.2799 315.86 93.68 315.43 91.3L311.88 71.4499C311.45 69.0699 313.05 66.78 315.43 66.35L348.75 60.4C351.13 59.97 353.42 61.57 353.85 63.95L357.4 83.8C357.83 86.18 356.23 88.48 353.85 88.9Z" fill="#2E6D48"/>
<path d="M340.76 76.5395L328.96 72.2695L331.17 84.6195L340.76 76.5395Z" fill="white"/>
<path d="M215.27 252.63H130.3C128.55 252.63 127.11 251.2 127.11 249.44V244.9C127.11 243.15 128.54 241.71 130.3 241.71H215.27C217.02 241.71 218.46 243.14 218.46 244.9V249.44C218.45 251.19 217.02 252.63 215.27 252.63Z" fill="#2E6D48"/>
<path d="M214.3 355.29H216.83L213.92 252.63H210.41L214.3 355.29Z" fill="#2E6D48"/>
<path opacity="0.3" d="M214.3 355.29H216.83L213.92 252.63H210.41L214.3 355.29Z" fill="white"/>
<path d="M190.97 355.29H188.44L191.36 252.63H194.86L190.97 355.29Z" fill="#2E6D48"/>
<path opacity="0.3" d="M190.97 355.29H188.44L191.36 252.63H194.86L190.97 355.29Z" fill="white"/>
<path d="M154.59 355.29H157.12L154.21 252.63H150.7L154.59 355.29Z" fill="#2E6D48"/>
<path opacity="0.3" d="M154.59 355.29H157.12L154.21 252.63H150.7L154.59 355.29Z" fill="white"/>
<path d="M131.27 355.29H128.73L131.65 252.63H135.15L131.27 355.29Z" fill="#2E6D48"/>
<path opacity="0.3" d="M131.27 355.29H128.73L131.65 252.63H135.15L131.27 355.29Z" fill="white"/>
<path d="M241.31 329.2L250.33 326.14L242.92 305.08L233.9 308.14L241.31 329.2Z" fill="#FFC3BD"/>
<path d="M249.66 322.671L239.77 327.011C239.41 327.171 239.27 327.521 239.44 327.871L243.19 335.491C243.58 336.281 244.76 336.671 245.58 336.301C248.99 334.731 250.53 333.821 254.87 331.911C257.55 330.741 262.94 328.641 266.28 326.501C269.54 324.401 267 321.241 265.36 321.871C261.47 323.351 255.01 323.291 251.47 322.531C250.83 322.381 250.19 322.441 249.66 322.671Z" fill="#263238"/>
<path opacity="0.2" d="M233.9 308.15L242.92 305.09L247.15 317.13L237.98 319.76L233.9 308.15Z" fill="black"/>
<path d="M177.42 213.24C177.42 213.24 222.44 221.36 226.05 236.14C233.18 265.36 249.26 311.06 249.26 311.06L232.14 316.02C232.14 316.02 207.67 263.62 204.58 245.98C179.34 245.95 148.56 248.02 144.58 237.29C141.07 227.81 142.32 213.24 142.32 213.24H177.42Z" fill="#263238"/>
<path d="M231.2 319.05L251.2 312.45L249.49 303.42L227.68 311.1L231.2 319.05Z" fill="#2E6D48"/>
<path d="M202.11 332.4L212.07 333.16L206.22 308.58L196.93 310.68L202.11 332.4Z" fill="#FFC3BD"/>
<path d="M211.82 330.76L201.09 329.57C200.7 329.53 200.4 329.77 200.38 330.15L199.82 338.63C199.76 339.51 200.58 340.44 201.48 340.52C205.22 340.87 207 340.84 211.72 341.37C214.62 341.69 220.34 342.58 224.31 342.38C228.19 342.19 227.56 338.19 225.83 337.91C221.72 337.25 216.16 333.96 213.47 331.54C212.98 331.09 212.39 330.82 211.82 330.76Z" fill="#263238"/>
<path opacity="0.2" d="M196.93 310.69L206.22 308.59L209.17 321.01L199.78 322.66L196.93 310.69Z" fill="black"/>
<path d="M154.04 213.24C154.04 213.24 208.75 221.43 206.24 242.14C202.63 272 211.9 315.19 211.9 315.19L194.35 318.33C194.35 318.33 181.44 264.65 181.33 246.74C163.53 246.74 132.42 248.01 128.45 237.29C124.94 227.81 126.19 213.24 126.19 213.24H154.04Z" fill="#263238"/>
<path d="M193.1 321.25L213.69 316.77L212.93 307.61L190.43 312.97L193.1 321.25Z" fill="#2E6D48"/>
<path d="M182.86 155.689C184.32 161.409 185.75 167.179 187.15 172.929C188.55 178.679 189.92 184.439 191.37 190.119L192.46 194.359L193.02 196.439L193.31 197.469L193.35 197.599L193.37 197.659C193.38 197.689 193.34 197.569 193.32 197.529C193.23 197.299 193.11 197.069 193.03 196.939C192.99 196.859 192.93 196.779 192.88 196.719C192.84 196.669 192.81 196.619 192.77 196.569C192.67 196.459 192.63 196.409 192.57 196.349C192.35 196.149 192.33 196.179 192.38 196.229C192.42 196.289 192.58 196.399 192.74 196.519C193.09 196.759 193.58 197.039 194.12 197.299C195.2 197.829 196.46 198.319 197.75 198.819C202.96 200.749 208.7 202.389 214.28 204.159L213.4 210.539C210.29 210.579 207.26 210.439 204.19 210.179C201.12 209.909 198.06 209.519 194.92 208.879C193.34 208.569 191.76 208.169 190.06 207.619C189.21 207.339 188.34 207.009 187.37 206.559C186.88 206.319 186.39 206.069 185.82 205.699C185.26 205.329 184.65 204.889 183.93 204.139C183.75 203.939 183.58 203.759 183.38 203.489L183.1 203.109C183 202.969 182.9 202.799 182.81 202.639C182.63 202.339 182.44 201.949 182.29 201.539L182.12 201.069L181.74 199.969L180.99 197.789C180.5 196.339 180.02 194.899 179.58 193.449C177.77 187.679 176.12 181.919 174.56 176.129C173.01 170.339 171.56 164.559 170.22 158.699L182.86 155.689Z" fill="#FFC3BD"/>
<path d="M168.8 148.77C174.29 142.65 183 146.93 186.66 160.62C188.44 167.28 187.88 170.77 187.88 170.77L168.94 176.6C164.87 167.61 161.33 157.1 168.8 148.77Z" fill="#2E6D48"/>
<g opacity="0.2">
<path d="M168.8 148.77C174.29 142.65 183 146.93 186.66 160.62C188.44 167.28 187.88 170.77 187.88 170.77L168.94 176.6C164.87 167.61 161.33 157.1 168.8 148.77Z" fill="black"/>
</g>
<path d="M224.15 201.549L222.45 201.029C221.42 200.709 220.34 200.619 219.27 200.739L215.62 201.169C213.17 201.789 211.11 203.369 210.05 205.439L208.81 207.849C209.43 212.319 218.47 210.879 218.47 210.879H226.97L226.69 204.819C226.63 203.309 225.61 201.999 224.15 201.549Z" fill="#FFC3BD"/>
<path d="M230.02 191.79C229.85 193.62 228.88 194.92 227.95 196.24C227.04 197.57 226.1 198.89 225.15 200.2C223.24 202.8 221.29 205.38 219.14 207.83C218.93 208.07 218.56 208.1 218.32 207.88C218.12 207.7 218.07 207.41 218.19 207.18C219.67 204.28 221.34 201.51 223.05 198.77C223.91 197.4 224.79 196.05 225.69 194.71C226.57 193.36 227.42 191.98 229.06 191.14C229.38 190.97 229.78 191.1 229.95 191.43C230.01 191.55 230.03 191.67 230.02 191.79Z" fill="#263238"/>
<path d="M170.07 142.84L159.4 139.8L145.67 139.15C141.39 138.95 137.52 141.64 136.18 145.71C133.56 153.69 131.16 165.24 129.4 175.21C127.43 186.39 126.41 197.97 126.19 213.25H177.42C178.46 184.79 181.81 170.9 183.8 160.83C185.01 154.68 181.91 148.49 176.25 145.8L170.07 142.84Z" fill="#2E6D48"/>
<path d="M155.76 144.84C157.06 148.18 162.1 155.31 167.95 158.1C171.2 155.75 171.89 150.63 172.39 148.22L155.76 144.84Z" fill="white"/>
<path d="M172.38 148.23C172.66 146.86 172.68 145.46 171.94 144.29C171.11 142.99 171.32 141.5 172.15 139.97C172.69 138.97 174.18 136.84 174.6 136.64L167.89 128.79L162.42 122.46C161.95 128.39 161.49 135.73 156.82 140.34C155.17 141.96 154.83 142.46 155.76 144.85C157.06 148.19 161.71 152.85 167.56 155.64C170.81 153.29 171.89 150.63 172.38 148.23Z" fill="#FFC3BD"/>
<path opacity="0.2" d="M172.54 135.291L168.76 129.141C168.68 129.291 168.59 129.471 168.5 129.651C168.2 130.311 167.91 131.131 167.69 132.011C166.99 134.741 169.31 138.641 171.86 140.501C171.96 140.321 172.05 140.151 172.16 139.971C172.64 139.071 173.99 137.121 174.45 136.741C174.5 136.691 174.55 136.661 174.6 136.631L172.54 135.291Z" fill="black"/>
<path d="M185.78 120.59C186.66 126.26 194.77 111.67 190.24 108.47C184.7 104.55 184.12 109.8 185.78 120.59Z" fill="#263238"/>
<path d="M162.67 113.19C162.15 122.4 161.36 127.75 165.59 133.07C171.95 141.07 184.16 138.43 187.53 129.61C190.56 121.67 190.9 107.95 182.05 103.09C173.33 98.3101 163.19 103.98 162.67 113.19Z" fill="#FFC3BD"/>
<path d="M180.82 107.66C180.82 107.66 186.71 113.44 190.91 111.05C195.1 108.66 195.97 102.47 190.91 97.0502C188.48 94.4402 184.8 91.8901 177.58 92.0901C178.11 92.7801 179.62 93.3401 179.62 93.3401C179.62 93.3401 170.47 91.8101 164.08 94.4401C164.08 94.4401 164.91 95.7202 166.12 96.3002C159.91 95.8302 153.88 98.2601 158.16 104.13C152.53 104.67 151.27 111.88 154.27 116.63C157.27 121.38 157.8 124.94 161.81 127.1C161.85 120.63 163.3 119.11 163.3 119.11C166.19 117.89 169.52 111.72 168.86 108.61C174.91 111.05 181.5 111.87 180.82 107.66Z" fill="#263238"/>
<path d="M159.52 103.88C157.76 102.43 156.24 101.11 155.13 98.3203C154.41 101.54 157.75 105.21 157.75 105.21L159.52 103.88Z" fill="#263238"/>
<path d="M158.07 118.22C158.12 120.48 159.14 122.56 160.4 123.89C162.31 125.89 164.91 124.19 165.36 121.62C165.77 119.31 164.79 115.77 162.4 114.73C160.06 113.71 158.01 115.64 158.07 118.22Z" fill="#FFC3BD"/>
<path d="M177.75 117.94C177.6 118.7 177.87 119.41 178.36 119.52C178.85 119.64 179.37 119.12 179.53 118.36C179.68 117.6 179.41 116.89 178.92 116.78C178.43 116.66 177.9 117.18 177.75 117.94Z" fill="#263238"/>
<path d="M186.25 119.96C186.1 120.72 186.37 121.43 186.86 121.54C187.35 121.66 187.87 121.14 188.03 120.38C188.18 119.62 187.91 118.91 187.42 118.8C186.92 118.69 186.4 119.21 186.25 119.96Z" fill="#263238"/>
<path d="M183.42 119.91C183.42 119.91 183.85 124.02 184.94 126.27C183.54 126.97 181.78 125.91 181.78 125.91L183.42 119.91Z" fill="#ED847E"/>
<path d="M180.21 130.16C177.24 129.51 175.98 127.29 175.92 127.19C175.86 127.08 175.9 126.94 176.01 126.88C176.12 126.82 176.26 126.86 176.32 126.97C176.33 127 177.76 129.52 181.14 129.85C181.27 129.86 181.36 129.97 181.34 130.1C181.33 130.22 181.22 130.32 181.09 130.3C180.78 130.26 180.49 130.22 180.21 130.16Z" fill="#263238"/>
<path d="M176.63 114.881C176.56 114.851 176.5 114.811 176.45 114.751C176.29 114.561 176.32 114.271 176.51 114.111C178.42 112.531 180.43 113.191 180.51 113.221C180.74 113.271 180.88 113.561 180.79 113.801C180.71 114.041 180.45 114.161 180.22 114.081C180.14 114.051 178.59 113.581 177.09 114.821C176.96 114.911 176.78 114.941 176.63 114.881Z" fill="#263238"/>
<path d="M187.3 115.06C187.28 114.99 187.28 114.91 187.31 114.83C187.38 114.59 187.63 114.45 187.87 114.52C190.26 115.19 190.86 117.21 190.88 117.3C190.97 117.52 190.81 117.79 190.57 117.86C190.33 117.93 190.08 117.79 190.01 117.55C189.98 117.47 189.5 115.93 187.62 115.4C187.46 115.35 187.34 115.22 187.3 115.06Z" fill="#263238"/>
<path d="M147.81 152.921C145.88 158.401 143.97 164.121 142.25 169.711C141.38 172.521 140.6 175.331 139.88 178.101C139.19 180.871 138.6 183.641 138.29 186.171C138.26 186.481 138.21 186.801 138.19 187.091L138.16 187.531C138.15 187.671 138.14 187.881 138.13 187.811C138.1 187.791 138.05 187.861 138.11 188.071C138.2 188.481 138.62 189.311 139.32 190.131C140.72 191.811 142.85 193.571 145.12 195.151C149.69 198.361 154.99 201.221 160.17 203.891L158.11 209.991C154.93 209.311 151.97 208.451 148.95 207.411C145.95 206.371 142.99 205.161 140.04 203.681C137.11 202.141 134.17 200.461 131.33 197.771C129.93 196.401 128.48 194.781 127.41 192.371C126.88 191.181 126.5 189.741 126.41 188.211C126.38 187.761 126.39 187.601 126.38 187.351L126.37 186.651C126.36 186.181 126.39 185.751 126.4 185.301C126.54 181.771 127.06 178.561 127.66 175.391C128.26 172.231 129.01 169.171 129.81 166.131C131.45 160.051 133.35 154.221 135.62 148.311L147.81 152.921Z" fill="#FFC3BD"/>
<path d="M145.02 139.14C154.8 139.05 156.65 146.66 151.33 158.72C148.55 165.03 143.89 171.05 143.89 171.05L127.72 162.46C129.88 152.82 133.83 139.24 145.02 139.14Z" fill="#2E6D48"/>
<path d="M172 202.92L168.42 200.96C167.84 200.64 167.16 200.52 166.5 200.61L162.2 201.2C159.31 201.5 157.21 203.71 155.63 205.63L153.79 207.87C153.7 212.39 165.12 211.33 165.12 211.33L175.11 211.2L174.8 207.26C174.66 205.44 173.61 203.81 172 202.92Z" fill="#FFC3BD"/>
<path d="M385.34 208.94H114.65V221.61H385.34V208.94Z" fill="#2E6D48"/>
<path opacity="0.3" d="M202.45 208.94H114.65V221.61H202.45V208.94Z" fill="white"/>
<path d="M121.9 221.601H117.76V361.281H121.9V221.601Z" fill="#2E6D48"/>
<path opacity="0.7" d="M121.9 221.601H117.76V361.281H121.9V221.601Z" fill="white"/>
<path d="M199.35 221.601H195.21V361.281H199.35V221.601Z" fill="#2E6D48"/>
<path opacity="0.7" d="M199.35 221.601H195.21V361.281H199.35V221.601Z" fill="white"/>
<path d="M304.79 221.601H300.65V361.281H304.79V221.601Z" fill="#2E6D48"/>
<path opacity="0.7" d="M304.79 221.601H300.65V361.281H304.79V221.601Z" fill="white"/>
<path d="M382.24 221.601H378.1V361.281H382.24V221.601Z" fill="#2E6D48"/>
<path opacity="0.7" d="M382.24 221.601H378.1V361.281H382.24V221.601Z" fill="white"/>
<path d="M355.95 152.94H281.95C279.44 152.94 277.06 154.99 276.64 157.5L268.92 204.39C268.51 206.9 270.22 208.95 272.73 208.95H346.73C349.24 208.95 351.62 206.9 352.04 204.39L359.76 157.5C360.17 154.99 358.46 152.94 355.95 152.94Z" fill="#263238"/>
<path d="M309.01 205.881H239.34C238.88 205.881 238.51 206.261 238.51 206.711V208.101C238.51 208.561 238.89 208.931 239.34 208.931H309.01C309.47 208.931 309.84 208.551 309.84 208.101V206.711C309.84 206.261 309.47 205.881 309.01 205.881Z" fill="#263238"/>
<path opacity="0.2" d="M355.95 152.94H283.62C281.11 152.94 278.73 154.99 278.31 157.5L270.59 204.39C270.18 206.9 271.89 208.95 274.4 208.95H346.73C349.24 208.95 351.62 206.9 352.04 204.39L359.76 157.5C360.17 154.99 358.46 152.94 355.95 152.94Z" fill="white"/>
<path d="M164.46 205.88C164.46 205.88 188.29 209.43 199.79 204.74C205.17 207.33 224.34 208.61 231 205.88C228.94 208.27 224.1 208.94 224.1 208.94C224.1 208.94 178.66 208.94 173.83 208.94C169 208.94 165.31 206.83 164.46 205.88Z" fill="#2E6D48"/>
<path opacity="0.7" d="M164.46 205.88C164.46 205.88 188.29 209.43 199.79 204.74C205.17 207.33 224.34 208.61 231 205.88C228.94 208.27 224.1 208.94 224.1 208.94C224.1 208.94 178.66 208.94 173.83 208.94C169 208.94 165.31 206.83 164.46 205.88Z" fill="white"/>
</svg>
