<svg width="102" height="106" viewBox="0 0 102 106" fill="none" xmlns="http://www.w3.org/2000/svg">
<path d="M0 22C0 9.84974 9.84974 0 22 0H80C92.1503 0 102 9.84974 102 22V84C102 96.1503 92.1503 106 80 106H22C9.84973 106 0 96.1503 0 84V22Z" fill="#2E6D48"/>
<path d="M44.003 57C35.7111 57 29.4536 65.0364 31.3369 73H56.6692C58.5524 65.0364 52.295 57 44.003 57Z" fill="white"/>
<ellipse cx="43.9909" cy="40" rx="7.00163" ry="7" fill="white"/>
<path d="M61.9965 59C58.9891 59 56.3262 60.331 54.6914 62.376L48 69H56.9953H70.7577C72.1658 63.6198 67.2183 59 61.9965 59Z" fill="white"/>
<ellipse cx="61.9963" cy="48" rx="5.00116" ry="5" fill="white"/>
</svg>
