<svg width="58" height="58" viewBox="0 0 58 58" fill="none" xmlns="http://www.w3.org/2000/svg">
<circle cx="29" cy="29" r="29" fill="#D1222A"/>
<path d="M18.3333 21V29C18.3333 29 18.3333 33 27.6666 33C36.9999 33 36.9999 29 36.9999 29V21" stroke="white" stroke-width="1.5" stroke-linecap="round" stroke-linejoin="round"/>
<path d="M27.6666 17C36.9999 17 36.9999 21 36.9999 21C36.9999 21 36.9999 25 27.6666 25C18.3333 25 18.3333 21 18.3333 21C18.3333 21 18.3333 17 27.6666 17Z" stroke="white" stroke-width="1.5" stroke-linecap="round" stroke-linejoin="round"/>
<path d="M27.6666 41C18.3333 41 18.3333 37 18.3333 37V29" stroke="white" stroke-width="1.5" stroke-linecap="round" stroke-linejoin="round"/>
<path d="M37 42.3335H39H41M39 38.9049H42.1111V34.3335H35.8889V38.9049H39Z" stroke="white" stroke-width="1.5" stroke-linecap="round" stroke-linejoin="round"/>
</svg>
