<svg width="501" height="425" viewBox="0 0 501 425" fill="none" xmlns="http://www.w3.org/2000/svg">
<path opacity="0.1" d="M441.545 171.993C430.996 131.073 392.497 133.614 356.035 141.212C336.421 145.293 308.942 150.951 280.274 142.6C218.559 124.64 147.613 120.147 112.647 142.6C77.6799 165.053 56.6646 192.105 66.7425 229.896C76.8205 267.698 102.427 301.678 80.6468 321.908C58.8662 342.139 59.2312 418.743 148.802 424.706C238.373 430.669 229.496 344.797 288.657 348.784C347.818 352.771 469.247 410.91 474.38 368.755C479.514 326.613 413.619 296.538 437.248 226.556C441.933 212.665 446.372 190.694 441.545 171.993Z" fill="#2C2A40"/>
<path opacity="0.1" d="M235.571 105.022C235.571 105.022 237.855 90.3429 244.295 90.9192C246.073 91.0721 247.286 92.8835 248.086 94.8242C248.581 96.0239 250.288 95.9298 250.641 94.6948C252.348 88.7316 255.833 79.6279 261.237 79.6279C266.829 79.6279 267.006 90.0371 266.606 96.3885C266.547 97.3412 267.783 97.7646 268.325 96.9765C269.796 94.8124 271.951 92.7305 274.564 93.3304C279.662 94.5066 278.285 105.033 278.285 105.033H235.571V105.022Z" fill="#2C2A40"/>
<path opacity="0.1" d="M0 243.046C0 243.046 2.28402 228.367 8.724 228.944C10.5018 229.097 11.7144 230.908 12.515 232.849C13.0095 234.048 14.7166 233.954 15.0698 232.719C16.7769 226.756 20.2618 217.652 25.6657 217.652C31.258 217.652 31.4346 228.062 31.0344 234.413C30.9755 235.366 32.2117 235.789 32.7533 235.001C34.2249 232.837 36.3794 230.755 38.9931 231.355C44.0909 232.531 42.7134 243.058 42.7134 243.058H0V243.046Z" fill="#2C2A40"/>
<path opacity="0.1" d="M453.224 184.401C453.224 184.401 455.508 169.723 461.948 170.299C463.726 170.452 464.939 172.263 465.739 174.204C466.234 175.404 467.941 175.31 468.294 174.075C470.001 168.111 473.486 159.008 478.89 159.008C484.482 159.008 484.659 169.417 484.258 175.768C484.2 176.721 485.436 177.144 485.977 176.356C487.449 174.192 489.604 172.11 492.217 172.71C497.315 173.886 495.938 184.413 495.938 184.413H453.224V184.401Z" fill="#2C2A40"/>
<path d="M436.353 423.977C436.353 423.977 443.546 422.707 443.122 413.203C442.698 403.7 439.531 390.597 433.186 386.786C426.84 382.987 422.213 388.48 422.213 388.48L436.353 423.977Z" fill="#7B7B9A"/>
<path d="M408.003 386.786C408.215 389.95 411.17 394.607 417.516 397.983C423.861 401.37 427.252 413.414 430.101 418.695C431.408 421.118 432.833 422.436 433.998 423.153C435.364 423.988 436.353 423.988 436.353 423.988C436.353 423.988 436.388 423.153 436.4 421.718C436.423 418.284 436.27 411.415 435.046 404.134C433.315 393.784 427.17 390.185 427.17 390.185C426.051 388.279 423.638 386.915 420.883 386.056C416.385 384.657 410.993 384.586 408.897 385.645C408.297 385.915 407.979 386.303 408.003 386.786Z" fill="#B0B1CA"/>
<path d="M432.597 402.417C434.092 408.757 434.775 419.225 434.01 423.142C435.376 423.977 436.365 423.977 436.365 423.977C436.365 423.977 436.789 414.473 435.046 404.111C433.315 393.761 427.17 390.162 427.17 390.162C426.051 388.256 423.638 386.892 420.883 386.033C424.509 389.668 431.326 397.042 432.597 402.417Z" fill="#2C2A40"/>
<path opacity="0.2" d="M408.003 386.785C408.215 389.949 411.17 394.607 417.516 397.983C423.861 401.37 427.252 413.414 430.101 418.695C431.408 421.118 432.833 422.435 433.998 423.153C435.364 423.988 436.353 423.988 436.353 423.988C436.353 423.988 436.388 423.153 436.4 421.718C436.259 421.588 436.105 421.494 435.929 421.459C433.821 420.93 430.961 420.118 429.265 412.261C427.57 404.416 424.721 398.735 419.858 396.312C415.42 394.101 409.839 386.903 408.897 385.645C408.297 385.915 407.979 386.303 408.003 386.785Z" fill="#2C2A40"/>
<path d="M356.895 188.189C356.895 188.189 405.872 180.838 419.176 201.621C432.468 222.404 414.608 291.857 400.197 302.372C385.787 312.887 361.828 307.441 352.869 300.831C343.909 294.221 339.753 198.221 356.895 188.189Z" fill="#2C2A40"/>
<path d="M413.642 274.673C413.642 274.673 419.847 273.191 422.072 265.899L414.666 262.629C414.666 262.629 411.77 270.133 413.642 274.673Z" fill="#00497B"/>
<path d="M413.642 261.9C423.791 277.331 446.713 281.342 446.713 281.342C451.458 279.954 457.78 273.367 464.032 265.322C475.911 250.044 487.531 229.519 487.531 229.519L478.018 226.355C478.018 226.355 461.312 244.798 454.119 248.809C446.925 252.819 444.806 256.63 444.806 256.63C444.052 255.819 443.193 255.019 442.263 254.254C437.153 250.044 430.113 246.75 430.113 246.75C421.966 244.457 413.642 261.9 413.642 261.9Z" fill="#F9B587"/>
<path d="M413.642 261.899C423.791 277.33 446.713 281.341 446.713 281.341C451.458 279.953 457.78 273.367 464.032 265.322C464.032 265.322 452.859 277.178 445.76 278.177C438.66 279.177 425.203 269.509 423.85 265.816C422.496 262.122 424.497 252.701 430.101 246.738C421.966 244.456 413.642 261.899 413.642 261.899Z" fill="#F39568"/>
<path d="M316.23 302.372C316.23 302.372 315.7 333.553 320.08 353.242C324.46 372.931 343.179 321.003 343.179 321.003C343.179 321.003 326.402 306.289 316.23 302.372Z" fill="#2C2A40"/>
<path d="M381.655 320.638C381.655 320.638 381.242 339.021 369.187 352.018C357.131 365.015 351.951 380.223 351.951 380.223C351.951 380.223 369.999 371.978 381.643 374.201C381.643 374.201 387.741 374.518 389.966 371.978C392.192 369.437 392.827 366.426 396.312 367.379C399.797 368.332 404.718 367.226 405.99 367.061C407.261 366.908 415.35 379.741 413.76 388.138C413.76 388.138 407.414 389.879 406.626 390.997C405.837 392.102 401.233 396.866 398.373 396.701C395.512 396.548 387.906 400.982 387.906 400.982C387.906 400.982 348.666 415.896 345.075 418.413C339.023 422.648 310.497 427.293 307.954 411.286C305.411 395.278 330.323 319.203 333.808 310.969C337.305 302.724 377.463 310.652 381.655 320.638Z" fill="#2C2A40"/>
<path d="M345.981 373.402L347.088 373.802C347.488 372.708 347.982 371.532 348.548 370.332L347.488 369.826C346.899 371.061 346.393 372.261 345.981 373.402Z" fill="#5B5B6C"/>
<path d="M403.988 371.802L404.236 372.954C405.401 372.695 406.661 372.448 407.968 372.225L407.767 371.061C406.449 371.296 405.177 371.543 403.988 371.802Z" fill="#5B5B6C"/>
<path d="M345.663 382.446L344.498 382.576L344.509 382.705C344.709 384.328 345.204 385.54 346.005 386.41L346.864 385.61C346.24 384.94 345.84 383.905 345.675 382.552L345.663 382.446Z" fill="#5B5B6C"/>
<path d="M354.964 385.904L355.282 387.034C356.495 386.693 357.766 386.293 358.967 385.904L358.602 384.787C357.413 385.175 356.153 385.575 354.964 385.904Z" fill="#5B5B6C"/>
<path d="M354.034 358.569C353.292 359.687 352.586 360.769 351.95 361.792L352.951 362.415C353.587 361.404 354.281 360.322 355.023 359.216L354.034 358.569Z" fill="#5B5B6C"/>
<path d="M351.573 364.674L350.561 364.074C349.878 365.239 349.242 366.368 348.677 367.438L349.713 367.991C350.267 366.932 350.891 365.815 351.573 364.674Z" fill="#5B5B6C"/>
<path d="M375.98 319.391L374.814 319.191C374.602 320.438 374.343 321.685 374.061 322.908L375.203 323.167C375.497 321.92 375.756 320.65 375.98 319.391Z" fill="#5B5B6C"/>
<path d="M358.685 353.913L357.731 353.23C356.93 354.36 356.212 355.383 355.529 356.371L356.495 357.041C357.178 356.053 357.884 355.03 358.685 353.913Z" fill="#5B5B6C"/>
<path d="M361.534 347.984C360.792 349.008 360.039 350.031 359.285 351.078L360.239 351.772C360.992 350.737 361.746 349.702 362.487 348.678L361.534 347.984Z" fill="#5B5B6C"/>
<path d="M346.287 376.272L345.145 375.966C344.78 377.33 344.545 378.624 344.451 379.824L345.628 379.918C345.722 378.789 345.946 377.565 346.287 376.272Z" fill="#5B5B6C"/>
<path d="M348.854 386.657L348.63 387.809C349.078 387.892 349.56 387.939 350.09 387.939C350.856 387.939 351.691 387.856 352.657 387.668L352.445 386.516C350.961 386.786 349.796 386.833 348.854 386.657Z" fill="#5B5B6C"/>
<path d="M380.371 381.553L380.571 382.717C381.855 382.505 383.126 382.223 384.362 381.894L384.056 380.753C382.855 381.07 381.619 381.341 380.371 381.553Z" fill="#5B5B6C"/>
<path d="M386.552 379.988L386.94 381.093C388.235 380.646 389.448 380.141 390.543 379.588L390.013 378.541C388.954 379.07 387.8 379.553 386.552 379.988Z" fill="#5B5B6C"/>
<path d="M361.122 383.976L361.475 385.093C362.946 384.623 364.065 384.305 365.124 384.034L364.83 382.894C363.759 383.176 362.617 383.505 361.122 383.976Z" fill="#5B5B6C"/>
<path d="M374.025 382.117L374.037 383.293C375.309 383.281 376.615 383.211 377.911 383.07L377.793 381.905C376.521 382.035 375.262 382.105 374.025 382.117Z" fill="#5B5B6C"/>
<path d="M397.666 373.601L398.09 374.695C399.091 374.307 400.303 373.919 401.681 373.554L401.375 372.413C399.962 372.801 398.714 373.201 397.666 373.601Z" fill="#5B5B6C"/>
<path d="M393.993 375.777C393.545 376.271 392.945 376.765 392.227 377.259L392.886 378.235C393.675 377.694 394.334 377.141 394.852 376.577C395.087 376.318 395.405 376.071 395.806 375.812L395.182 374.812C394.687 375.118 394.287 375.448 393.993 375.777Z" fill="#5B5B6C"/>
<path d="M373.425 325.448C373.095 326.683 372.718 327.895 372.318 329.071L373.436 329.447C373.837 328.248 374.213 327.013 374.555 325.754L373.425 325.448Z" fill="#5B5B6C"/>
<path d="M363.1 345.843L364.053 346.537C364.819 345.49 365.572 344.455 366.314 343.444L365.36 342.75C364.618 343.762 363.865 344.797 363.1 345.843Z" fill="#5B5B6C"/>
<path d="M369.798 337.916L368.762 337.363C368.162 338.492 367.514 339.586 366.843 340.61L367.832 341.256C368.515 340.186 369.186 339.069 369.798 337.916Z" fill="#5B5B6C"/>
<path d="M369.94 335.022L371 335.528C371.541 334.387 372.047 333.188 372.518 331.976L371.423 331.553C370.964 332.741 370.47 333.905 369.94 335.022Z" fill="#5B5B6C"/>
<path d="M367.467 382.329L367.667 383.493C369.045 383.258 370.234 383.175 371.352 383.222L371.411 382.046C370.199 381.987 368.939 382.082 367.467 382.329Z" fill="#5B5B6C"/>
<path d="M314.782 93.6947L319.562 114.066L319.586 114.195C319.586 114.195 319.904 117.971 320.928 122.946C322.082 128.498 324.118 135.555 327.603 140.565C328.133 141.33 328.71 142.059 329.31 142.718C329.31 142.718 332.336 154.35 335.609 164.395C337.528 170.311 339.53 175.686 341.048 177.791C341.048 177.791 360.38 174.157 355.753 162.607C355.753 162.607 349.172 147.552 343.992 136.449C343.992 136.437 343.992 136.437 343.992 136.437C342.991 134.285 342.037 132.285 341.201 130.568L335.28 117.054L332.442 110.573L323.824 90.9189L314.782 93.6947Z" fill="#F9B587"/>
<path d="M335.621 164.394C337.54 170.31 339.541 175.686 341.06 177.791C341.06 177.791 360.392 174.156 355.765 162.606C355.765 162.606 349.183 147.551 344.003 136.448C344.133 136.883 348.654 152.75 347.3 157.208C345.922 161.736 341.908 165.994 335.621 164.394Z" fill="#F39568"/>
<path d="M335.738 178.544C336.021 186.942 339.482 196.939 343.497 202.902C345.911 205.443 348.936 205.443 352.033 204.114C359.897 200.75 368.209 188.87 368.209 188.87L356.883 164.959L355.777 162.618C349.384 164.359 342.897 168.911 339.141 171.886C337.104 173.498 335.868 174.65 335.868 174.65C335.727 175.885 335.691 177.191 335.738 178.544Z" fill="#F9AA1B"/>
<path opacity="0.2" d="M335.738 178.544C336.021 186.942 339.482 196.939 343.497 202.903C345.911 205.443 348.936 205.443 352.033 204.114C345.251 197.386 340.601 178.532 339.141 171.887C337.104 173.498 335.868 174.651 335.868 174.651C335.727 175.886 335.691 177.191 335.738 178.544Z" fill="#2C2A40"/>
<path d="M335.739 178.544C341.037 173.286 353.151 166.864 356.872 164.959L355.765 162.618C345.911 165.312 335.856 174.65 335.856 174.65C335.727 175.885 335.692 177.191 335.739 178.544Z" fill="#2C2A40"/>
<path d="M310.026 306.371C324.766 325.425 386.293 326.66 386.293 326.66C386.293 326.66 384.115 301.431 386.293 288.94C388.695 275.202 390.767 255.019 390.767 255.019C396.395 259.135 404.989 266.781 409.887 271.227C412.159 273.297 413.642 274.673 413.642 274.673C415.185 267.592 417.328 262.229 419.553 258.194C424.603 249.044 430.102 246.727 430.102 246.727L427.523 243.363L408.851 218.992L388.777 202.385L385.328 199.527L369.528 189.423L363.065 185.283C363.065 185.283 346.346 192.27 341.59 199.527C336.834 206.784 325.896 240.422 322.553 256.924C318.22 278.342 313.005 296.467 310.932 303.371L310.921 303.383C310.356 305.324 310.026 306.371 310.026 306.371Z" fill="#F9AA1B"/>
<path opacity="0.2" d="M310.026 306.371C324.766 325.425 386.293 326.66 386.293 326.66C386.293 326.66 384.115 301.431 386.293 288.94C388.695 275.202 390.767 255.019 390.767 255.019C396.395 259.135 404.989 266.78 409.887 271.226C412.159 273.296 413.642 274.673 413.642 274.673C415.185 267.592 417.328 262.229 419.553 258.194C419.553 258.194 397.984 246.515 388.766 236.317C388.766 236.317 377.275 268.074 373.319 284.07C368.198 304.783 350.832 313.228 334.891 312.169C318.962 311.111 310.932 303.36 310.932 303.36L310.921 303.371C310.356 305.324 310.026 306.371 310.026 306.371Z" fill="#2C2A40"/>
<path d="M378.958 206.101C382.608 205.384 384.456 203.361 387.235 201.102L385.328 199.526L368.48 186.165C366.243 187.576 363.453 188.976 363.064 194.645C362.476 203.196 371.518 207.56 378.958 206.101Z" fill="#2C2A40"/>
<path d="M409.887 271.239C412.159 273.309 413.642 274.685 413.642 274.685C418.681 251.549 430.101 246.739 430.101 246.739L427.523 243.375C422.826 246.727 413.03 255.431 409.887 271.239Z" fill="#2C2A40"/>
<path d="M397.984 179.955C397.984 179.955 398.314 189.141 387.718 191.023C387.718 191.011 390.367 179.002 397.984 179.955Z" fill="#2C2A40"/>
<path d="M380.618 160.266C387.023 170.546 397.36 179.191 397.36 179.191C397.36 179.191 419.435 168.547 412.182 151.045C410.24 146.352 407.85 142.918 405.248 140.448C394.205 129.909 379.488 136.719 379.488 136.719C373.071 143.365 375.65 152.304 380.618 160.266Z" fill="#F9AA1B"/>
<path opacity="0.2" d="M380.618 160.266C387.023 170.546 397.36 179.191 397.36 179.191C397.36 179.191 419.435 168.546 412.182 151.045C410.24 146.352 407.85 142.917 405.248 140.447C405.377 140.647 411.464 150.386 405.248 156.878C398.961 163.418 388.082 165.77 380.618 160.266Z" fill="#2C2A40"/>
<path d="M397.242 155.596C397.242 155.596 391.473 125.78 373.001 127.133C355.706 128.403 369.187 151.256 369.187 151.256C369.187 151.256 394.146 158.384 397.242 155.596Z" fill="#2C2A40"/>
<path d="M374.414 145.046C374.414 145.046 366.49 146.622 367.232 153.914C367.232 153.914 373.943 149.939 374.414 145.046Z" fill="#2C2A40"/>
<path d="M388.235 189.2L385.327 199.527C385.021 200.938 383.938 202.044 382.525 202.35C370.399 205.02 364.63 196.128 365.842 193.023C367.408 192.47 394.393 183.837 399.302 173.475C399.314 173.475 397.595 182.731 388.235 189.2Z" fill="#F9B587"/>
<path d="M367.244 188.753C371.129 190.247 376.592 191.599 382.278 190.588C393.015 188.682 398.608 175.991 398.608 175.991C398.608 175.991 400.397 167.37 397.984 159.396C397.336 157.231 396.371 155.114 394.981 153.232C389.931 146.411 381.536 145.199 376.921 144.752C374.625 144.529 372.4 145.634 371.199 147.598L369.174 150.904L367.82 153.115C367.526 153.585 367.267 154.079 367.032 154.573C366.243 156.255 365.76 158.055 365.619 159.913L365.466 162.077C364.418 163.418 363.617 164.912 363.076 166.488C362.605 167.852 362.322 169.299 362.264 170.757L361.84 180.496C361.687 184.131 363.853 187.447 367.244 188.753Z" fill="#F9B587"/>
<path d="M378.346 156.373C378.346 156.373 386.94 153.127 388.765 160.231L387.423 161.254C387.423 161.254 384.821 155.785 377.993 158.22L378.346 156.373Z" fill="#2C2A40"/>
<path d="M365.454 162.089C364.406 163.43 363.606 164.924 363.064 166.5C364.759 166.147 367.691 166.523 372.612 169.511C372.612 169.511 370.799 166.006 368.021 164.735C367.279 164.394 367.067 163.43 367.62 162.818L371.282 158.713C371.282 158.713 371.14 157.514 370.104 156.632C369.469 156.09 368.15 155.208 367.032 154.585C366.243 156.255 365.76 158.066 365.619 159.925L365.454 162.089Z" fill="#F39568"/>
<path d="M367.915 153.256C369.892 154.28 371.27 155.573 371.27 155.573L370.775 157.22C369.539 156.103 368.338 155.373 367.208 154.927C366.655 154.703 366.372 154.091 366.619 153.621C366.619 153.609 366.631 153.609 366.631 153.609C366.843 153.15 367.432 152.998 367.915 153.256Z" fill="#2C2A40"/>
<path d="M364.595 170.593L379.5 175.486C379.5 175.486 374.484 182.484 366.961 178.967C361.051 176.203 364.595 170.593 364.595 170.593Z" fill="white"/>
<path d="M368.197 188.87C368.197 188.87 377.557 191.634 387.717 181.378C387.717 181.378 387.941 186.894 382.49 192.293C378.523 196.233 371.023 195.574 367.232 194.927C366.09 194.728 365.49 193.469 366.078 192.469L368.197 188.87Z" fill="#F39568"/>
<path d="M395.841 172.298C395.841 172.298 400.786 168.346 403.705 172.369C406.625 176.391 399.314 187.153 394.569 182.46C389.813 177.767 395.841 172.298 395.841 172.298Z" fill="#F9B587"/>
<path d="M378.146 161.666C378.146 161.666 380.1 159.478 382.384 160.466C385.728 161.901 385.139 165.006 385.139 165.006C385.139 165.006 383.844 159.149 378.146 161.666Z" fill="#2C2A40"/>
<path d="M369.857 160.172C369.857 160.172 368.75 156.443 365.937 159.16C365.948 159.16 368.409 157.714 369.857 160.172Z" fill="#2C2A40"/>
<path d="M369.057 150.856C369.068 150.962 368.798 151.386 368.809 151.492C368.809 151.492 373.636 147.457 382.125 150.739C390.614 154.009 394.77 162.042 394.77 162.042L397.984 159.396C397.336 157.231 396.371 155.114 394.981 153.232C389.931 146.411 381.536 145.199 376.921 144.752C374.625 144.529 372.4 145.634 371.199 147.598L369.057 150.856Z" fill="#F39568"/>
<path d="M393.251 172.933L396.041 174.204L400.103 170.557C400.739 167.052 397.901 157.702 397.23 155.596C396.877 155.255 396.288 154.914 395.865 154.585C395.865 154.585 393.063 164.253 396.1 167.84L393.251 172.933Z" fill="#2C2A40"/>
<path d="M319.562 114.065L319.586 114.195C319.586 114.195 319.903 117.97 320.928 122.946L335.268 117.065L332.43 110.584L319.562 114.065Z" fill="#F39568"/>
<path opacity="0.2" d="M340.613 212.253L351.962 222.38C351.962 222.38 347.901 238.293 339.212 234.741C328.745 230.46 340.613 212.253 340.613 212.253Z" fill="#2C2A40"/>
<path d="M304.389 124.769L354.914 105.922L342.423 72.503L291.898 91.3504L304.389 124.769Z" fill="#2C2A40"/>
<path d="M291.883 91.3299L304.374 124.757L354.905 105.914L352.998 105.373L293.319 88.4482L292.354 90.3889L291.883 91.3299Z" fill="#2C2A40"/>
<path d="M292.354 90.389L304.28 122.44C304.974 122.181 304.668 122.299 305.81 121.863L323.953 96.1993L293.319 88.4365L292.354 90.389Z" fill="white"/>
<path d="M305.826 121.877L354.145 103.853L341.654 70.4336L293.335 88.4582L305.826 121.877Z" fill="#2C2A40"/>
<path d="M309.66 79.5796C309.66 79.5796 309.672 79.5679 309.66 79.5796C310.249 78.8857 311.309 78.427 311.968 78.4623C312.109 77.8036 312.886 77.3096 313.758 77.1332C314.264 77.0273 314.794 77.1214 315.253 77.3566C315.653 76.5921 316.654 76.1334 317.195 76.4392C317.195 76.4392 317.325 76.498 317.56 76.6039C317.749 76.0393 318.173 75.7335 318.173 75.7335C318.738 74.9455 320.339 74.5221 320.951 74.8632C320.951 74.8632 326.296 77.0156 326.814 81.1439C327.32 85.2606 328.074 90.0594 326.167 89.3772C325.625 89.1772 325.083 88.4951 324.601 87.5776C324.813 90.0476 324.683 91.8942 323.447 91.459C322.764 91.212 322.081 90.2005 321.528 88.895C321.646 90.9886 321.434 92.447 320.327 92.0471C319.326 91.6825 318.349 89.6948 317.737 87.5541C317.925 89.9418 317.784 91.6943 316.571 91.2591C315.088 90.7298 314.676 87.413 313.64 84.7313C312.427 81.5909 312.145 83.2375 310.367 82.0849L308.766 82.6847C308.448 80.8499 309.566 79.6855 309.66 79.5796Z" fill="#F9B587"/>
<path d="M475.275 231.671C473.027 230.272 471.402 228.084 470.695 225.532C470.495 224.803 470.26 224.026 469.977 223.262C468.918 220.298 469.765 213.958 469.977 211.429C470.189 208.889 471.99 204.031 472.52 203.502C473.05 202.973 476.217 205.231 474.957 208.489C473.686 211.747 474.604 215.37 475.252 216.416C475.911 217.463 478.866 215.558 479.608 213.652C480.349 211.747 486.801 197.386 488.073 196.962C489.344 196.539 490.404 196.857 489.556 200.55C488.709 204.243 484.694 210.688 485.224 212.488C485.753 214.288 486.707 212.806 487.025 211.853C487.343 210.9 492.523 197.304 493.371 196.81C494.218 196.316 496.644 195.469 495.384 201.232C494.112 206.995 490.18 214.017 490.416 215.287C490.651 216.558 496.043 202.526 497.55 201.738C499.057 200.95 500.164 202.373 498.975 205.854C497.786 209.336 494.607 216.099 494.336 216.863C494.112 217.51 494.242 218.051 494.795 217.734C495.349 217.416 498.704 209.183 499.469 208.712C500.235 208.242 502.142 209.112 500.081 214.735C498.021 220.357 496.644 225.344 491.04 230.519C487.578 233.718 485.883 235.647 482.633 235.176C480.667 234.882 477.712 233.177 475.275 231.671Z" fill="#F9B587"/>
<path d="M405.248 215.852C405.248 215.852 406.625 200.62 394.652 197.445C386.069 195.175 371.517 210.971 367.832 228.719C361.322 260.1 376.415 287.469 386.281 291.057C386.281 291.057 395.288 284.082 388.424 274.684C388.424 274.684 369.845 255.971 378.134 229.037C385.033 206.607 396.053 200.832 400.197 211.841L405.248 215.852Z" fill="#2C2A40"/>
<path d="M328.71 233.683L333.843 217.91C333.843 217.91 333.125 190.364 362.229 183.413C361.934 182.495 361.793 181.507 361.84 180.508L362.017 176.309C358.379 176.544 321.293 187.259 328.71 233.683Z" fill="#2C2A40"/>
<path d="M444.806 265.804C444.253 260.852 444.806 256.606 444.806 256.606C444.053 255.795 443.193 254.995 442.263 254.23C441.003 263.957 444.806 265.804 444.806 265.804Z" fill="#F39568"/>
<path d="M327.615 140.565C328.145 141.329 328.721 142.059 329.322 142.717C329.322 142.717 334.22 139.859 335.632 139.118C335.632 139.118 331.111 139.201 327.615 140.565Z" fill="#F39568"/>
<path d="M406.001 367.815C408.627 370.296 410.758 376.095 412.135 380.788C412.135 380.8 412.135 380.8 412.147 380.811C413.266 384.622 413.89 387.704 413.89 387.704C416.221 390.244 421.554 389.515 430.113 390.444C437.825 391.279 443.217 396.631 448.962 398.936C448.962 398.936 448.962 398.936 448.974 398.936C449.61 399.195 450.257 399.407 450.905 399.583C454.319 400.477 456.732 399.924 458.039 398.266C459.228 396.772 459.511 394.385 458.84 391.374C457.415 385.022 441.392 371.073 436.789 369.214C432.185 367.356 429.336 366.274 423.862 361.781C418.399 357.288 412.83 356.982 411.723 358.664C411.535 358.946 411.252 359.393 410.911 359.934C409.192 362.628 406.001 367.815 406.001 367.815Z" fill="#B0B1CA"/>
<path d="M410.899 359.922C412.712 359.723 415.773 359.628 417.951 360.899C421.224 362.804 425.886 367.238 430.855 369.567C435.823 371.896 445.348 378.447 450.316 383.093C455.284 387.739 458.204 395.055 456.768 397.466C455.319 399.877 452.694 399.783 448.974 398.948C449.609 399.207 450.257 399.418 450.904 399.595C457.403 401.3 460.264 397.737 458.84 391.385C457.415 385.034 441.392 371.084 436.788 369.226C432.185 367.368 429.336 366.286 423.861 361.793C418.398 357.3 412.83 356.994 411.723 358.676C411.523 358.934 411.24 359.381 410.899 359.922Z" fill="#2C2A40"/>
<path opacity="0.2" d="M412.135 380.8C413.254 384.611 413.878 387.692 413.878 387.692C416.209 390.233 421.542 389.504 430.101 390.433C437.813 391.268 443.205 396.619 448.95 398.925C448.95 398.925 448.95 398.925 448.962 398.925C449.598 399.183 450.245 399.395 450.893 399.572C454.307 400.465 456.721 399.913 458.027 398.254L458.451 395.761C458.451 395.761 452.741 398.619 446.184 394.808C441.168 391.903 438.896 389.057 434.869 387.939C435.623 384.893 433.916 381.6 433.916 381.6C433.598 384.987 432.668 387.422 432.668 387.422C431.867 387.304 431.031 387.269 430.113 387.316C423.567 387.622 413.348 384.481 412.135 380.8Z" fill="#2C2A40"/>
<path d="M29.5041 320.367C31.5055 320.25 33.1538 319.238 34.5666 317.756C34.6137 317.709 34.6607 317.662 34.6961 317.615C37.1685 314.969 38.9344 310.922 40.6887 307.888C41.1949 306.994 41.7129 306.182 42.2427 305.524C43.891 303.442 46.7754 297.973 49.2832 292.915C49.4127 292.656 49.5422 292.409 49.6599 292.151C52.097 287.211 54.0984 282.894 54.0984 282.894C54.0984 282.894 53.1683 280.189 51.6967 277.401C51.2375 276.543 50.7313 275.684 50.1897 274.896C49.0948 273.308 47.8233 271.991 46.4576 271.579C42.231 270.274 38.3105 273.085 35.0493 276.86C31.8587 280.565 23.0876 296.197 21.6631 302.689C21.6277 302.83 21.6042 302.96 21.5806 303.089C20.109 311.252 22.8875 320.744 29.5041 320.367Z" fill="#B0B1CA"/>
<path d="M29.504 320.367C31.5644 320.25 33.2597 319.167 34.7078 317.615C30.1045 319.814 27.3024 318.485 25.6895 316.662C23.6763 314.38 22.911 308.123 23.4408 305.477C24.7241 299.043 29.4923 288.951 31.9176 284.929C34.3429 280.906 39.1581 274.285 43.8321 273.638C46.5047 273.261 48.7651 274.108 50.2132 274.896C49.1183 273.308 47.8468 271.991 46.4811 271.579C42.2545 270.274 38.334 273.085 35.0728 276.86C31.8234 280.648 22.7344 296.879 21.6042 303.089C20.109 311.252 22.8875 320.744 29.504 320.367Z" fill="#2C2A40"/>
<path opacity="0.2" d="M29.5038 320.367C31.5053 320.25 33.1536 319.238 34.5664 317.756C34.6135 317.709 34.6605 317.662 34.6959 317.615C37.1683 314.969 38.9342 310.923 40.6885 307.888C41.1947 306.994 41.7127 306.183 42.2425 305.524C43.8908 303.442 46.7752 297.973 49.283 292.915C49.4125 292.657 49.542 292.41 49.6597 292.151C48.8709 291.222 47.8231 290.822 46.4574 291.198C46.4574 291.198 43.1726 294.221 40.0763 300.443C36.662 307.277 34.8725 313.769 28.4913 313.816C22.1102 313.875 23.264 309.688 22.4046 303.666C22.2868 302.831 22.016 302.548 21.6511 302.701C21.6158 302.842 21.5922 302.972 21.5687 303.101C20.1088 311.252 22.8873 320.744 29.5038 320.367Z" fill="#2C2A40"/>
<path d="M135.099 377.553C135.169 381.081 137.948 404.464 145.577 409.192C149.427 411.58 151.64 411.486 152.747 409.698C153.383 408.675 153.665 407.11 153.677 405.134C153.689 403.723 153.571 402.1 153.359 400.335C152.311 391.761 152.182 371.919 159.728 367.614C159.728 367.614 158.351 357.37 154.819 351.065C153.759 349.16 152.5 347.619 151.028 346.819C151.028 346.819 145.765 346.855 142.445 347.302C141.009 347.49 139.09 347.431 137.277 347.925C134.899 348.572 132.732 350.171 132.179 354.57C131.19 362.321 135.028 374.024 135.099 377.553Z" fill="#B0B1CA"/>
<path d="M135.099 377.553C135.169 381.081 137.948 404.464 145.577 409.192C149.427 411.58 151.64 411.485 152.747 409.698C150.804 409.78 148.108 409.133 145.695 407.063C142.375 404.217 138.207 388.162 138.454 382.987C138.701 377.811 136.559 368.39 134.687 361.157C133.262 355.688 135.911 350.242 137.277 347.925C134.899 348.572 132.732 350.171 132.179 354.57C131.19 362.321 135.028 374.024 135.099 377.553Z" fill="#2C2A40"/>
<path opacity="0.2" d="M135.099 377.553C135.169 381.081 137.948 404.464 145.577 409.192C149.427 411.58 151.64 411.486 152.747 409.698C153.382 408.675 153.665 407.11 153.677 405.134C152.217 405.464 150.027 404.911 147.496 403.488C143.022 400.982 142.139 387.28 142.775 378.235C143.422 369.19 138.007 362.086 141.115 356.393C144.223 350.701 154.501 351.983 154.501 351.983C154.619 351.665 154.725 351.359 154.807 351.065C153.747 349.16 152.488 347.619 151.016 346.819C151.016 346.819 145.753 346.855 142.433 347.302C140.997 347.49 139.078 347.431 137.265 347.925C134.887 348.572 132.72 350.171 132.167 354.57C131.19 362.321 135.028 374.024 135.099 377.553Z" fill="#2C2A40"/>
<path d="M135.769 129.779C135.769 129.779 89.8418 131.026 81.0707 152.162C72.3114 173.298 99.9198 233.836 114.801 241.093C129.683 248.362 150.663 239.493 157.774 231.989C164.885 224.509 153.053 136.166 135.769 129.779Z" fill="#2C2A40"/>
<path d="M107.09 186.107C107.09 186.107 107.019 194.646 103.523 203.926C103.523 203.926 102.499 210.125 100.897 217.793C99.0137 226.838 97.177 233.484 94.4692 238.976C92.1852 243.599 90.5251 248.045 89.3949 251.503C89.2536 251.926 89.1241 252.326 89.0064 252.714C87.935 256.172 87.4523 258.395 87.4523 258.395L77.3744 255.043C77.3744 255.043 76.7504 244.434 76.927 238.659C77.1507 231.496 76.3972 217.511 80.9888 205.926C81.3537 204.997 81.754 204.15 82.1779 203.397C82.1779 203.397 83.4729 191.976 85.3331 184.425C85.9571 181.92 86.6282 179.85 87.3463 178.756C87.3463 178.78 102.263 177.215 107.09 186.107Z" fill="#F9B587"/>
<path d="M88.6885 204.455C88.6885 204.455 82.8254 204.514 80.9888 205.937C81.3537 205.008 81.754 204.161 82.1779 203.409C82.1779 203.409 86.687 203.15 88.6885 204.455Z" fill="#F39568"/>
<path d="M107.09 186.107C107.09 186.107 107.019 194.646 103.523 203.926C103.523 203.926 102.498 210.125 100.897 217.794C101.521 212.019 101.086 201.645 101.203 194.082C101.286 188.918 96.6354 187.707 92.5618 186.249C90.8664 185.637 87.5464 185.014 85.5802 184.367C85.4978 184.343 85.4154 184.425 85.333 184.449C85.957 181.944 86.6281 179.874 87.3462 178.78C87.3462 178.78 102.263 177.215 107.09 186.107Z" fill="#F39568"/>
<path d="M85.9569 250.573L95.611 257.407C96.6353 258.136 97.2475 259.3 97.271 260.547L97.4241 269.839C97.4476 270.945 96.5646 271.862 95.4462 271.874C94.5161 271.886 93.7037 271.262 93.4683 270.368L91.2431 261.618L88.9709 260.782L90.3954 266.005L92.1497 270.745L96.5529 276.249C97.1886 277.049 97.0356 278.225 96.1997 278.825C95.4697 279.354 94.469 279.26 93.8568 278.613L88.0526 272.591L84.1674 267.84L87.2167 273.815L93.1033 282.601C93.4918 283.177 93.4918 283.941 93.1033 284.518C92.5029 285.412 91.2313 285.529 90.4661 284.776L84.085 278.437L80.4588 272.791L83.6494 282.753L86.4749 289.128C86.7928 289.834 86.5338 290.657 85.8745 291.069C85.1446 291.516 84.1909 291.293 83.7435 290.575L79.6464 283.953L76.6914 276.273L78.5986 282.883L79.6464 285.141C79.8701 285.612 79.6582 286.164 79.1873 286.388C78.7752 286.576 78.2925 286.447 78.0335 286.082L76.4677 283.918L74.1719 278.437L77.4213 254.96C77.4213 254.96 78.7752 251.749 85.9569 250.573Z" fill="#F9B587"/>
<path d="M89.0061 252.738C89.0061 252.738 86.0274 250.962 82.5308 251.409C82.5308 251.409 86.2982 249.986 89.3946 251.515L89.0061 252.738Z" fill="#F39568"/>
<path d="M180.991 111.926C191.269 91.6837 187.089 65.1021 186.359 58.3861C186.3 57.798 186.041 56.9747 185.606 55.975C181.709 46.7302 164.072 21.7952 160.058 16.1731C159.787 15.7967 159.575 15.5027 159.434 15.3027C159.304 15.1263 159.245 15.0322 159.245 15.0322L146.872 20.7837C146.872 20.7837 155.195 29.4757 158.456 40.3789C161.729 51.282 169.547 65.5843 169.547 65.5843C166.097 78.24 165.838 94.7888 165.838 94.7888C171.831 108.821 180.991 111.926 180.991 111.926Z" fill="#F9B587"/>
<path d="M180.991 111.925C191.269 91.6834 187.089 65.1017 186.359 58.3858C186.3 57.7977 186.041 56.9744 185.606 55.9746C185.594 56.3039 185.3 77.7104 183.91 84.6263C182.498 91.601 180.261 98.9169 176.187 99.8931C172.114 100.869 168.052 98.564 165.838 94.8002C171.831 108.82 180.991 111.925 180.991 111.925Z" fill="#F39568"/>
<path d="M159.198 16.0198C157.538 17.7723 150.356 22.6417 149.309 23.1121C148.944 23.2768 148.449 23.0416 147.966 22.6652C147.484 22.677 144.328 22.724 142.61 21.9007C141.668 21.442 141.715 20.1011 141.997 18.6779C139.725 18.0663 135.345 14.4672 135.499 11.1504C135.652 7.52778 139.549 7.36312 139.549 7.36312C139.725 3.21121 143.657 3.97573 143.657 3.97573C143.905 2.17618 147.213 1.44695 147.213 1.44695C147.59 -0.0820857 149.744 -0.30556 151.004 0.329576C152.264 0.964712 159.622 9.93895 159.916 11.5503C160.211 13.1734 159.198 16.0198 159.198 16.0198Z" fill="#F9B587"/>
<path d="M147.92 16.8198C148.414 18.9134 146.66 19.1369 146.66 19.1369C147.025 18.8782 147.013 17.9843 146.931 17.2197C146.931 17.2197 146.931 16.7022 146.754 16.0671C146.554 15.3849 146.142 14.5733 145.282 14.1617C143.728 13.4207 143.01 13.8794 143.01 13.8794L139.996 9.57459C141.585 10.5861 143.669 12.9502 143.669 12.9502C146.448 12.9032 147.425 14.9732 147.766 16.1024C148.308 16.0789 148.92 15.8554 149.156 15.1026C149.627 13.6089 148.661 12.1269 148.661 12.1269L144.482 6.26953C144.482 6.26953 150.251 11.9152 150.333 14.0558C150.427 16.9139 147.92 16.8198 147.92 16.8198Z" fill="#F39568"/>
<path d="M148.85 4.5752C148.85 4.5752 152.594 9.27991 153.076 10.5502C153.594 11.9381 152.688 13.2907 151.675 13.5377C150.663 13.7847 150.098 13.2554 150.098 13.2554L150.062 14.7021C150.062 14.7021 153.947 15.4078 154.006 11.7028C154.042 9.84447 148.85 4.5752 148.85 4.5752Z" fill="#F39568"/>
<path d="M153.782 10.8326C153.782 10.8326 154.701 11.7618 155.854 11.4207C157.008 11.0796 157.256 10.3151 157.008 9.60938C157.008 9.60938 157.679 10.3033 157.067 11.2913C156.267 12.5733 154.348 12.2911 153.747 12.1146L153.782 10.8326Z" fill="#F39568"/>
<path d="M157.715 17.7022C157.715 17.7022 159.128 17.4434 160.046 16.1614C159.775 15.785 159.563 15.491 159.422 15.291C159.434 15.291 158.869 16.526 157.715 17.7022Z" fill="#F39568"/>
<path d="M148.908 23.1475C148.908 23.1475 150.721 22.9946 151.746 22.3477C151.746 22.3477 150.792 23.5944 149.509 23.8884L148.908 23.1475Z" fill="#F39568"/>
<path d="M169.547 65.5838C169.547 65.5838 174.962 64.7605 176.811 63.2197C176.811 63.2197 174.833 67.8774 168.935 68.0421L169.547 65.5838Z" fill="#F39568"/>
<path d="M45.4566 299.49C47.6346 301.113 46.6339 301.478 48.7884 302.642C50.8723 303.771 56.3586 308.252 56.7 308.535C56.7118 308.546 56.7118 308.546 56.7118 308.546C71.0399 323.743 95.1751 347.384 108.267 349.183C120.605 350.877 138.983 316.321 150.721 290.951C150.851 290.763 155.631 283.717 162.789 285.787C170.03 287.893 196.731 312.922 209.011 319.261C209.011 319.261 192.54 320.108 187.16 327.001C181.779 333.893 166.78 340.491 164.061 341.574C161.341 342.667 159.916 341.444 157.385 343.114C154.854 344.784 151.028 346.843 151.028 346.843C150.922 354.523 153.794 361.169 159.41 367.838C159.41 367.838 161.753 366.579 163.99 365.909C167.11 364.991 173.679 363.262 174.845 361.11C176.01 358.957 216.593 350.43 216.593 350.43C216.593 350.43 247.769 344.255 250.194 329.482C252.619 314.698 189.314 248.279 189.314 248.279L184.417 226.979L161.565 230.754V230.742L119.864 233.894C119.864 233.894 112.729 253.043 110.716 270.321C109.374 281.882 101.709 309.346 101.709 309.346C101.709 309.346 94.6571 302.101 80.9294 296.232C77.421 294.726 73.8066 293.091 70.3688 291.492C70.3688 291.492 65.165 288.881 63.3519 286.364C61.5389 283.847 60.4322 284.811 58.466 284.223C56.4999 283.635 54.8516 281.259 53.533 281.494C52.2262 281.741 51.8377 282.388 51.8377 282.388C48.4941 285.529 46.9871 287.599 44.7619 295.291C44.7619 295.291 43.2667 297.867 45.4566 299.49Z" fill="#2C2A40"/>
<path d="M82.7541 303.83L82.2832 304.571C83.2604 305.194 84.3082 305.924 85.3913 306.747L85.9212 306.041C84.8145 305.206 83.7549 304.453 82.7541 303.83Z" fill="#5B5B6C"/>
<path d="M77.0327 300.726L76.6206 301.502C77.5625 301.996 78.469 302.466 79.3167 302.878C79.5522 302.996 79.7876 303.113 80.0349 303.243L80.4469 302.466C80.1997 302.337 79.9524 302.208 79.7052 302.09C78.8693 301.678 77.9628 301.22 77.0327 300.726Z" fill="#5B5B6C"/>
<path d="M70.9458 298.338C72.076 299.008 73.1945 299.643 74.2776 300.243L74.7015 299.467C73.6301 298.867 72.5116 298.232 71.3814 297.573L70.9458 298.338Z" fill="#5B5B6C"/>
<path d="M87.4756 308.359C88.3939 309.1 89.3475 309.9 90.3954 310.805L90.9722 310.135C89.9126 309.218 88.9472 308.418 88.0289 307.665L87.4756 308.359Z" fill="#5B5B6C"/>
<path d="M97.7888 316.216L97.2119 316.874C98.4717 317.98 99.3076 318.651 99.9198 319.05C100.061 319.145 100.202 319.215 100.344 319.286L100.72 318.486C100.614 318.439 100.508 318.38 100.402 318.309C99.8256 317.945 99.025 317.298 97.7888 316.216Z" fill="#5B5B6C"/>
<path d="M102.839 318.333L103.263 319.109C104.193 318.591 105.135 317.639 106.077 316.274L105.347 315.78C104.499 317.027 103.652 317.886 102.839 318.333Z" fill="#5B5B6C"/>
<path d="M92.9734 311.888L92.3848 312.546C93.2207 313.287 94.0212 314.005 94.7747 314.687L95.2339 315.099L95.8226 314.44L95.3634 314.04C94.6099 313.358 93.8093 312.64 92.9734 311.888Z" fill="#5B5B6C"/>
<path d="M65.4121 294.938C66.4599 295.609 67.5548 296.291 68.6733 296.973L69.1325 296.22C68.0258 295.55 66.9309 294.868 65.8948 294.197L65.4121 294.938Z" fill="#5B5B6C"/>
<path d="M50.1188 285.765C49.8951 286.023 49.6714 286.294 49.4595 286.564C50.1541 286.659 51.1666 286.823 52.2615 287.082L52.4617 286.223C51.5904 286.012 50.7663 285.859 50.1188 285.765Z" fill="#5B5B6C"/>
<path d="M55.0634 286.976L54.7573 287.799C56.0524 288.281 57.0413 288.834 57.7006 289.446C57.7595 289.504 57.8302 289.563 57.9008 289.622L58.4895 288.963C58.4188 288.905 58.3599 288.846 58.3011 288.799C57.5594 288.116 56.4645 287.493 55.0634 286.976Z" fill="#5B5B6C"/>
<path d="M60.538 290.587L60.02 291.304C60.9148 291.963 61.9862 292.692 63.187 293.492L63.6815 292.763C62.4806 291.963 61.421 291.234 60.538 290.587Z" fill="#5B5B6C"/>
<path d="M118.51 263.37L119.369 263.593C119.699 262.358 120.029 261.123 120.358 259.9L119.51 259.665C119.157 260.888 118.828 262.135 118.51 263.37Z" fill="#5B5B6C"/>
<path d="M120.205 257.101L121.053 257.337C121.394 256.102 121.747 254.867 122.101 253.655L121.253 253.408C120.9 254.631 120.547 255.866 120.205 257.101Z" fill="#5B5B6C"/>
<path d="M115.425 275.967L116.285 276.155C116.556 274.955 116.838 273.697 117.144 272.427L116.285 272.227C115.979 273.497 115.696 274.755 115.425 275.967Z" fill="#5B5B6C"/>
<path d="M116.909 269.65L117.768 269.862C118.062 268.662 118.38 267.416 118.698 266.157L117.839 265.934C117.509 267.192 117.203 268.439 116.909 269.65Z" fill="#5B5B6C"/>
<path d="M121.995 250.867L122.842 251.114C123.207 249.867 123.572 248.644 123.937 247.444L123.09 247.186C122.725 248.385 122.36 249.62 121.995 250.867Z" fill="#5B5B6C"/>
<path d="M106.678 313.546L107.467 313.957C108.008 312.911 108.55 311.723 109.068 310.429L108.244 310.1C107.737 311.37 107.208 312.523 106.678 313.546Z" fill="#5B5B6C"/>
<path d="M125.88 238.482L126.716 238.764C127.163 237.447 127.587 236.236 127.976 235.153L127.151 234.848C126.751 235.942 126.327 237.165 125.88 238.482Z" fill="#5B5B6C"/>
<path d="M123.878 244.657L124.726 244.916C125.115 243.657 125.515 242.434 125.892 241.27L125.056 240.999C124.667 242.163 124.267 243.398 123.878 244.657Z" fill="#5B5B6C"/>
<path d="M109.15 307.641L109.986 307.923C110.386 306.759 110.775 305.524 111.128 304.242L110.28 304.007C109.915 305.265 109.538 306.489 109.15 307.641Z" fill="#5B5B6C"/>
<path d="M114.106 282.33L114.978 282.495C115.201 281.319 115.449 280.06 115.731 278.743L114.872 278.566C114.577 279.884 114.33 281.154 114.106 282.33Z" fill="#5B5B6C"/>
<path d="M110.939 301.455L111.799 301.667C112.105 300.444 112.376 299.173 112.635 297.915L111.764 297.738C111.516 298.997 111.234 300.244 110.939 301.455Z" fill="#5B5B6C"/>
<path d="M112.234 295.15L113.106 295.292C113.318 294.021 113.506 292.751 113.659 291.493L112.788 291.387C112.635 292.633 112.446 293.904 112.234 295.15Z" fill="#5B5B6C"/>
<path d="M113.082 288.752L113.953 288.858C114.095 287.729 114.271 286.459 114.507 285.094L113.635 284.953C113.412 286.329 113.223 287.611 113.082 288.752Z" fill="#5B5B6C"/>
<path d="M167.004 281.436C165.685 281.401 164.367 281.589 163.095 281.977L163.354 282.824C164.543 282.459 165.768 282.283 166.98 282.318L167.004 281.436Z" fill="#5B5B6C"/>
<path d="M172.938 284.059L173.373 283.294C173.02 283.094 172.691 282.918 172.373 282.777C171.501 282.365 170.607 282.048 169.724 281.824L169.512 282.683C170.336 282.895 171.172 283.189 172.008 283.577C172.29 283.706 172.596 283.871 172.938 284.059Z" fill="#5B5B6C"/>
<path d="M175.222 340.457L175.61 341.245C176.764 340.668 177.918 340.08 179.036 339.504L178.624 338.728C177.517 339.304 176.364 339.892 175.222 340.457Z" fill="#5B5B6C"/>
<path d="M180.967 337.481L181.391 338.257C182.58 337.61 183.71 336.975 184.735 336.363L184.287 335.599C183.263 336.198 182.145 336.834 180.967 337.481Z" fill="#5B5B6C"/>
<path d="M186.536 334.234L187.007 334.975C188.326 334.14 189.397 333.388 190.198 332.764L189.644 332.082C188.879 332.694 187.831 333.411 186.536 334.234Z" fill="#5B5B6C"/>
<path d="M153.135 351.595C153.924 351.042 154.701 350.537 155.443 350.078L154.972 349.325C154.312 349.737 153.641 350.172 152.947 350.654C153.017 350.972 153.076 351.289 153.135 351.595Z" fill="#5B5B6C"/>
<path d="M157.303 347.996L157.715 348.772C158.986 348.102 160.152 347.608 161.153 347.302L160.894 346.455C159.846 346.773 158.633 347.29 157.303 347.996Z" fill="#5B5B6C"/>
<path d="M180.226 289.422C181.12 290.163 182.098 290.998 183.134 291.904L183.71 291.234C182.663 290.328 181.685 289.493 180.791 288.74L180.226 289.422Z" fill="#5B5B6C"/>
<path d="M163.425 345.691L163.719 346.526C164.732 346.161 165.944 345.691 167.31 345.114L166.969 344.303C165.615 344.867 164.414 345.338 163.425 345.691Z" fill="#5B5B6C"/>
<path d="M169.382 343.233L169.747 344.032C170.866 343.527 172.043 342.985 173.232 342.409L172.855 341.609C171.655 342.186 170.489 342.727 169.382 343.233Z" fill="#5B5B6C"/>
<path d="M160.046 284.411C160.34 284.223 160.658 284.023 161 283.835L160.576 283.059C159.952 283.4 159.41 283.753 158.963 284.082C159.328 284.199 159.693 284.305 160.046 284.411Z" fill="#5B5B6C"/>
<path d="M175.634 284.741L175.127 285.459C176.022 286.094 177.046 286.858 178.165 287.74L178.718 287.047C177.588 286.164 176.552 285.388 175.634 284.741Z" fill="#5B5B6C"/>
<path d="M213.709 323.908C213.285 324.226 212.284 324.59 210.636 325.037L210.871 325.884C212.673 325.39 213.72 325.002 214.25 324.602C214.356 324.52 214.462 324.437 214.568 324.343L213.991 323.685C213.885 323.767 213.803 323.837 213.709 323.908Z" fill="#5B5B6C"/>
<path d="M205.102 310.158L204.549 310.84C205.726 311.793 206.739 312.546 207.633 313.169L208.128 312.44C207.257 311.84 206.268 311.087 205.102 310.158Z" fill="#5B5B6C"/>
<path d="M210.377 313.78L210.353 313.769L209.977 314.568L210.012 314.58C211.26 315.168 212.308 315.815 213.132 316.509L213.697 315.839C212.802 315.086 211.684 314.392 210.377 313.78Z" fill="#5B5B6C"/>
<path d="M215.522 317.921L214.756 318.368C215.051 318.874 215.251 319.391 215.345 319.909C215.451 320.508 215.416 321.12 215.251 321.696L216.099 321.943C216.31 321.226 216.346 320.485 216.216 319.756C216.098 319.132 215.863 318.521 215.522 317.921Z" fill="#5B5B6C"/>
<path d="M206.174 326.142C205.573 326.283 204.961 326.425 204.337 326.577L204.549 327.436C205.173 327.283 205.785 327.142 206.385 327.001C207.045 326.848 207.681 326.695 208.281 326.554L208.069 325.695C207.469 325.836 206.833 325.989 206.174 326.142Z" fill="#5B5B6C"/>
<path d="M198.05 328.236L198.309 329.083C199.404 328.754 200.605 328.424 201.983 328.071L201.759 327.213C200.37 327.566 199.157 327.907 198.05 328.236Z" fill="#5B5B6C"/>
<path d="M191.928 330.577L192.34 331.353C193.282 330.859 194.448 330.365 195.802 329.883L195.507 329.048C194.094 329.565 192.929 330.059 191.928 330.577Z" fill="#5B5B6C"/>
<path d="M192.552 299.149C191.881 298.538 191.21 297.926 190.539 297.314L189.95 297.973C190.621 298.585 191.292 299.196 191.963 299.796L192.788 300.537L193.376 299.879L192.552 299.149Z" fill="#5B5B6C"/>
<path d="M194.742 302.325C195.707 303.195 196.661 304.054 197.591 304.889L198.179 304.23C197.249 303.395 196.296 302.536 195.33 301.666L194.742 302.325Z" fill="#5B5B6C"/>
<path d="M203.054 308.476C202.171 307.735 201.217 306.912 200.157 305.982L199.581 306.641C200.652 307.582 201.594 308.394 202.489 309.146L203.054 308.476Z" fill="#5B5B6C"/>
<path d="M188.561 295.539C187.595 294.668 186.642 293.821 185.7 292.986L185.111 293.645C186.053 294.48 187.007 295.327 187.96 296.197L188.561 295.539Z" fill="#5B5B6C"/>
<path d="M192.87 246.774C192.87 246.774 151.075 260.371 128.505 254.278C126.822 253.82 113.094 251.044 113.094 251.044C113.094 251.044 120.841 221.663 118.675 202.15C118.109 196.975 116.885 186.766 113.224 177.498C111.917 174.181 110.575 170.805 109.256 167.524C105.335 157.808 101.686 148.952 100.073 145.07C103.428 142.753 106.171 142.153 106.807 142.036C106.901 142.024 106.937 142.024 106.937 142.024C110.645 141.401 115.378 140.424 120.429 138.907H120.441C126.939 136.931 133.968 134.061 140.055 129.874L145.706 126.734L151.64 123.429C151.64 123.429 158.939 126.063 166.521 136.884C164.567 139.201 162.471 141.342 160.222 143.188C163.566 145.282 166.356 146.27 166.356 146.27C167.804 145.459 169.17 144.459 170.465 143.294C175.269 152.186 179.672 164.865 181.826 182.802C183.769 199.092 187.195 218.099 189.726 231.143C191.528 240.494 192.87 246.774 192.87 246.774Z" fill="#2E6D48"/>
<path d="M131.625 145.776C123.878 145.117 122.1 141.424 120.44 138.907C126.939 136.931 133.968 134.061 140.055 129.874L143.763 127.792C144.823 127.792 147.437 129.744 147.437 133.649C147.437 138.907 141.927 146.658 131.625 145.776Z" fill="#2C2A40"/>
<path opacity="0.2" d="M156.408 156.961L170.006 150.88C170.006 150.88 180.579 166.747 171.961 169.852C162.695 173.18 156.408 156.961 156.408 156.961Z" fill="#2C2A40"/>
<path d="M141.892 91.342C141.892 91.342 147.602 87.0254 145.259 78.357C145.259 78.357 143.34 81.6503 141.597 81.9796C141.597 81.9796 146.012 70.0414 132.52 63.396C132.52 63.396 134.098 69.9591 132.497 72.1468C132.497 72.1468 128.929 64.5487 123.655 62.9844C123.655 62.9844 124.444 76.2869 116.191 78.9804C110.304 80.8976 102.687 87.7312 100.591 98.9636C100.591 98.9636 97.1651 97.9757 95.8936 99.3165C95.8936 99.3165 100.273 100.057 100.885 102.845C100.885 102.845 99.0488 101.916 97.6595 103.092C97.6595 103.092 100.756 103.727 101.239 106.15C101.721 108.573 113.448 127.086 120.523 130.168C127.587 133.273 141.892 91.342 141.892 91.342Z" fill="#2C2A40"/>
<path d="M123.584 132.99L124.526 138.424C124.761 139.8 125.786 140.929 127.14 141.282C138.842 144.328 143.999 137.059 144.588 134.248C143.081 133.649 116.273 122.816 111.881 112.536C111.881 112.536 114.707 126.344 123.584 132.99Z" fill="#F9B587"/>
<path d="M145.271 102.715C146.236 104.056 146.966 105.538 147.437 107.103C147.849 108.455 148.061 109.867 148.061 111.29L148.108 120.781C148.12 124.31 145.883 127.462 142.539 128.603C138.701 129.909 133.333 131.026 127.834 129.826C117.45 127.568 112.482 115.006 112.482 115.006C112.482 115.006 108.149 101.974 116.862 92.9884C122.89 86.7664 130.99 85.5432 135.393 85.3785C137.277 85.308 139.054 86.296 139.973 87.9426L143.305 93.8941C143.575 94.3645 143.811 94.8468 144.011 95.3408C144.717 96.9992 145.118 98.7752 145.176 100.598L145.271 102.715Z" fill="#F9B587"/>
<path d="M132.944 96.6577C132.944 96.6577 124.703 93.1762 122.654 100.022L123.926 101.068C123.926 101.068 126.657 95.8344 133.227 98.469L132.944 96.6577Z" fill="#2C2A40"/>
<path d="M145.27 102.715C146.236 104.056 146.966 105.538 147.437 107.103C145.8 106.691 142.927 106.95 138.03 109.678C138.03 109.678 139.925 106.338 142.68 105.197C143.422 104.891 143.657 103.962 143.139 103.339L139.737 99.2104C139.737 99.2104 139.925 98.046 140.961 97.2344C141.597 96.7404 142.916 95.9171 144.034 95.3525C144.741 97.0109 145.141 98.787 145.2 100.61L145.27 102.715Z" fill="#F39568"/>
<path d="M143.21 94.0236C141.256 94.9411 139.855 96.1525 139.855 96.1525L140.279 97.7639C141.527 96.7171 142.728 96.0584 143.834 95.6703C144.388 95.4703 144.67 94.894 144.458 94.4118C144.458 94.4118 144.458 94.4 144.447 94.4C144.258 93.9648 143.693 93.7884 143.21 94.0236Z" fill="#2C2A40"/>
<path d="M145.8 111.02L131.107 115.23C131.107 115.23 135.734 122.229 143.187 119.088C149.038 116.618 145.8 111.02 145.8 111.02Z" fill="white"/>
<path d="M141.609 128.686C141.609 128.686 132.402 131.026 122.878 120.664C122.878 120.664 122.454 126.027 127.563 131.497C132.673 136.966 144.588 134.249 144.588 134.249L141.609 128.686Z" fill="#F39568"/>
<path d="M115.319 111.513C115.319 111.513 110.657 107.479 107.655 111.29C104.653 115.101 111.375 125.851 116.179 121.464C120.971 117.077 115.319 111.513 115.319 111.513Z" fill="#F9B587"/>
<path d="M132.944 101.834C132.944 101.834 131.119 99.6342 128.859 100.505C125.55 101.775 126.009 104.821 126.009 104.821C126.009 104.821 127.481 99.1637 132.944 101.834Z" fill="#2C2A40"/>
<path d="M141.067 100.692C141.067 100.692 142.28 97.093 144.917 99.8452C144.917 99.8452 142.563 98.3397 141.067 100.692Z" fill="#2C2A40"/>
<path d="M113.518 96.8935C113.518 96.8935 117.097 101.21 114.189 105.715L117.191 112.631L114.083 113.431L111.493 109.596L109.492 99.681C109.492 99.681 111.905 95.1527 113.518 96.8935Z" fill="#2C2A40"/>
<path d="M189.102 103.727C189.102 103.727 188.726 105.609 187.948 108.597C185.417 118.241 178.624 139.401 166.356 146.27C166.356 146.27 163.566 145.282 160.222 143.188C155.054 139.954 148.579 134.108 149.167 125.263C149.167 125.263 159.693 107.797 164.155 95.5059C164.567 94.3886 164.92 93.3065 165.214 92.2832L184.781 101.657L189.102 103.727Z" fill="#2E6D48"/>
<path d="M189.102 103.727C189.102 103.727 188.726 105.609 187.949 108.597C183.357 105.045 168.77 97.7759 164.155 95.5059C164.567 94.3886 164.92 93.3065 165.214 92.2832L184.782 101.657L189.102 103.727Z" fill="#2C2A40"/>
<path opacity="0.2" d="M189.103 103.727C189.103 103.727 183.569 131.52 170.466 143.294C169.17 140.895 167.84 138.766 166.521 136.884C176.493 125.004 182.604 108.303 184.782 101.657L189.103 103.727Z" fill="#2C2A40"/>
<path d="M115.201 160.372C114.836 162.677 114.389 164.253 114.389 164.253L113.224 177.497L111.905 190.247L111.528 193.94C109.303 197.057 101.768 197.339 94.6453 196.822V196.81C87.1693 196.269 80.1406 194.834 80.1406 194.834C80.1406 194.834 80.329 193.399 80.7528 190.941C81.7653 185.013 84.1553 173.11 88.6527 160.901C91.8079 152.362 96.3171 147.646 100.073 145.07C103.428 142.753 106.171 142.153 106.807 142.035C106.901 142.023 106.937 142.023 106.937 142.023C116.614 142.929 116.167 154.244 115.201 160.372Z" fill="#2E6D48"/>
<path d="M111.905 190.247L111.528 193.94C109.303 197.057 101.768 197.339 94.6453 196.822V196.81C87.1693 196.269 80.1406 194.834 80.1406 194.834C80.1406 194.834 80.329 193.399 80.7528 190.941C83.8727 191.764 91.3017 192.835 97.9065 192.917C105.335 193.011 109.644 191.259 111.905 190.247Z" fill="#2C2A40"/>
<path d="M141.715 128.944C141.715 128.944 156.997 126.616 166.698 135.237C176.411 143.87 186.041 161.972 180.178 172.828L182.556 188.565C182.556 188.565 198.533 163.489 181.391 139.189C169.853 122.84 155.101 122.44 147.649 123.546C146.836 125.875 145.011 127.627 142.586 128.462L141.715 128.944Z" fill="#2C2A40"/>
<path d="M104.865 142.576C104.865 142.576 109.244 132.59 117.392 133.743C125.55 134.896 149.968 168.04 144.8 192.411C139.631 216.781 118.522 219.381 118.522 219.381C118.522 219.381 114.436 213.194 119.028 207.442C119.028 207.442 132.897 204.043 136.641 188.177C140.385 172.31 121.512 140.118 114.578 139.13C112.082 138.777 110.21 141.423 110.21 141.423C110.21 141.423 107.278 142.223 104.865 142.576Z" fill="#2C2A40"/>
<path opacity="0.2" d="M192.87 246.774C192.87 246.774 151.063 260.37 128.505 254.278C126.822 253.819 113.094 251.055 113.094 251.055C113.094 251.055 120.853 221.662 118.686 202.15C118.11 196.974 116.885 186.765 113.235 177.497L111.54 193.952C109.315 197.057 101.78 197.351 94.6572 196.821C94.6572 196.821 106.03 190.776 107.255 177.191C107.608 173.239 108.373 170.063 109.268 167.535C111.458 161.383 114.46 159.137 114.46 159.137C114.46 159.137 114.742 159.584 115.202 160.383C117.415 164.171 123.843 175.838 124.585 185.248C125.503 196.633 129.106 220.874 146.695 235.235C156.479 243.222 189.173 241.975 189.703 231.472C189.703 231.366 189.715 231.26 189.726 231.154C191.528 240.493 192.87 246.774 192.87 246.774Z" fill="#2C2A40"/>
</svg>
