<svg width="96" height="35" viewBox="0 0 96 35" fill="none" xmlns="http://www.w3.org/2000/svg">
<rect opacity="0.1" y="0.0913086" width="96" height="34" rx="17" fill="#D1222A"/>
<path d="M17.5228 18.1056C17.562 18.8063 17.7274 19.3753 18.0189 19.8125C18.5739 20.631 19.5521 21.0402 20.9536 21.0402C21.5814 21.0402 22.1532 20.9505 22.6689 20.7711C23.6668 20.4236 24.1657 19.8013 24.1657 18.9044C24.1657 18.2317 23.9555 17.7524 23.535 17.4665C23.109 17.1862 22.4419 16.9424 21.5338 16.735L19.8604 16.3566C18.7673 16.1099 17.9937 15.838 17.5396 15.5409C16.7548 15.0252 16.3624 14.2544 16.3624 13.2285C16.3624 12.1186 16.7464 11.2076 17.5144 10.4957C18.2824 9.78375 19.3699 9.42778 20.777 9.42778C22.0719 9.42778 23.1707 9.74171 24.0732 10.3696C24.9813 10.9918 25.4354 11.9896 25.4354 13.3631H23.863C23.7789 12.7016 23.5995 12.1942 23.3248 11.8411C22.8147 11.1964 21.9486 10.8741 20.7265 10.8741C19.7399 10.8741 19.0308 11.0815 18.5991 11.4963C18.1675 11.9112 17.9517 12.3933 17.9517 12.9426C17.9517 13.5481 18.2039 13.9909 18.7084 14.2712C19.0392 14.4506 19.7876 14.6748 20.9536 14.9439L22.6858 15.3391C23.521 15.5297 24.1657 15.7904 24.6198 16.1211C25.4046 16.6985 25.797 17.5366 25.797 18.6353C25.797 20.0031 25.2981 20.9814 24.3002 21.57C23.308 22.1586 22.1532 22.4529 20.8358 22.4529C19.2998 22.4529 18.0974 22.0605 17.2285 21.2757C16.3596 20.4965 15.9336 19.4398 15.9504 18.1056H17.5228ZM33.6266 13.0856H35.3C35.0869 13.663 34.6132 14.9803 33.8789 17.0377C33.3295 18.5849 32.8698 19.8462 32.4999 20.8216C31.6253 23.12 31.0087 24.5214 30.6499 25.026C30.2912 25.5305 29.6745 25.7827 28.8 25.7827C28.587 25.7827 28.4216 25.7743 28.3039 25.7575C28.1918 25.7407 28.0516 25.7099 27.8835 25.665V24.286C28.1469 24.3589 28.3375 24.4037 28.4553 24.4205C28.573 24.4373 28.6767 24.4457 28.7664 24.4457C29.0467 24.4457 29.2513 24.3981 29.3802 24.3028C29.5148 24.2131 29.6269 24.101 29.7166 23.9665C29.7446 23.9216 29.8455 23.6918 30.0193 23.2769C30.1931 22.8621 30.3192 22.5538 30.3977 22.352L27.0678 13.0856H28.7832L31.1965 20.418L33.6266 13.0856ZM37.7985 19.266C37.8433 19.7705 37.9694 20.1573 38.1769 20.4264C38.5581 20.9141 39.2195 21.1579 40.1613 21.1579C40.7219 21.1579 41.2152 21.0374 41.6412 20.7964C42.0673 20.5497 42.2803 20.1713 42.2803 19.6612C42.2803 19.2744 42.1093 18.9801 41.7674 18.7783C41.5488 18.6549 41.1171 18.512 40.4724 18.3494L39.27 18.0467C38.502 17.8561 37.9358 17.6431 37.5714 17.4077C36.9212 16.9984 36.596 16.4322 36.596 15.7091C36.596 14.857 36.9015 14.1675 37.5126 13.6405C38.1292 13.1136 38.9561 12.8501 39.9931 12.8501C41.3497 12.8501 42.328 13.2481 42.9278 14.0442C43.3034 14.5487 43.4856 15.0925 43.4744 15.6755H42.0449C42.0168 15.3335 41.8963 15.0224 41.6833 14.7421C41.3357 14.3441 40.7331 14.1451 39.8754 14.1451C39.3036 14.1451 38.8692 14.2544 38.5721 14.473C38.2806 14.6916 38.1348 14.9803 38.1348 15.3391C38.1348 15.7315 38.3282 16.0454 38.715 16.2809C38.9392 16.421 39.27 16.5444 39.7072 16.6509L40.7079 16.8947C41.7954 17.1582 42.5242 17.4133 42.8941 17.6599C43.4828 18.0467 43.7771 18.6549 43.7771 19.4846C43.7771 20.2862 43.4715 20.9786 42.8605 21.5616C42.2551 22.1446 41.3301 22.4361 40.0856 22.4361C38.7458 22.4361 37.7957 22.1334 37.2351 21.5279C36.6801 20.9169 36.383 20.1629 36.3438 19.266H37.7985ZM46.099 10.5714H47.6294V13.0856H49.0673V14.3217H47.6294V20.1993C47.6294 20.5133 47.7359 20.7235 47.9489 20.83C48.0666 20.8917 48.2628 20.9225 48.5375 20.9225C48.6104 20.9225 48.6889 20.9225 48.773 20.9225C48.8571 20.9169 48.9552 20.9085 49.0673 20.8973V22.0913C48.8935 22.1418 48.7113 22.1782 48.5207 22.2006C48.3357 22.223 48.1339 22.2343 47.9153 22.2343C47.2089 22.2343 46.7296 22.0549 46.4774 21.6961C46.2251 21.3317 46.099 20.8608 46.099 20.2834V14.3217H44.8797V13.0856H46.099V10.5714ZM54.6266 12.8838C55.2656 12.8838 55.8851 13.0351 56.4849 13.3378C57.0847 13.6349 57.5416 14.0217 57.8555 14.4982C58.1582 14.9523 58.36 15.4821 58.4609 16.0875C58.5506 16.5023 58.5955 17.1638 58.5955 18.0719H51.9946C52.0227 18.9857 52.2385 19.7201 52.6421 20.275C53.0457 20.8244 53.6708 21.0991 54.5172 21.0991C55.3077 21.0991 55.9383 20.8384 56.4092 20.3171C56.6783 20.0144 56.8689 19.664 56.981 19.266H58.4693C58.4301 19.5967 58.2984 19.9667 58.0741 20.3759C57.8555 20.7795 57.6088 21.1103 57.3342 21.3682C56.8745 21.8166 56.3055 22.1193 55.6272 22.2763C55.2628 22.366 54.8508 22.4108 54.3911 22.4108C53.2699 22.4108 52.3198 22.0044 51.5406 21.1916C50.7613 20.3731 50.3717 19.2295 50.3717 17.7608C50.3717 16.3145 50.7641 15.1401 51.549 14.2376C52.3338 13.335 53.3596 12.8838 54.6266 12.8838ZM57.0399 16.8695C56.9782 16.2136 56.8352 15.6895 56.611 15.2971C56.1962 14.5683 55.5039 14.2039 54.5341 14.2039C53.8389 14.2039 53.2559 14.4562 52.785 14.9607C52.3142 15.4596 52.0647 16.0959 52.0367 16.8695H57.0399ZM60.7492 13.0856H62.246V14.3637C62.6047 13.9208 62.9299 13.5985 63.2214 13.3967C63.7203 13.0547 64.2865 12.8838 64.9199 12.8838C65.6375 12.8838 66.2149 13.0603 66.6521 13.4135C66.8988 13.6153 67.123 13.9124 67.3248 14.3048C67.6612 13.8227 68.0564 13.4668 68.5105 13.2369C68.9645 13.0015 69.4747 12.8838 70.0409 12.8838C71.2517 12.8838 72.0758 13.321 72.513 14.1955C72.7485 14.6664 72.8662 15.2999 72.8662 16.0959V22.0913H71.2938V15.8352C71.2938 15.2354 71.1424 14.8234 70.8397 14.5991C70.5426 14.3749 70.1782 14.2628 69.7465 14.2628C69.1523 14.2628 68.6394 14.4618 68.2078 14.8598C67.7817 15.2578 67.5687 15.9221 67.5687 16.8527V22.0913H66.0299V16.2136C66.0299 15.6026 65.957 15.1569 65.8113 14.8766C65.5814 14.4562 65.1526 14.246 64.5247 14.246C63.9529 14.246 63.4316 14.4674 62.9607 14.9103C62.4954 15.3531 62.2628 16.1548 62.2628 17.3152V22.0913H60.7492V13.0856ZM76.2812 19.266C76.3261 19.7705 76.4522 20.1573 76.6596 20.4264C77.0408 20.9141 77.7023 21.1579 78.6441 21.1579C79.2047 21.1579 79.698 21.0374 80.124 20.7964C80.5501 20.5497 80.7631 20.1713 80.7631 19.6612C80.7631 19.2744 80.5921 18.9801 80.2502 18.7783C80.0315 18.6549 79.5999 18.512 78.9552 18.3494L77.7528 18.0467C76.9848 17.8561 76.4186 17.6431 76.0542 17.4077C75.4039 16.9984 75.0788 16.4322 75.0788 15.7091C75.0788 14.857 75.3843 14.1675 75.9953 13.6405C76.612 13.1136 77.4388 12.8501 78.4759 12.8501C79.8325 12.8501 80.8107 13.2481 81.4106 14.0442C81.7862 14.5487 81.9683 15.0925 81.9571 15.6755H80.5276C80.4996 15.3335 80.3791 15.0224 80.1661 14.7421C79.8185 14.3441 79.2159 14.1451 78.3582 14.1451C77.7864 14.1451 77.352 14.2544 77.0548 14.473C76.7633 14.6916 76.6176 14.9803 76.6176 15.3391C76.6176 15.7315 76.811 16.0454 77.1978 16.2809C77.422 16.421 77.7528 16.5444 78.19 16.6509L79.1907 16.8947C80.2782 17.1582 81.0069 17.4133 81.3769 17.6599C81.9655 18.0467 82.2598 18.6549 82.2598 19.4846C82.2598 20.2862 81.9543 20.9786 81.3433 21.5616C80.7379 22.1446 79.8129 22.4361 78.5684 22.4361C77.2286 22.4361 76.2784 22.1334 75.7179 21.5279C75.1629 20.9169 74.8658 20.1629 74.8265 19.266H76.2812Z" fill="#D1222A"/>
</svg>
