<svg width="51" height="42" viewBox="0 0 51 42" fill="none" xmlns="http://www.w3.org/2000/svg">
<path d="M50.3801 10.2854C49.4801 10.7754 48.6101 11.3254 47.6801 11.7254C47.1001 11.9754 46.8101 12.1854 46.8201 12.8954C46.8601 17.1554 46.8501 21.4254 46.8301 25.6854C46.8301 26.2054 46.9701 26.4854 47.4501 26.7454C48.9901 27.5754 49.8001 28.9154 49.7801 30.6754C49.7601 32.3854 48.9601 33.6954 47.4601 34.5054C46.9801 34.7654 46.8201 35.0354 46.8301 35.5654C46.8601 37.1054 46.8501 38.6454 46.8401 40.1854C46.8301 41.2454 46.2501 41.9254 45.3801 41.9354C44.5001 41.9454 43.9101 41.2754 43.9001 40.2154C43.8901 38.6754 43.8801 37.1354 43.9101 35.5954C43.9201 35.0854 43.7901 34.7954 43.3101 34.5254C40.1201 32.7154 40.1501 28.5654 43.3301 26.6854C43.5801 26.5354 43.8801 26.1854 43.8801 25.9254C43.9101 21.7554 43.9001 17.5954 43.8901 13.4254C43.8901 13.3654 43.8501 13.3054 43.7901 13.1554C42.6601 13.5554 41.5101 13.9254 40.4001 14.3954C40.1701 14.4854 40.0001 14.9454 40.0001 15.2454C39.9701 18.0354 39.9501 20.8254 40.0001 23.6054C40.0301 24.8954 39.5001 25.8054 38.4801 26.4954C36.5101 27.8354 34.2701 28.4454 31.9801 28.8754C26.0801 29.9854 20.2401 29.7854 14.5201 27.8054C13.9301 27.6054 13.3701 27.3254 12.8101 27.0554C11.1301 26.2354 10.2301 25.0354 10.3401 23.0154C10.4901 20.4354 10.3601 17.8354 10.3901 15.2454C10.4001 14.6454 10.1901 14.3854 9.64012 14.1954C6.89012 13.2454 4.15012 12.2354 1.40012 11.2854C0.630117 11.0254 0.0101174 10.6554 0.000117427 9.75542C-0.00988257 8.84542 0.620117 8.47542 1.39012 8.20542C9.05012 5.50542 16.7001 2.78542 24.3701 0.125416C24.8801 -0.0545842 25.5601 -0.0345842 26.0701 0.145416C33.7001 2.79542 41.3301 5.48542 48.9401 8.20542C49.4801 8.39542 49.9001 8.92542 50.3801 9.29542C50.3801 9.62542 50.3801 9.95542 50.3801 10.2854ZM5.89012 9.75542C12.3601 12.0554 18.5601 14.2554 24.7601 16.4254C25.1101 16.5454 25.5901 16.4554 25.9701 16.3254C30.6001 14.6954 35.2301 13.0454 39.8501 11.4054C41.3001 10.8854 42.7501 10.3554 44.3601 9.77542C44.0101 9.62542 43.8501 9.52542 43.6701 9.46542C37.7101 7.36542 31.7601 5.25542 25.7901 3.18542C25.3801 3.04542 24.8201 3.09542 24.3901 3.24542C20.9201 4.43542 17.4701 5.67542 14.0201 6.89542C11.4101 7.81542 8.79012 8.73542 5.89012 9.75542ZM13.3301 15.5354C13.3301 17.7954 13.3301 19.8854 13.3301 21.9854C13.3301 24.2554 13.3301 24.2554 15.4801 25.0454C15.5101 25.0554 15.5401 25.0654 15.5701 25.0754C20.4901 26.7454 25.5301 27.0154 30.6001 26.1054C32.5401 25.7554 34.4101 24.9954 36.3001 24.3654C36.6001 24.2654 36.9801 23.8354 36.9801 23.5454C37.0301 20.9254 37.0101 18.3054 37.0101 15.5854C36.6101 15.7154 36.3001 15.8054 36.0001 15.9054C32.8501 17.0254 29.7001 18.1154 26.5701 19.2754C25.5801 19.6454 24.7101 19.6154 23.7301 19.2554C20.3501 17.9954 16.9201 16.8054 13.3301 15.5354ZM46.8301 30.5954C46.8101 29.7754 46.1301 29.1354 45.3001 29.1654C44.5101 29.1954 43.8901 29.8254 43.8801 30.6154C43.8701 31.4354 44.5501 32.1254 45.3601 32.1154C46.1701 32.1154 46.8501 31.4154 46.8301 30.5954Z" fill="#F9AA1B"/>
</svg>
