<svg width="35" height="35" viewBox="0 0 35 35" fill="none" xmlns="http://www.w3.org/2000/svg">
<path d="M29.9 34.32C28.29 34.32 26.68 34.32 25.07 34.32C24.57 34.15 24.03 34.04 23.56 33.8C21.57 32.81 20.61 31.16 20.6 28.95C20.59 28.09 20.6 27.22 20.6 26.3C20.24 26.3 19.98 26.3 19.71 26.3C13.81 26.3 7.91999 26.3 2.01999 26.3C0.67999 26.3 -9.76585e-06 25.62 -9.76585e-06 24.29C-9.76585e-06 22.35 -9.76585e-06 20.4 -9.76585e-06 18.46C-9.76585e-06 13.55 0.00999023 8.63 -0.0100098 3.72C-0.0100098 2.87 0.27999 2.22 1.04999 1.88C1.39999 1.72 1.82999 1.73 2.22999 1.65C2.66999 0.32 3.09999 0.01 4.55999 0.01C7.27999 0.01 10.01 0.02 12.73 0.01C13.72 0.01 14.71 -0.05 15.43 0.81C16.08 0.16 16.79 0 17.59 0C20.45 0.02 23.31 0.01 26.17 0.01C27.83 0.01 28.11 0.2 28.7 1.7C30.48 1.87 30.89 2.34 30.89 4.17C30.89 7.07 30.9 9.98 30.88 12.88C30.88 13.29 30.98 13.52 31.38 13.7C31.82 13.9 32.22 14.2 32.6 14.5C33.54 15.26 33.95 16.34 34.33 17.44C34.33 21.6 34.33 25.75 34.33 29.91C33.98 30.69 33.72 31.53 33.27 32.25C32.5 33.45 31.23 33.96 29.9 34.32ZM27.47 13.1C27.47 12.86 27.47 12.64 27.47 12.42C27.47 9.02 27.47 5.63 27.47 2.23C27.47 1.26 27.37 1.15 26.39 1.15C23.49 1.15 20.58 1.15 17.68 1.15C16.35 1.15 16.02 1.48 16.02 2.82C16.02 8.61 16.02 14.39 16.02 20.18C16.02 20.41 16.04 20.64 16.05 20.8C16.62 20.73 17.1 20.63 17.58 20.61C18.38 20.58 19.19 20.58 19.99 20.61C20.44 20.63 20.63 20.5 20.61 20.01C20.58 19.32 20.6 18.62 20.64 17.93C20.8 15.48 22.63 13.53 25.08 13.23C25.86 13.15 26.63 13.15 27.47 13.1ZM7.43999 8.36C6.83999 9.11 6.31999 9.8 5.73999 10.45C5.55999 10.65 5.16999 10.85 4.97999 10.77C4.77999 10.69 4.67999 10.3 4.57999 10.02C4.52999 9.89 4.56999 9.72 4.56999 9.56C4.56999 7.01 4.56999 4.47 4.56999 1.92C4.56999 1.68 4.56999 1.44 4.56999 1.21C3.57999 1.12 3.44999 1.24 3.44999 2.18C3.44999 8.08 3.44999 13.98 3.44999 19.87C3.44999 20.09 3.44999 20.3 3.44999 20.6C3.76999 20.6 4.00999 20.6 4.24999 20.6C6.94999 20.6 9.65999 20.59 12.36 20.61C13.19 20.62 14.02 20.7 14.87 20.74C14.86 20.79 14.88 20.75 14.88 20.7C14.88 14.62 14.89 8.55 14.88 2.47C14.88 2.25 14.86 1.99 14.74 1.83C14.55 1.58 14.27 1.24 14.01 1.23C12.8 1.17 11.58 1.2 10.32 1.2C10.32 1.5 10.32 1.74 10.32 1.98C10.32 4.59 10.33 7.21 10.3 9.82C10.3 10.15 10.06 10.48 9.92999 10.81C9.61999 10.64 9.24999 10.54 9.01999 10.3C8.47999 9.72 8.00999 9.07 7.43999 8.36ZM21.78 22.93C21.78 25.17 21.67 27.38 21.81 29.57C21.94 31.64 23.48 33.02 25.57 33.13C26.9 33.2 28.25 33.19 29.58 33.11C31.47 33 33.03 31.45 33.12 29.55C33.21 27.77 33.17 25.98 33.18 24.2C33.18 23.78 33.18 23.37 33.18 22.93C29.32 22.93 25.57 22.93 21.78 22.93ZM20.57 24.02C20.24 24.02 19.98 24.02 19.71 24.02C14.28 24.02 8.85999 24.02 3.42999 24.02C2.33999 24.02 2.28999 23.96 2.28999 22.89C2.28999 16.48 2.28999 10.07 2.28999 3.67C2.28999 3.41 2.28999 3.15 2.28999 2.9C1.28999 2.85 1.15999 2.98 1.15999 3.91C1.15999 10.63 1.15999 17.35 1.15999 24.07C1.15999 25.08 1.25999 25.18 2.26999 25.18C8.13999 25.18 14.01 25.18 19.89 25.18C20.11 25.18 20.32 25.16 20.57 25.14C20.57 24.77 20.57 24.45 20.57 24.02ZM26.85 21.73C26.85 19.22 26.85 16.8 26.85 14.34C26.36 14.34 25.92 14.32 25.48 14.34C23.67 14.45 22.08 15.76 21.87 17.54C21.71 18.9 21.84 20.28 21.84 21.7C21.91 21.71 22.01 21.73 22.12 21.73C23.67 21.73 25.23 21.73 26.85 21.73ZM28.05 21.73C29.62 21.73 31.13 21.73 32.64 21.73C32.79 21.73 32.94 21.71 33.14 21.7C33.14 20.47 33.21 19.27 33.13 18.07C32.96 15.49 30.6 13.81 28.05 14.42C28.05 16.82 28.05 19.22 28.05 21.73ZM9.10999 8.59C9.10999 6.03 9.10999 3.63 9.10999 1.21C7.96999 1.21 6.87999 1.21 5.79999 1.21C5.79999 3.66 5.79999 6.05 5.79999 8.56C6.22999 8.03 6.56999 7.6 6.92999 7.17C7.25999 6.78 7.60999 6.77 7.93999 7.16C8.30999 7.59 8.64999 8.03 9.10999 8.59ZM14.81 22.86C14.6 22.01 14.23 21.74 13.33 21.73C10.23 21.73 7.12999 21.73 4.02999 21.73C3.85999 21.73 3.67999 21.75 3.48999 21.77C3.48999 22.15 3.48999 22.49 3.48999 22.86C7.27999 22.86 11.02 22.86 14.81 22.86ZM28.65 2.93C28.65 6.36 28.65 9.74 28.65 13.13C29.03 13.13 29.36 13.13 29.71 13.13C29.73 13.02 29.75 12.93 29.75 12.85C29.75 9.79 29.76 6.73 29.75 3.67C29.75 2.98 29.49 2.81 28.65 2.93ZM16.14 22.85C17.6 22.85 19.06 22.85 20.56 22.85C20.56 22.47 20.56 22.12 20.56 21.74C19.42 21.74 18.33 21.71 17.24 21.75C16.55 21.78 16.2 22.17 16.14 22.85Z" fill="#1089A9"/>
</svg>
