<svg width="40" height="27" viewBox="0 0 40 27" fill="none" xmlns="http://www.w3.org/2000/svg">
<path d="M0 24.1324C0.124098 23.6932 0.23865 23.2446 0.381841 22.8055C1.75647 18.5957 6.30992 16.3619 10.4911 17.8797C11.0161 18.0706 11.2929 18.0038 11.6748 17.5933C16.2187 12.6676 23.8269 12.6867 28.3612 17.6411C28.6953 18.0038 28.934 18.0802 29.4113 17.9084C34.2988 16.1232 39.4059 19.3116 39.9692 24.4665C39.9787 24.5715 39.9787 24.6765 39.9883 24.7815C40.036 25.402 39.9692 25.9938 39.1959 26.0511C38.4227 26.0988 38.2986 25.5547 38.2509 24.9151C37.955 20.8485 34.0411 18.1756 30.2895 19.4453C30.1463 19.493 30.0127 19.5694 29.8408 19.6457C30.7 21.2781 31.2346 22.9773 31.2727 24.8101C31.2823 25.4306 31.2537 25.9938 30.4613 26.0606C29.879 26.1084 29.5736 25.6979 29.5354 24.8865C29.354 20.9344 26.872 17.5361 23.2159 16.2187C19.5502 14.9014 15.4645 15.9419 12.8298 18.9107C11.3502 20.5812 10.5293 22.5477 10.4433 24.791C10.4433 24.896 10.4433 25.001 10.4338 25.106C10.3956 25.6693 10.1474 26.0797 9.53647 26.0606C8.91598 26.0511 8.70597 25.6406 8.70597 25.0583C8.70597 23.4164 9.07826 21.8604 9.78466 20.3808C9.89922 20.1421 10.0138 19.913 10.1188 19.6839C8.53414 18.7293 5.90898 19.0252 4.17161 20.3617C2.68243 21.5072 1.91875 23.0346 1.71828 24.8865C1.6801 25.2683 1.47963 25.7647 1.18371 25.9747C0.735043 26.2707 0.315018 25.927 0 25.5356C0 25.0679 0 24.6001 0 24.1324Z" fill="#D1222A"/>
<path d="M20.0371 12.1428C16.6865 12.1618 13.9468 9.47942 13.9181 6.14786C13.8799 2.77812 16.591 0.0288636 19.9703 0.000225603C23.3114 -0.0284124 26.0607 2.67311 26.0893 6.00467C26.1275 9.37441 23.4164 12.1237 20.0371 12.1428ZM19.9989 10.4054C22.3854 10.4054 24.3328 8.49618 24.3615 6.11922C24.3901 3.72317 22.4236 1.74715 20.0085 1.74715C17.5933 1.74715 15.6269 3.71363 15.646 6.10967C15.6746 8.47709 17.622 10.4054 19.9989 10.4054Z" fill="#D1222A"/>
<path d="M3.59891 11.2739C3.60846 8.87782 5.60357 6.92089 8.00917 6.94953C10.367 6.97817 12.3144 8.95419 12.3049 11.3121C12.2953 13.6699 10.3289 15.6364 7.97099 15.6459C5.58448 15.665 3.58937 13.6699 3.59891 11.2739ZM10.558 11.3025C10.5675 9.86106 9.3647 8.65827 7.92326 8.67736C6.51999 8.69645 5.34583 9.88016 5.33629 11.2739C5.32674 12.7153 6.53908 13.9086 7.98053 13.8895C9.39334 13.8799 10.5484 12.7249 10.558 11.3025Z" fill="#D1222A"/>
<path d="M27.8267 11.2646C27.8458 8.86855 29.8409 6.91161 32.2465 6.94025C34.6044 6.96889 36.5518 8.95446 36.5327 11.3123C36.5136 13.6702 34.5471 15.6367 32.1892 15.6462C29.8027 15.6558 27.8171 13.6606 27.8267 11.2646ZM32.0842 13.8993C33.5257 13.9566 34.7476 12.8015 34.7857 11.3505C34.8239 9.94725 33.6879 8.74445 32.2656 8.68717C30.8432 8.6299 29.5927 9.80406 29.5545 11.2455C29.5259 12.6392 30.6619 13.8325 32.0842 13.8993Z" fill="#D1222A"/>
</svg>
