<svg width="36" height="37" viewBox="0 0 36 37" fill="none" xmlns="http://www.w3.org/2000/svg">
<path d="M6.87229 0C8.05963 0.422998 9.12823 1.0105 9.69816 2.19332C9.92771 2.66332 10.0702 3.17249 10.2681 3.71298C16.6006 1.15933 22.5927 1.84866 28.2127 5.78097C29.2497 4.99764 30.4212 4.68431 31.7035 4.95848C33.9041 5.42847 35.3368 7.55913 34.8856 9.80729C34.7035 10.7081 34.2603 11.5619 33.9753 12.4471C33.8803 12.7604 33.8012 13.1521 33.9041 13.4341C37.5848 23.5234 31.6798 34.1767 21.1045 36.4953C11.2892 38.6495 1.41052 31.7562 0.151942 21.8706C-0.0934419 19.9514 -0.0459483 18.0401 0.326085 16.1444C0.357747 16.0034 0.349832 15.8233 0.428988 15.7293C0.611046 15.5178 0.848515 15.3533 1.05432 15.1731C1.1968 15.4394 1.45802 15.7136 1.4501 15.9643C1.41052 16.6771 1.22846 17.3821 1.15722 18.0949C0.286507 26.3904 6.44484 34.2942 14.7562 35.5632C23.6217 36.9183 31.6639 31.4977 33.5479 22.8576C33.8566 21.4476 33.8803 19.9671 34.0624 18.2986C33.6112 18.4944 33.4054 18.5884 33.1917 18.6746C31.5294 19.3247 29.6217 18.7059 28.8143 17.1236C27.8803 15.2671 26.7721 13.4341 27.0808 11.2094C27.0966 11.0998 27.0492 10.9744 27.0175 10.8569C26.5742 9.39996 26.5426 7.9743 27.4449 6.59564C24.2312 4.25348 20.6929 3.14899 16.5768 3.31348C16.7589 3.65815 16.8539 3.94015 17.028 4.15948C17.3684 4.59815 17.7721 4.98981 18.1124 5.42064C18.8407 6.34497 18.8407 7.46513 18.0412 8.31113C17.1467 9.25896 16.2602 10.2303 15.2391 11.0293C14.6454 11.4914 13.8064 11.6481 13.0702 11.9144C12.8961 11.9771 12.6823 11.9536 12.4924 11.9301C10.3552 11.6638 8.47124 12.2043 6.85646 13.6456C6.35777 14.0921 5.74827 14.2566 5.11502 13.8963C4.51344 13.5594 4.37887 12.9954 4.3947 12.3531C4.41845 11.5619 4.40262 10.7708 4.26014 9.90129C3.87227 10.5045 3.45275 11.0998 3.10446 11.7186C2.77992 12.3061 2.55828 12.9484 2.21 13.5203C2.07543 13.7396 1.71923 13.8336 1.45802 13.9824C1.37886 13.7004 1.14139 13.3323 1.23638 13.1443C1.90129 11.8439 2.59786 10.5593 3.37359 9.31379C3.63481 8.89079 3.59523 8.67146 3.38942 8.24846C2.86699 7.1518 2.29707 6.01597 2.03585 4.82531C1.58467 2.73382 2.82741 0.853829 4.88547 0.172333C5.02004 0.125333 5.14669 0.0548331 5.27333 0C5.80368 0 6.34194 0 6.87229 0ZM5.48706 10.7003C5.48706 11.2564 5.46331 11.6873 5.49497 12.1103C5.51872 12.4001 5.62954 12.6821 5.70078 12.9641C5.95408 12.8544 6.25487 12.7918 6.46068 12.6194C8.13087 11.1781 10.0544 10.5985 12.247 10.8413C12.3657 10.8569 12.4924 10.8335 12.6111 10.8413C13.5451 10.9118 14.305 10.575 14.9462 9.90129C15.5794 9.23546 16.2444 8.60879 16.8934 7.95863C17.7404 7.11263 17.7325 6.66614 16.9568 5.74181C16.3868 5.06031 15.8802 4.32398 15.2312 3.46232C13.6876 3.61115 11.9858 4.12815 10.371 4.91148C10.2285 4.98198 10.1098 5.18564 10.0702 5.35014C9.63483 7.18313 8.61372 8.67146 7.36305 10.0501C6.89603 10.5828 6.3736 10.9666 5.48706 10.7003ZM27.817 9.01613C27.8249 10.6768 29.1705 13.3323 30.5716 14.3898C30.6903 14.4759 31.0149 14.4838 31.1019 14.3898C32.5347 12.9171 33.722 11.2956 33.8645 9.16496C33.9753 7.44163 32.5742 5.96114 30.8724 5.93764C29.1784 5.91414 27.809 7.2928 27.817 9.01613ZM6.08073 9.82296C7.67968 8.1623 9.0095 6.50164 9.09657 4.21431C9.15989 2.47532 7.79841 1.09666 6.09656 1.08883C4.35513 1.08099 2.99364 2.45966 3.06488 4.23781C3.16779 6.5173 4.48969 8.17796 6.08073 9.82296ZM28.6323 13.9041C28.5927 13.9276 28.5531 13.9433 28.5135 13.9668C28.9806 14.9303 29.3605 15.9408 29.9225 16.8338C30.6666 18.0166 32.3289 18.1811 33.437 17.2959C33.5558 17.2019 33.6983 17.0218 33.6745 16.9121C33.4766 15.9721 33.2471 15.0399 33.0017 13.9668C32.5426 14.4603 32.2497 14.8049 31.9252 15.1261C31.1969 15.8546 30.5083 15.8624 29.788 15.1496C29.3922 14.7501 29.0201 14.3193 28.6323 13.9041Z" fill="#2E6D48"/>
<path d="M15.4211 14.8991C13.7509 14.9304 10.9646 18.1421 10.9963 19.9907C11.115 19.9359 11.2179 19.9124 11.305 19.8497C12.8881 18.6669 14.6612 18.5338 16.1731 19.4737C17.6849 20.4137 18.4132 22.1919 18.0253 24.0562C17.5899 26.1555 16.4026 27.8397 14.8749 29.2889C14.582 29.5709 14.0675 29.6257 13.4976 29.8372C13.4976 30.4482 13.4738 31.1924 13.5055 31.9365C13.5451 32.9627 14.5029 33.4953 15.3577 32.9157C17.2258 31.6702 19.1256 30.4482 20.8749 29.046C21.7931 28.3097 22.4185 27.2209 23.1784 26.2887C23.3288 26.1007 23.4237 25.8344 23.6137 25.7247C23.8274 25.5994 24.1203 25.6072 24.3736 25.5524C24.4132 25.8109 24.5715 26.1477 24.4686 26.3044C23.4633 27.7379 22.5847 29.281 21.0807 30.3072C19.4105 31.4509 17.7403 32.6102 16.0622 33.7538C15.2786 34.2943 14.4395 34.3883 13.5926 33.934C12.7456 33.4797 12.3023 32.7277 12.4131 31.7955C12.6427 29.9077 12.3577 28.2705 11.0833 26.6882C9.9039 25.2077 9.5002 23.3591 10.1414 21.4399C10.1968 21.2832 10.1176 21.0717 10.0622 20.8994C9.72184 19.8262 9.84058 18.8157 10.4976 17.8836C11.0833 17.0533 11.6691 16.2308 12.2627 15.4161C12.9514 14.4683 13.8696 13.9199 15.057 13.8024C15.2548 13.7789 15.524 13.5831 15.6031 13.3951C16.5293 11.147 18.6111 10.0503 20.772 10.7083C22.9092 11.3584 24.0966 13.5518 23.5425 15.8939C23.3683 16.6303 23.0517 17.3431 22.7747 18.1499C23.5979 18.7296 24.4844 19.3484 25.3631 19.9751C26.9541 21.1109 27.1916 22.7637 25.9409 24.2599C25.7747 24.4557 25.3868 24.4714 25.1019 24.5732C25.086 24.2756 24.9435 23.9152 25.0702 23.6959C25.9567 22.1449 25.8618 21.6436 24.3736 20.6096C23.6454 20.1004 22.9171 19.5912 22.1652 19.0664C21.6348 19.6696 21.1678 20.2414 20.6533 20.7741C19.9013 21.5496 19.2206 21.5496 18.4686 20.7819C16.8775 19.1369 15.6585 17.2961 15.4211 14.8991ZM22.5926 15.0714C22.6401 12.9408 21.1995 11.5308 19.363 11.6326C17.5741 11.7344 16.3155 13.3089 16.553 15.1263C16.8142 17.1003 17.9145 18.6277 19.2522 20.0142C19.3551 20.1161 19.7351 20.1396 19.8301 20.0456C21.2707 18.5651 22.4185 16.9358 22.5926 15.0714ZM10.9646 23.2494C11.0992 25.1921 12.2707 26.8605 13.7351 28.3724C13.8221 28.4664 14.1783 28.4664 14.2654 28.3724C15.6823 26.9154 16.8538 25.3096 17.0359 23.2181C17.1863 21.4634 15.7694 19.9516 14.0358 19.9281C12.334 19.9046 10.9488 21.2911 10.9646 23.2494Z" fill="#2E6D48"/>
<path d="M33.1284 9.05539C33.1443 10.3087 32.1073 11.3584 30.8567 11.3662C29.6297 11.374 28.5849 10.3635 28.5532 9.15722C28.5216 7.89606 29.5268 6.8464 30.7933 6.80723C32.0361 6.76806 33.1126 7.80206 33.1284 9.05539ZM32.044 9.06322C32.0282 8.40522 31.4899 7.89606 30.8171 7.90389C30.1522 7.91173 29.6218 8.45222 29.6297 9.10239C29.6456 9.76038 30.1838 10.2695 30.8567 10.2539C31.5374 10.246 32.0598 9.72122 32.044 9.06322Z" fill="#2E6D48"/>
<path d="M8.36046 4.24582C8.35255 5.50698 7.3156 6.50181 6.04119 6.48614C4.76678 6.47048 3.77733 5.43648 3.80108 4.15965C3.81691 2.92982 4.82219 1.9585 6.08077 1.9585C7.3631 1.9585 8.3763 2.96899 8.36046 4.24582ZM6.05702 3.03166C5.40794 3.04732 4.85385 3.61916 4.86968 4.24582C4.88552 4.88815 5.46335 5.42865 6.10452 5.41298C6.7536 5.39731 7.29977 4.83332 7.29186 4.19099C7.27603 3.55649 6.69819 3.01599 6.05702 3.03166Z" fill="#2E6D48"/>
<path d="M19.5849 17.0061C18.2788 17.0139 17.2102 15.9329 17.2656 14.6639C17.321 13.3949 18.3975 12.4236 19.672 12.4863C20.0598 12.5098 20.4873 12.5803 20.3923 13.0503C20.3527 13.2539 19.949 13.4968 19.6957 13.5281C18.8962 13.6299 18.4055 14.0059 18.3738 14.6796C18.3421 15.3063 18.8012 15.8468 19.4345 15.9251C20.0677 16.0034 20.5664 15.6196 20.7485 14.8676C20.8435 14.4838 20.9939 14.0843 21.4371 14.2801C21.6588 14.3741 21.8487 14.8519 21.8171 15.1261C21.6825 16.1993 20.6772 17.0061 19.5849 17.0061Z" fill="#2E6D48"/>
<path d="M14.036 25.3486C12.7774 25.3642 11.7088 24.3302 11.7008 23.0847C11.6929 21.8549 12.7615 20.7896 14.0122 20.7974C15.2312 20.7974 16.2761 21.8157 16.3156 23.0299C16.3394 24.2519 15.2866 25.3329 14.036 25.3486ZM15.1916 23.1004C15.2075 22.4267 14.7009 21.9019 14.036 21.8862C13.3631 21.8706 12.8328 22.3641 12.8169 23.0377C12.8011 23.7114 13.2998 24.2284 13.9726 24.2441C14.6455 24.2676 15.1758 23.7662 15.1916 23.1004Z" fill="#2E6D48"/>
</svg>
