<svg width="83" height="35" viewBox="0 0 83 35" fill="none" xmlns="http://www.w3.org/2000/svg">
<rect opacity="0.1" y="0.0913086" width="83" height="34" rx="17" fill="#2E6D48"/>
<path d="M23.2514 9.7389L25.5806 19.7873L28.3723 9.7389H30.1886L32.9803 19.7873L35.3095 9.7389H37.1426L33.8968 22.0913H32.1394L29.2889 11.8495L26.4215 22.0913H24.6641L21.4351 9.7389H23.2514ZM42.0544 21.1159C43.0579 21.1159 43.7446 20.7375 44.1145 19.9807C44.4901 19.2183 44.6779 18.3719 44.6779 17.4413C44.6779 16.6004 44.5434 15.9165 44.2743 15.3896C43.8483 14.5599 43.1139 14.1451 42.0712 14.1451C41.1463 14.1451 40.4736 14.4982 40.0531 15.2046C39.6327 15.9109 39.4225 16.763 39.4225 17.7608C39.4225 18.7194 39.6327 19.5182 40.0531 20.1573C40.4736 20.7964 41.1407 21.1159 42.0544 21.1159ZM42.1133 12.8249C43.2737 12.8249 44.2547 13.2117 45.0563 13.9853C45.858 14.7589 46.2588 15.8969 46.2588 17.3992C46.2588 18.8511 45.9056 20.0508 45.1993 20.9982C44.4929 21.9456 43.397 22.4192 41.9115 22.4192C40.6726 22.4192 39.6888 22.0016 38.96 21.1663C38.2313 20.3255 37.8669 19.1987 37.8669 17.786C37.8669 16.2725 38.2509 15.0672 39.0189 14.1703C39.7869 13.2734 40.8183 12.8249 42.1133 12.8249ZM48.3957 13.0856H49.8336V14.6412C49.9513 14.3385 50.24 13.9713 50.6997 13.5396C51.1594 13.1024 51.6891 12.8838 52.2889 12.8838C52.317 12.8838 52.3646 12.8866 52.4319 12.8922C52.4992 12.8978 52.6141 12.909 52.7767 12.9258V14.5235C52.687 14.5066 52.6029 14.4954 52.5244 14.4898C52.4515 14.4842 52.3702 14.4814 52.2805 14.4814C51.5181 14.4814 50.9323 14.7281 50.5231 15.2214C50.1139 15.7091 49.9093 16.2725 49.9093 16.9115V22.0913H48.3957V13.0856ZM54.3418 9.7389H55.7965V16.9115L59.6813 13.0856H61.6153L58.1678 16.4575L61.8087 22.0913H59.8747L57.0662 17.5506L55.7965 18.711V22.0913H54.3418V9.7389Z" fill="#2E6D48"/>
</svg>
